SplineFontDB: 3.0
FontName: CimaticsFull_Mono
FullName: CimaticsFull Mono
FamilyName: Cimatics
Weight: Mono
Copyright: Created by Ludi and Ivan - O S P (http://ospublish.constantvzw.org) with FontForge 2.0 (http://fontforge.sf.net).\nThis font was designed in July 2009, for the graphic identity of Cimatics A\\V Platform (http://www.cimatics.com). It gathers glyphs from FreeSerif, FreeSerifItalic, DejaVuSans, DejaVuSerif, the OSP_frog mascot, the Cimatics two piece heart, a baronchon_palm_tree from Open Clip Art Library (www.openclipart.org) and private use dingbats drawned for Cimatics (CimaticsScaredEye, CimaticsWhitePentagon).
UComments: "2009-9-8: Created." 
Version: 1
ItalicAngle: 0
UnderlinePosition: -100
UnderlineWidth: 50
Ascent: 800
Descent: 200
LayerCount: 2
Layer: 0 0 "Back" 
Layer: 1 0 "Fore" 
NeedsXUIDChange: 1
XUID: [1021 179 886990652 15639629]
FSType: 0
OS2Version: 0
OS2_WeightWidthSlopeOnly: 0
OS2_UseTypoMetrics: 1
CreationTime: 1252396920
ModificationTime: 1255342265
PfmFamily: 81
TTFWeight: 400
TTFWidth: 5
LineGap: 90
VLineGap: 0
Panose: 5 0 6 0 8 0 0 0 0 0
OS2TypoAscent: 0
OS2TypoAOffset: 1
OS2TypoDescent: 0
OS2TypoDOffset: 1
OS2TypoLinegap: 90
OS2WinAscent: 0
OS2WinAOffset: 1
OS2WinDescent: 0
OS2WinDOffset: 1
HheadAscent: 0
HheadAOffset: 1
HheadDescent: 0
HheadDOffset: 1
OS2SubXSize: 0
OS2SubYSize: 0
OS2SubXOff: -30683
OS2SubYOff: 32693
OS2SupXSize: -11920
OS2SupYSize: 0
OS2SupXOff: -26800
OS2SupYOff: 32767
OS2StrikeYSize: 0
OS2StrikeYPos: 32767
OS2Vendor: 'PfEd'
DEI: 0
LangName: 1033 "" "" "" "" "" "" "" "" "" "" "" "" "http://ospublish.constantvzw.org" "SIL Open Font License, Version 1.1" "http://scripts.sil.org/OFL" 
Encoding: UnicodeFull
UnicodeInterp: none
NameList: Adobe Glyph List
DisplaySize: -48
AntiAlias: 1
FitToEm: 1
WinInfo: 984516 12 10
BeginChars: 1114112 723

StartChar: less
Encoding: 60 60 0
Width: 900
Flags: HW
LayerCount: 2
Fore
SplineSet
150 87 m 0
 181.333 87 209.667 95 235 111 c 128
 260.333 127 284.333 150.833 307 182.5 c 128
 329.667 214.167 354.333 253.333 381 300 c 2
 470 463 l 1
 479 463 l 1
 470 213 l 1
 569 423 l 1
 577 423 l 1
 574 222 l 1
 672 399 l 1
 676 239 l 1
 747 365 l 1
 766 280 l 2
 772.667 250 784.333 235 801 235 c 0
 810.333 235 819.667 238.667 829 246 c 2
 869 279 l 1
 892 265 l 1
 885.333 259.667 876.333 252 865 242 c 128
 853.667 232 845.667 225.5 841 222.5 c 128
 836.333 219.5 829.167 216 819.5 212 c 128
 809.833 208 799 205.667 787 205 c 0
 771 205 760 210.5 754 221.5 c 128
 748 232.5 740.667 255.333 732 290 c 1
 654 155 l 1
 650 309 l 1
 549 122 l 1
 549 322 l 1
 447 105 l 1
 439 105 l 1
 447 365 l 1
 386 254 l 1
 332 170 l 1
 274 105 l 1
 214 70 l 1
 141 56 l 1
 93.6667 56 59.6667 71.3333 39 102 c 128
 18.3333 132.667 8 167.333 8 206 c 128
 8 244.667 17.3333 286.5 36 331.5 c 128
 54.6667 376.5 82.5 416.167 119.5 450.5 c 128
 156.5 484.833 197 502 241 502 c 0
 274.333 502 300 492.667 318 474 c 128
 336 455.333 345 429.333 345 396 c 0
 345 349.333 328.833 301.833 296.5 253.5 c 128
 264.167 205.167 225.333 180.667 180 180 c 0
 157.333 180 141 188.167 131 204.5 c 128
 121 220.833 116 238.333 116 257 c 0
 116 282.333 124.333 303.833 141 321.5 c 128
 157.667 339.167 174.333 348 191 348 c 0
 214.333 348 226 332 226 300 c 0
 226 279.333 218.5 260.667 203.5 244 c 128
 188.5 227.333 174 219 160 219 c 2
 157 219 l 1
 165 213 176 210 190 210 c 0
 219.333 210 247.333 230.5 274 271.5 c 128
 300.667 312.5 314 351.333 314 388 c 0
 314 413.333 307 433.5 293 448.5 c 128
 279 463.5 259 471 233 471 c 0
 185 471 140.667 443 100 387 c 128
 59.3333 331 39 274.667 39 218 c 0
 39 196.667 41.8333 176.833 47.5 158.5 c 128
 53.1667 140.167 64.8333 123.667 82.5 109 c 128
 100.167 94.3333 122.667 87 150 87 c 0
181 320 m 0
 170.333 320 161.167 313.5 153.5 300.5 c 128
 145.833 287.5 142 274.667 142 262 c 0
 142 248.667 148 242 160 242 c 2
 163 242 l 2
 171.667 242 179.667 247.667 187 259 c 128
 194.333 270.333 198 282.667 198 296 c 0
 198 312 192.333 320 181 320 c 0
EndSplineSet
Validated: 1
EndChar

StartChar: exclam
Encoding: 33 33 1
Width: 900
Flags: HW
LayerCount: 2
Fore
SplineSet
640 0 m 1
 570 0 l 1
 260 739 l 1
 330 739 l 1
 640 0 l 1
EndSplineSet
Validated: 1
EndChar

StartChar: quotedbl
Encoding: 34 34 2
Width: 900
Flags: HW
LayerCount: 2
Fore
SplineSet
531.5 560 m 1
 500.5 560 l 1
 498.5 573.333 493.5 583 485.5 589 c 0
 476.833 595.667 464.833 599 449.5 599 c 0
 434.833 599 423.333 595.833 415 589.5 c 128
 406.667 583.167 401.167 573.333 398.5 560 c 1
 367.5 560 l 1
 369.5 584.667 377.333 603.333 391 616 c 128
 404.667 628.667 424.167 635 449.5 635 c 128
 474.833 635 494.333 628.667 508 616 c 128
 521.667 603.333 529.5 584.667 531.5 560 c 1
744.5 485 m 1
 713.5 485 l 1
 711.5 497.667 706.167 507.333 697.5 514 c 0
 689.5 520.667 677.833 524 662.5 524 c 0
 647.833 524 636.167 520.833 627.5 514.5 c 128
 618.833 508.167 613.5 498.333 611.5 485 c 1
 580.5 485 l 1
 582.5 509.667 590.333 528.333 604 541 c 128
 617.667 553.667 637.167 560 662.5 560 c 128
 687.833 560 707.333 553.667 721 541 c 128
 734.667 528.333 742.5 509.667 744.5 485 c 1
318.5 485 m 1
 287.5 485 l 1
 286.167 497.667 281.167 507.333 272.5 514 c 128
 263.833 520.667 251.833 524 236.5 524 c 0
 221.833 524 210.333 520.833 202 514.5 c 128
 193.667 508.167 188.5 498.333 186.5 485 c 1
 155.5 485 l 1
 156.833 509.667 164.5 528.333 178.5 541 c 128
 192.5 553.667 212 560 237 560 c 128
 262 560 281.5 553.667 295.5 541 c 128
 309.5 528.333 317.167 509.667 318.5 485 c 1
744.5 121 m 1
 713.5 121 l 1
 711.5 133.667 706.167 143.333 697.5 150 c 0
 689.5 156.667 677.833 160 662.5 160 c 0
 647.833 160 636.167 156.833 627.5 150.5 c 128
 618.833 144.167 613.5 134.333 611.5 121 c 1
 580.5 121 l 1
 582.5 145.667 590.333 164.333 604 177 c 128
 617.667 189.667 637.167 196 662.5 196 c 128
 687.833 196 707.333 189.667 721 177 c 128
 734.667 164.333 742.5 145.667 744.5 121 c 1
318.5 121 m 1
 287.5 121 l 1
 286.167 133.667 281.167 143.333 272.5 150 c 128
 263.833 156.667 251.833 160 236.5 160 c 0
 221.833 160 210.333 156.833 202 150.5 c 128
 193.667 144.167 188.5 134.333 186.5 121 c 1
 155.5 121 l 1
 156.833 145.667 164.5 164.333 178.5 177 c 128
 192.5 189.667 212 196 237 196 c 128
 262 196 281.5 189.667 295.5 177 c 128
 309.5 164.333 317.167 145.667 318.5 121 c 1
832.5 303 m 1
 801.5 303 l 1
 799.5 315.667 794.167 325.333 785.5 332 c 0
 777.5 338.667 765.833 342 750.5 342 c 0
 735.833 342 724.333 338.833 716 332.5 c 128
 707.667 326.167 702.167 316.333 699.5 303 c 1
 668.5 303 l 1
 670.5 327.667 678.333 346.333 692 359 c 128
 705.667 371.667 725.167 378 750.5 378 c 128
 775.833 378 795.333 371.667 809 359 c 128
 822.667 346.333 830.5 327.667 832.5 303 c 1
230.5 303 m 1
 199.5 303 l 1
 197.5 315.667 192.5 325.333 184.5 332 c 0
 175.833 338.667 163.833 342 148.5 342 c 0
 133.833 342 122.333 338.833 114 332.5 c 128
 105.667 326.167 100.167 316.333 97.5 303 c 1
 67.5 303 l 1
 68.833 327.667 76.333 346.333 90 359 c 128
 103.667 371.667 123.167 378 148.5 378 c 128
 173.833 378 193.5 371.667 207.5 359 c 128
 221.5 346.333 229.167 327.667 230.5 303 c 1
531.5 45 m 1
 500.5 45 l 1
 498.5 58.333 493.5 68.333 485.5 75 c 0
 476.833 81 464.833 84 449.5 84 c 0
 434.833 84 423.333 80.833 415 74.5 c 128
 406.667 68.167 401.167 58.333 398.5 45 c 1
 367.5 45 l 1
 369.5 70.333 377.333 89.167 391 101.5 c 128
 404.667 113.833 424.167 120 449.5 120 c 128
 474.833 120 494.333 113.833 508 101.5 c 128
 521.667 89.167 529.5 70.333 531.5 45 c 1
EndSplineSet
Validated: 1
EndChar

StartChar: numbersign
Encoding: 35 35 3
Width: 900
Flags: HW
LayerCount: 2
Fore
SplineSet
150 87 m 0
 181.333 87 209.667 95 235 111 c 128
 260.333 127 284.333 150.833 307 182.5 c 128
 329.667 214.167 354.333 253.333 381 300 c 2
 470 463 l 1
 479 463 l 1
 470 213 l 1
 569 423 l 1
 577 423 l 1
 574 222 l 1
 672 399 l 1
 676 239 l 1
 747 365 l 1
 766 280 l 2
 772.667 250 784.333 235 801 235 c 0
 810.333 235 819.667 238.667 829 246 c 2
 869 279 l 1
 892 265 l 1
 885.333 259.667 876.333 252 865 242 c 128
 853.667 232 845.667 225.5 841 222.5 c 128
 836.333 219.5 829.167 216 819.5 212 c 128
 809.833 208 799 205.667 787 205 c 0
 771 205 760 210.5 754 221.5 c 128
 748 232.5 740.667 255.333 732 290 c 1
 654 155 l 1
 650 309 l 1
 549 122 l 1
 549 322 l 1
 447 105 l 1
 439 105 l 1
 447 365 l 1
 386 254 l 1
 332 170 l 1
 274 105 l 1
 214 70 l 1
 141 56 l 1
 93.6667 56 59.6667 71.3333 39 102 c 128
 18.3333 132.667 8 167.333 8 206 c 128
 8 244.667 17.3333 286.5 36 331.5 c 128
 54.6667 376.5 82.5 416.167 119.5 450.5 c 128
 156.5 484.833 197 502 241 502 c 0
 274.333 502 300 492.667 318 474 c 128
 336 455.333 345 429.333 345 396 c 0
 345 349.333 328.833 301.833 296.5 253.5 c 128
 264.167 205.167 225.333 180.667 180 180 c 0
 157.333 180 141 188.167 131 204.5 c 128
 121 220.833 116 238.333 116 257 c 0
 116 282.333 124.333 303.833 141 321.5 c 128
 157.667 339.167 174.333 348 191 348 c 0
 214.333 348 226 332 226 300 c 0
 226 279.333 218.5 260.667 203.5 244 c 128
 188.5 227.333 174 219 160 219 c 2
 157 219 l 1
 165 213 176 210 190 210 c 0
 219.333 210 247.333 230.5 274 271.5 c 128
 300.667 312.5 314 351.333 314 388 c 0
 314 413.333 307 433.5 293 448.5 c 128
 279 463.5 259 471 233 471 c 0
 185 471 140.667 443 100 387 c 128
 59.3333 331 39 274.667 39 218 c 0
 39 196.667 41.8333 176.833 47.5 158.5 c 128
 53.1667 140.167 64.8333 123.667 82.5 109 c 128
 100.167 94.3333 122.667 87 150 87 c 0
181 320 m 0
 170.333 320 161.167 313.5 153.5 300.5 c 128
 145.833 287.5 142 274.667 142 262 c 0
 142 248.667 148 242 160 242 c 2
 163 242 l 2
 171.667 242 179.667 247.667 187 259 c 128
 194.333 270.333 198 282.667 198 296 c 0
 198 312 192.333 320 181 320 c 0
EndSplineSet
Validated: 1
EndChar

StartChar: dollar
Encoding: 36 36 4
Width: 900
Flags: HW
LayerCount: 2
Fore
SplineSet
835 186 m 2
 835 94 819.833 32.833 789.5 2.5 c 128
 759.167 -27.833 698 -43 606 -43 c 2
 294 -43 l 2
 202 -43 140.833 -27.833 110.5 2.5 c 128
 80.167 32.833 65 94 65 186 c 2
 65 250 l 2
 65 338 78.167 397.333 104.5 428 c 128
 130.833 458.667 181.333 475.333 256 478 c 1
 256 534 l 1
 437 715 l 1
 644 715 l 1
 644 478 l 1
 718.667 475.333 769.167 458.5 795.5 427.5 c 128
 821.833 396.5 835 337.333 835 250 c 2
 835 186 l 2
431 541 m 1
 431 652 l 1
 319 541 l 1
 431 541 l 1
604 177 m 1
 604 675 l 1
 471 675 l 1
 471 501 l 1
 296 501 l 1
 296 177 l 1
 604 177 l 1
795 186 m 2
 795 250 l 2
 795 326.667 785.333 376.667 766 400 c 128
 746.667 423.333 706 436 644 438 c 1
 644 137 l 1
 256 137 l 1
 256 438 l 1
 193.333 436 152.5 423.333 133.5 400 c 128
 114.5 376.667 105 326.667 105 250 c 2
 105 186 l 2
 105 105.333 116.5 53.667 139.5 31 c 128
 162.5 8.33301 214 -3 294 -3 c 2
 606 -3 l 2
 686.667 -3 738.333 8.5 761 31.5 c 128
 783.667 54.5 795 106 795 186 c 2
EndSplineSet
Validated: 1
EndChar

StartChar: percent
Encoding: 37 37 5
Width: 900
Flags: HW
LayerCount: 2
Fore
SplineSet
739.5 293 m 1
 160.5 293 l 1
 449.5 615 l 1
 739.5 293 l 1
739.5 0 m 1
 160.5 0 l 1
 160.5 189 l 1
 739.5 189 l 1
 739.5 0 l 1
EndSplineSet
Validated: 1
EndChar

StartChar: ampersand
Encoding: 38 38 6
Width: 900
Flags: HW
LayerCount: 2
Fore
SplineSet
830.5 -200 m 1
 69.5 -200 l 1
 69.5 -75 l 1
 830.5 -75 l 1
 830.5 -200 l 1
EndSplineSet
Validated: 1
EndChar

StartChar: quotesingle
Encoding: 39 39 7
Width: 900
Flags: HW
LayerCount: 2
Fore
SplineSet
830.5 -200 m 1
 69.5 -200 l 1
 69.5 175 l 1
 830.5 175 l 1
 830.5 -200 l 1
EndSplineSet
Validated: 1
EndChar

StartChar: parenleft
Encoding: 40 40 8
Width: 900
Flags: HW
LayerCount: 2
Fore
SplineSet
830.5 -200 m 1
 69.5 -200 l 1
 69.5 425 l 1
 830.5 425 l 1
 830.5 -200 l 1
EndSplineSet
Validated: 1
EndChar

StartChar: parenright
Encoding: 41 41 9
Width: 900
Flags: HW
LayerCount: 2
Fore
SplineSet
151.5 -27 m 1
 748.5 -27 l 1
 449.5 571 l 1
 151.5 -27 l 1
68.5 -83 m 1
 449.5 683 l 1
 831.5 -83 l 1
 68.5 -83 l 1
EndSplineSet
Validated: 1
EndChar

StartChar: asterisk
Encoding: 42 42 10
Width: 900
Flags: HW
LayerCount: 2
Fore
SplineSet
202 51 m 1
 202 549 l 1
 698 300 l 1
 202 51 l 1
EndSplineSet
Validated: 1
EndChar

StartChar: plus
Encoding: 43 43 11
Width: 900
Flags: HW
LayerCount: 2
Fore
SplineSet
575 175 m 1
 512 175 l 1
 512 112 l 1
 388 112 l 1
 388 175 l 1
 512 175 l 1
 512 238 l 1
 575 238 l 1
 575 175 l 1
388 300 m 1
 325 300 l 1
 325 362 l 1
 388 362 l 1
 388 300 l 1
575 300 m 1
 512 300 l 1
 512 362 l 1
 575 362 l 1
 575 300 l 1
325 50 m 1
 575 50 l 1
 575 -12 l 1
 325 -12 l 1
 325 50 l 1
325 50 m 1
 262 50 l 1
 262 112 l 1
 325 112 l 1
 325 50 l 1
575 50 m 1
 575 112 l 1
 638 112 l 1
 638 50 l 1
 575 50 l 1
262 112 m 1
 200 112 l 1
 200 175 l 1
 200 238 l 1
 200 300 l 1
 200 362 l 1
 200 425 l 1
 262 425 l 1
 262 362 l 1
 262 300 l 1
 262 238 l 1
 262 175 l 1
 262 112 l 1
638 112 m 1
 638 175 l 1
 638 238 l 1
 638 300 l 1
 638 362 l 1
 638 425 l 1
 700 425 l 1
 700 362 l 1
 700 300 l 1
 700 238 l 1
 700 175 l 1
 700 112 l 1
 638 112 l 1
388 175 m 1
 325 175 l 1
 325 238 l 1
 388 238 l 1
 388 175 l 1
262 425 m 1
 262 488 l 1
 325 488 l 1
 325 425 l 1
 262 425 l 1
638 425 m 1
 575 425 l 1
 575 488 l 1
 638 488 l 1
 638 425 l 1
325 488 m 1
 325 550 l 1
 575 550 l 1
 575 488 l 1
 325 488 l 1
EndSplineSet
Validated: 5
EndChar

StartChar: comma
Encoding: 44 44 12
Width: 900
Flags: HW
LayerCount: 2
Fore
SplineSet
220.5 791 m 1
 221.5 791 l 1
 212.167 723.667 192.5 690 162.5 690 c 2
 159.5 690 l 1
 140.833 693.333 131.5 700.667 131.5 712 c 2
 131.5 713 l 2
 131.5 731 161.167 757 220.5 791 c 1
423.5 914 m 1
 423.5 914 l 1
 414.167 846.667 394.5 813 364.5 813 c 2
 361.5 813 l 1
 342.833 815.667 333.5 822.667 333.5 834 c 2
 333.5 835 l 2
 333.5 853 363.5 879.333 423.5 914 c 1
598.5 973 m 1
 599.5 973 l 1
 590.167 905.667 570.5 872 540.5 872 c 2
 537.5 872 l 2
 518.167 874.667 508.5 881.667 508.5 893 c 2
 508.5 895 l 2
 508.5 912.333 538.5 938.333 598.5 973 c 1
629.5 831 m 1
 631.5 831 l 1
 621.5 763.667 601.5 730 571.5 730 c 2
 568.5 730 l 1
 549.833 732.667 540.5 739.667 540.5 751 c 2
 540.5 752 l 2
 540.5 770 570.167 796.333 629.5 831 c 1
805.5 933 m 1
 806.5 933 l 1
 797.167 866.333 777.5 833 747.5 833 c 2
 744.5 833 l 2
 725.167 835 715.5 842 715.5 854 c 2
 715.5 855 l 2
 715.5 873 745.5 899 805.5 933 c 1
859.5 831 m 1
 860.5 831 l 1
 851.167 763.667 831.5 730 801.5 730 c 2
 797.5 730 l 2
 779.5 732 770.5 739 770.5 751 c 2
 770.5 752 l 2
 770.5 770 800.167 796.333 859.5 831 c 1
814.5 664 m 1
 816.5 664 l 1
 806.5 596.667 786.5 563 756.5 563 c 2
 753.5 563 l 1
 734.833 566.333 725.5 573.667 725.5 585 c 2
 725.5 586 l 2
 725.5 604 755.167 630 814.5 664 c 1
433.5 689 m 1
 462.5 689 l 1
 464.5 686 l 1
 464.5 632 l 1
 465.5 632 l 2
 608.833 632 726.167 561.667 817.5 421 c 0
 831.5 395.667 838.5 381.333 838.5 378 c 2
 838.5 374 l 1
 837.5 374 l 1
 830.167 378.667 823.5 387.667 817.5 401 c 1
 806.167 407.667 791.167 411 772.5 411 c 2
 751.5 411 l 2
 702.167 411 659.5 396.333 623.5 367 c 1
 623.5 345 l 2
 623.5 341 622.167 338.667 619.5 338 c 1
 603.5 366 l 1
 554.167 384 507.5 393 463.5 393 c 1
 463.5 95 l 2
 463.5 65.667 446.167 47.667 411.5 41 c 2
 396.5 40 l 2
 367.167 40 346.5 54 334.5 82 c 1
 333.5 94 l 1
 333.5 105 l 1
 336.5 108 l 1
 357.5 108 l 1
 359.5 105 l 1
 359.5 100 l 2
 362.833 70.667 374.833 56 395.5 56 c 2
 400.5 56 l 2
 417.833 56 429.833 64.333 436.5 81 c 1
 439.5 99 l 1
 439.5 393 l 1
 370.833 393 322.5 384 294.5 366 c 1
 289.167 350 284.167 342 279.5 342 c 1
 276.5 344 l 1
 276.5 349 l 1
 279.5 372 l 1
 277.5 372 l 1
 255.5 390 212.5 403 148.5 411 c 2
 115.5 411 l 2
 83.5 411 61.833 402 50.5 384 c 1
 41.5 377 l 1
 39.5 377 l 1
 39.5 378 l 1
 58.833 419.333 99.5 471.667 161.5 535 c 0
 239.5 599.667 329.167 632 430.5 632 c 1
 430.5 686 l 1
 433.5 689 l 1
EndSplineSet
Validated: 5
EndChar

StartChar: hyphen
Encoding: 45 45 13
Width: 900
Flags: HW
LayerCount: 2
Fore
SplineSet
469.5 442 m 1
 469.5 454 l 2
 469.5 463.333 470.667 474.833 473 488.5 c 128
 475.333 502.167 478.167 517.333 481.5 534 c 128
 484.833 550.667 491.167 567.333 500.5 584 c 128
 509.833 600.667 521 616 534 630 c 128
 547 644 564.5 655.167 586.5 663.5 c 128
 608.5 671.833 633.167 676 660.5 676 c 0
 683.833 676 705.667 671.833 726 663.5 c 128
 746.333 655.167 764 643.833 779 629.5 c 128
 794 615.167 806 597.833 815 577.5 c 128
 824 557.167 829.333 536 831 514 c 128
 832.667 492 829.5 468 821.5 442 c 128
 813.5 416 800.5 390.667 782.5 366 c 2
 469.5 -47 l 1
 469.5 442 l 1
430.5 442 m 1
 430.5 -47 l 1
 117.5 366 l 2
 99.5 390.667 86.5 416 78.5 442 c 128
 70.5 468 67.333 492 69 514 c 128
 70.667 536 76 557.167 85 577.5 c 128
 94 597.833 106 615.167 121 629.5 c 128
 136 643.833 153.833 655.167 174.5 663.5 c 128
 195.167 671.833 216.833 676 239.5 676 c 0
 266.833 676 291.5 671.833 313.5 663.5 c 128
 335.5 655.167 353 644 366 630 c 128
 379 616 390.167 600.667 399.5 584 c 128
 408.833 567.333 415.333 550.667 419 534 c 128
 422.667 517.333 425.5 502.167 427.5 488.5 c 128
 429.5 474.833 430.5 463.333 430.5 454 c 2
 430.5 442 l 1
EndSplineSet
Validated: 33
EndChar

StartChar: period
Encoding: 46 46 14
Width: 900
Flags: HW
LayerCount: 2
Fore
SplineSet
693 747 m 1
 432 435 l 1
 663 354 l 1
 207 -54 l 1
 498 324 l 1
 273 411 l 1
 693 747 l 1
EndSplineSet
Validated: 1
EndChar

StartChar: slash
Encoding: 47 47 15
Width: 900
Flags: HW
LayerCount: 2
Fore
SplineSet
428 282 m 0
 428 294 423.167 301.333 413.5 304 c 128
 403.833 306.667 382.333 308.333 349 309 c 0
 335.667 309 290.667 313 214 321 c 1
 140 222 l 1
 89 215 l 1
 122 333 l 1
 87 347 l 1
 122 358 l 1
 89 476 l 1
 140 469 l 1
 214 370 l 1
 250 374 l 2
 266 374.667 284.167 376.167 304.5 378.5 c 128
 324.833 380.833 342.667 382 358 382 c 2
 391 383 l 2
 415.667 383.667 428 392.333 428 409 c 0
 428 410.333 428.167 412.5 428.5 415.5 c 128
 428.833 418.5 429 421.333 429 424 c 0
 429 442 421 469.667 405 507 c 2
 318 705 l 1
 355 705 l 2
 364.333 705 371.333 703.333 376 700 c 128
 380.667 696.667 387.333 689 396 677 c 2
 435 622 l 1
 496 622 l 2
 498.667 622 501.333 620.333 504 617 c 128
 506.667 613.667 508 610 508 606 c 0
 508 601.333 506.833 597.333 504.5 594 c 128
 502.167 590.667 499.333 589 496 589 c 2
 463 589 l 1
 512 519 l 1
 572 519 l 2
 574.667 519 577.333 517.333 580 514 c 128
 582.667 510.667 584 507 584 503 c 0
 584 498.333 582.667 494.167 580 490.5 c 128
 577.333 486.833 574.333 485 571 485 c 2
 540 485 l 1
 614 386 l 1
 623 385 l 1
 693 382 l 2
 773 378.667 813 367 813 347 c 0
 813 333 797.5 323.167 766.5 317.5 c 128
 735.5 311.833 684.667 307.667 614 305 c 1
 540 206 l 1
 571 206 l 2
 574.333 206 577.333 204.167 580 200.5 c 128
 582.667 196.833 584 193 584 189 c 0
 584 184.333 582.833 180.333 580.5 177 c 128
 578.167 173.667 575.333 172 572 172 c 2
 512 172 l 1
 463 102 l 1
 496 102 l 2
 499.333 102 502.167 100.333 504.5 97 c 128
 506.833 93.667 508 89.667 508 85 c 0
 508 81 506.667 77.333 504 74 c 128
 501.333 70.667 498.667 69 496 69 c 2
 435 69 l 1
 396 14 l 2
 387.333 2.66699 380.5 -4.66699 375.5 -8 c 128
 370.5 -11.333 363.667 -13 355 -13 c 2
 318 -13 l 1
 405 184 l 1
 420.333 242.667 428 275.333 428 282 c 0
EndSplineSet
Validated: 1
EndChar

StartChar: zero
Encoding: 48 48 16
Width: 900
Flags: HW
LayerCount: 2
Fore
SplineSet
275.5 405 m 0
 275.5 423 281.5 440 293.5 456 c 1
 301.5 458 308.167 464 313.5 474 c 2
 338.5 520 l 2
 343.167 527.333 352.833 535 367.5 543 c 1
 369.5 543 l 1
 371.5 543 l 1
 362.833 558.333 351.833 586.333 338.5 627 c 0
 329.167 657 321.167 677.667 314.5 689 c 0
 303.167 708.333 297.5 724 297.5 736 c 0
 297.5 744.667 301.5 753.333 309.5 762 c 0
 318.167 772.667 328.167 778 339.5 778 c 0
 344.833 778 350.5 777.333 356.5 776 c 0
 371.833 772 382.5 765.667 388.5 757 c 0
 412.5 721 436.5 672.667 460.5 612 c 2
 479.5 565 l 2
 484.167 553 488.833 543.667 493.5 537 c 1
 499.5 542.333 503.5 555.333 505.5 576 c 0
 507.5 590 510.167 602 513.5 612 c 0
 514.833 617.333 517.5 642 521.5 686 c 0
 522.833 704.667 523.5 715 523.5 717 c 2
 523.5 727 l 1
 522.833 729 522.5 731 522.5 733 c 0
 522.5 745 527.833 756.333 538.5 767 c 0
 547.167 777 558.167 782 571.5 782 c 0
 589.5 782 603.167 772.333 612.5 753 c 0
 616.5 744.333 618.833 737.333 619.5 732 c 0
 622.833 693.333 624.5 660.667 624.5 634 c 0
 624.5 627.333 624.167 621 623.5 615 c 2
 619.5 468 l 1
 619.5 461 l 2
 619.5 453 619.833 444.333 620.5 435 c 2
 621.5 424 l 2
 622.833 412 623.5 391.667 623.5 363 c 0
 623.5 351.667 623.167 339 622.5 325 c 2
 624.5 264 l 2
 624.5 256 620.833 229.667 613.5 185 c 0
 612.833 179 612.5 153 612.5 107 c 2
 612.5 40 l 1
 346.5 40 l 1
 346.5 129 l 2
 346.5 135 345.5 143.333 343.5 154 c 0
 340.833 171.333 333.5 191 321.5 213 c 0
 305.5 241.667 297.5 262.333 297.5 275 c 0
 297.5 301 293.167 328.333 284.5 357 c 0
 278.5 376.333 275.5 392.333 275.5 405 c 0
591.5 725 m 2
 590.833 743.667 584.167 753 571.5 753 c 0
 560.167 753 553.833 741.667 552.5 719 c 2
 549.5 665 l 2
 549.5 655.667 547.833 642 544.5 624 c 2
 527.5 529 l 2
 525.5 519.667 521.167 514 514.5 512 c 2
 487.5 505 l 1
 475.5 510 l 1
 472.833 514.667 464.5 533 450.5 565 c 2
 441.5 584 l 2
 426.833 619.333 407.167 661.333 382.5 710 c 0
 374.5 726.667 367.167 737.333 360.5 742 c 0
 355.167 746 350.167 748 345.5 748 c 0
 339.5 748 335.5 746 333.5 742 c 1
 330.833 740 329.5 737.333 329.5 734 c 0
 329.5 724 334.167 710 343.5 692 c 0
 348.167 683.333 353.5 670.667 359.5 654 c 2
 405.5 530 l 1
 472.5 481 l 2
 503.167 457.667 533.833 431 564.5 401 c 1
 565.833 397 566.5 393.667 566.5 391 c 0
 566.5 385 563.167 381.333 556.5 380 c 1
 552.5 380 l 2
 545.167 380 538.5 383 532.5 389 c 0
 530.5 391 529.167 393.333 528.5 396 c 1
 513.167 412.667 486.833 434.667 449.5 462 c 2
 423.5 481 l 1
 421.5 481.667 413.5 487 399.5 497 c 0
 390.167 504.333 382.167 508 375.5 508 c 0
 372.167 508 369.167 506.333 366.5 503 c 0
 365.167 501 363.833 498 362.5 494 c 1
 365.167 486.667 374.5 477 390.5 465 c 0
 403.833 454.333 412.5 446 416.5 440 c 0
 419.167 436 427.833 426.333 442.5 411 c 0
 459.167 393.667 467.5 377.333 467.5 362 c 0
 467.5 350 464.167 334 457.5 314 c 0
 452.833 299.333 450.167 286.667 449.5 276 c 2
 449.5 275 l 2
 449.5 259 458.5 240.667 476.5 220 c 0
 483.833 211.333 491.5 204 499.5 198 c 0
 516.833 186 526.833 177.333 529.5 172 c 0
 530.833 170 531.5 168 531.5 166 c 0
 531.5 160.667 526.833 156.667 517.5 154 c 1
 477.5 170.667 449.833 196.667 434.5 232 c 0
 432.5 236.667 430.167 240.667 427.5 244 c 0
 422.833 251.333 420.833 258.667 421.5 266 c 2
 425.5 303 l 2
 426.167 307.667 425.167 312 422.5 316 c 0
 420.5 319.333 417.167 321.667 412.5 323 c 1
 403.167 315 391.833 311 378.5 311 c 0
 374.5 311 369.833 311.333 364.5 312 c 1
 357.167 314 350.5 317 344.5 321 c 1
 328.5 343 319.167 354 316.5 354 c 0
 315.167 354 314.833 353.333 315.5 352 c 0
 318.833 340.667 321.5 322 323.5 296 c 0
 324.833 280 327.167 268.333 330.5 261 c 2
 375.5 157 l 1
 375.5 147 l 1
 375.5 70 l 1
 584.5 70 l 1
 583.5 159 l 2
 583.5 177.667 585.5 195 589.5 211 c 0
 593.5 227.667 595.5 245.667 595.5 265 c 2
 595.5 269 l 1
 594.5 302 l 2
 595.833 320.667 596.5 338.667 596.5 356 c 0
 596.5 384.667 594.833 411 591.5 435 c 0
 590.167 449.667 589.5 463.667 589.5 477 c 2
 589.5 484 l 1
 595.5 642 l 1
 595.5 647 l 2
 595.5 653 595.167 662.333 594.5 675 c 2
 591.5 725 l 2
343.5 469 m 1
 334.5 460 l 1
 346.5 446 361.833 431.667 380.5 417 c 0
 398.5 401 410.167 383.333 415.5 364 c 0
 416.833 360 417.5 356 417.5 352 c 1
 423.5 346.667 428.167 344 431.5 344 c 256
 434.833 344 437.167 346.667 438.5 352 c 0
 439.167 354.667 439.5 357.667 439.5 361 c 0
 439.5 367.667 437.5 374.667 433.5 382 c 0
 432.167 384.667 430.5 387 428.5 389 c 0
 393.167 425.667 364.833 452.333 343.5 469 c 1
313.5 435 m 1
 308.167 428.333 305.167 417.667 304.5 403 c 1
 331.167 381.667 350.833 361.667 363.5 343 c 1
 368.167 340.333 372.167 339 375.5 339 c 0
 380.833 339 384.833 342 387.5 348 c 0
 388.833 351.333 389.5 354.667 389.5 358 c 0
 389.5 363.333 387.5 369 383.5 375 c 0
 380.833 378.333 377.833 381 374.5 383 c 1
 315.5 433 l 1
 313.5 435 l 1
EndSplineSet
Validated: 33
EndChar

StartChar: one
Encoding: 49 49 17
Width: 900
Flags: HW
LayerCount: 2
Fore
SplineSet
637 672 m 1
 588 497 l 1
 762 541 l 1
 637 411 l 1
 811 361 l 1
 637 307 l 1
 762 176 l 1
 588 222 l 1
 637 47 l 1
 497 176 l 1
 447 -1 l 1
 402 176 l 1
 271 47 l 1
 316 222 l 1
 140 176 l 1
 271 307 l 1
 89 361 l 1
 271 411 l 1
 140 541 l 1
 316 497 l 1
 271 672 l 1
 402 541 l 1
 447 720 l 1
 497 541 l 1
 637 672 l 1
EndSplineSet
Validated: 1
EndChar

StartChar: two
Encoding: 50 50 18
Width: 900
Flags: HW
LayerCount: 2
Fore
SplineSet
575 175 m 1
 512 175 l 1
 512 112 l 1
 388 112 l 1
 388 175 l 1
 512 175 l 1
 512 238 l 1
 575 238 l 1
 575 175 l 1
388 300 m 1
 325 300 l 1
 325 362 l 1
 388 362 l 1
 388 300 l 1
575 300 m 1
 512 300 l 1
 512 362 l 1
 575 362 l 1
 575 300 l 1
325 50 m 1
 575 50 l 1
 575 -12 l 1
 325 -12 l 1
 325 50 l 1
325 50 m 1
 262 50 l 1
 262 112 l 1
 325 112 l 1
 325 50 l 1
575 50 m 1
 575 112 l 1
 638 112 l 1
 638 50 l 1
 575 50 l 1
262 112 m 1
 200 112 l 1
 200 175 l 1
 200 238 l 1
 200 300 l 1
 200 362 l 1
 200 425 l 1
 262 425 l 1
 262 362 l 1
 262 300 l 1
 262 238 l 1
 262 175 l 1
 262 112 l 1
638 112 m 1
 638 175 l 1
 638 238 l 1
 638 300 l 1
 638 362 l 1
 638 425 l 1
 700 425 l 1
 700 362 l 1
 700 300 l 1
 700 238 l 1
 700 175 l 1
 700 112 l 1
 638 112 l 1
388 175 m 1
 325 175 l 1
 325 238 l 1
 388 238 l 1
 388 175 l 1
262 425 m 1
 262 488 l 1
 325 488 l 1
 325 425 l 1
 262 425 l 1
638 425 m 1
 575 425 l 1
 575 488 l 1
 638 488 l 1
 638 425 l 1
325 488 m 1
 325 550 l 1
 575 550 l 1
 575 488 l 1
 325 488 l 1
EndSplineSet
Validated: 5
EndChar

StartChar: three
Encoding: 51 51 19
Width: 900
Flags: HW
LayerCount: 2
Fore
SplineSet
684.5 589 m 1
 848.5 407 l 1
 848.5 290 l 1
 398.5 101 l 1
 398.5 193 l 1
 51.5 193 l 1
 51.5 320 l 1
 231.5 504 l 1
 616.5 504 l 1
 684.5 589 l 1
684.5 557 m 1
 625.5 485 l 1
 240.5 485 l 1
 72.5 310 l 1
 486.5 310 l 1
 427.5 233 l 1
 826.5 400 l 1
 684.5 557 l 1
EndSplineSet
Validated: 1
EndChar

StartChar: four
Encoding: 52 52 20
Width: 900
Flags: HW
LayerCount: 2
Fore
SplineSet
625 461 m 1
 625 427 l 1
 669 427 l 1
 669 461 l 1
 625 461 l 1
583 604 m 1
 602 563 l 1
 639 582 l 1
 652 521 l 1
 718 521 l 1
 746 431 l 1
 661 295 l 1
 748 184 l 1
 835 210 l 1
 845 193 l 1
 811 181 l 1
 811 171 l 1
 874 180 l 1
 877 161 l 1
 812 154 l 1
 812 147 l 1
 860 137 l 1
 849 122 l 1
 801 131 l 1
 712 116 l 1
 619 201 l 1
 559 131 l 1
 625 65 l 1
 773 69 l 1
 775 42 l 1
 693 44 l 1
 684 35 l 1
 796 20 l 1
 788 -3 l 1
 665 14 l 1
 661 10 l 1
 731 -16 l 1
 720 -37 l 1
 595 -3 l 1
 496 -16 l 1
 121 -16 l 1
 23 67 l 1
 23 180 l 1
 125 320 l 1
 364 384 l 1
 496 465 l 1
 472 561 l 1
 510 548 l 1
 523 589 l 1
 555 561 l 1
 583 604 l 1
EndSplineSet
Validated: 1
EndChar

StartChar: five
Encoding: 53 53 21
Width: 900
Flags: HW
LayerCount: 2
Fore
SplineSet
78 469 m 1
 294 835 l 1
 786 620 l 1
 822 403 l 1
 737 163 l 1
 362 -88 l 1
 197 -56 l 1
 78 469 l 1
132 460 m 1
 239 -13 l 1
 352 -35 l 1
 696 195 l 1
 771 407 l 1
 741 585 l 1
 315 771 l 1
 132 460 l 1
EndSplineSet
Validated: 1
EndChar

StartChar: six
Encoding: 54 54 22
Width: 900
Flags: HW
LayerCount: 2
Fore
SplineSet
447 569 m 2
 450 569 l 1
 453 569 l 2
 628.333 568.333 786.667 496.333 928 353 c 1
 855.333 279 781.333 221 706 179 c 128
 630.667 137 548.333 116 459 116 c 0
 453 116 453 116 450 116 c 256
 447 116 447 116 441 116 c 0
 351.667 116 269.333 137 194 179 c 128
 118.667 221 44.667 279 -28 353 c 1
 113.333 496.333 271.667 568.333 447 569 c 2
447 521 m 2
 309.667 521 175 465 43 353 c 1
 56.333 340.333 67 330.667 75 324 c 1
 131 364.667 188.833 397.833 248.5 423.5 c 128
 308.167 449.167 374.333 462 447 462 c 2
 450 462 l 1
 453 462 l 2
 525.667 462 591.833 449.167 651.5 423.5 c 128
 711.167 397.833 769 364.667 825 324 c 1
 833 330.667 843.667 340.333 857 353 c 1
 725 465 590.333 521 453 521 c 2
 450 521 l 1
 447 521 l 2
450 407 m 256
 418 407 390.833 395.667 368.5 373 c 128
 346.167 350.333 335 323 335 291 c 128
 335 259 346.167 231.833 368.5 209.5 c 128
 390.833 187.167 418 176 450 176 c 256
 482 176 509.167 187.167 531.5 209.5 c 128
 553.833 231.833 565 259 565 291 c 128
 565 323 553.833 350.333 531.5 373 c 128
 509.167 395.667 482 407 450 407 c 256
326 397 m 1
 257.333 379 186.667 344.333 114 293 c 1
 184.667 238.333 256.333 201.333 329 182 c 1
 300.333 213.333 286 249.667 286 291 c 0
 286 329 299.333 364.333 326 397 c 1
574 397 m 1
 601.333 364.333 614.667 329 614 291 c 0
 614 249.667 599.667 213.333 571 182 c 1
 643.667 201.333 715.333 238.333 786 293 c 1
 713.333 344.333 642.667 379 574 397 c 1
450 364 m 256
 472 364 490.167 357 504.5 343 c 128
 518.833 329 526 311 526 289 c 0
 526 269 518.5 251.5 503.5 236.5 c 128
 488.5 221.5 470.667 213.667 450 213 c 0
 429.333 213.667 411.667 221.5 397 236.5 c 128
 382.333 251.5 375 269 375 289 c 0
 374.333 311 381.167 329 395.5 343 c 128
 409.833 357 428 364 450 364 c 256
450 316 m 0
 442.667 316 436.5 313.5 431.5 308.5 c 128
 426.5 303.5 424 297.167 424 289.5 c 128
 424 281.833 426.5 275.5 431.5 270.5 c 128
 436.5 265.5 442.667 262.667 450 262 c 1
 458 262.667 464.5 265.5 469.5 270.5 c 128
 474.5 275.5 477 281.833 477 289.5 c 128
 477 297.167 474.5 303.5 469.5 308.5 c 128
 464.5 313.5 458 316 450 316 c 0
EndSplineSet
Validated: 33
EndChar

StartChar: seven
Encoding: 55 55 23
Width: 900
Flags: HW
LayerCount: 2
Fore
SplineSet
335.991 804.466 m 0
 342.868 804.479 349.369 802.957 355.492 799.9 c 1
 352.275 796.267 350.986 791.288 351.624 784.965 c 1
 357.358 786.986 365.334 786.773 375.551 784.324 c 128
 385.766 781.875 394.118 776.878 400.606 769.333 c 1
 400.568 769.332 397.127 769.497 390.284 769.829 c 128
 383.44 770.16 380.097 769.737 380.255 768.559 c 1
 392.017 751.303 l 1
 376.307 740.314 l 1
 373.986 726.153 l 1
 371.379 725.224 367.765 723.589 363.143 721.246 c 128
 358.521 718.903 354.25 717.037 350.331 715.646 c 128
 346.412 714.257 342.535 713.58 338.7 713.617 c 1
 344.241 709.638 347.388 704.402 348.14 697.907 c 1
 345.959 696.644 342.886 694.649 338.92 691.924 c 128
 334.954 689.199 332.095 687.299 330.343 686.223 c 1
 349.233 694.996 365.638 701.857 379.558 706.807 c 0
 422.597 722.115 464.668 731.479 505.771 734.896 c 0
 523.782 736.394 546.162 733.419 572.909 725.971 c 128
 599.656 718.521 618.832 711.593 630.438 705.183 c 0
 650.326 694.197 666.551 682.435 679.112 669.896 c 1
 650.455 666.231 636.062 664.399 635.931 664.4 c 1
 629.068 668.053 619.396 674.182 606.916 682.785 c 128
 594.435 691.388 584.761 697.538 577.893 701.235 c 1
 604.592 676.938 l 1
 581.899 689.682 565.932 700.129 556.69 708.277 c 1
 557.836 704.762 560.194 699.605 563.765 692.804 c 128
 567.337 686.004 569.699 680.973 570.852 677.71 c 1
 567.645 679.633 562.989 682.243 556.886 685.542 c 128
 550.783 688.841 545.33 691.927 540.528 694.801 c 128
 535.725 697.674 531.439 700.592 527.672 703.557 c 1
 527.818 697.428 529.649 690.36 533.165 682.354 c 1
 526.816 684.201 520.806 687.864 515.136 693.342 c 1
 508.116 690.828 501.59 686.907 495.557 681.579 c 1
 492.793 681.92 488.22 681.729 481.839 681.006 c 128
 475.458 680.282 470.771 680.061 467.776 680.342 c 1
 486.5 671.651 503.757 658.934 519.547 642.191 c 0
 537.168 623.504 547.486 600.831 550.5 574.171 c 1
 543.051 581.218 537.557 589.06 534.017 597.696 c 1
 530.326 593.939 527.669 589.605 526.047 584.694 c 1
 530.999 581.677 l 2
 543.494 573.895 557.081 561.711 571.761 545.126 c 128
 586.441 528.541 597.41 513.382 604.669 499.649 c 1
 603.618 500.068 601.977 501.385 599.744 503.6 c 128
 597.513 505.814 596.033 507.206 595.305 507.775 c 1
 601.332 497.57 604.789 484.75 605.675 469.314 c 1
 601.734 473.075 596.962 475.346 591.359 476.125 c 1
 591.483 474.632 591.534 472.956 591.513 471.095 c 1
 596.079 462.814 l 1
 589.811 441.612 l 1
 583.246 442.005 578.009 443.836 574.101 447.106 c 1
 558.161 445.868 l 1
 570.232 430.624 l 1
 566.523 426.513 561.287 423.391 554.524 421.26 c 1
 549.803 425.902 l 1
 547.957 423.591 544.965 421.812 540.827 420.562 c 1
 534.094 432.171 l 1
 533.701 428.885 532.979 424.939 531.927 420.332 c 1
 526.993 418.518 521.318 418.673 514.903 420.796 c 1
 514.815 430.431 513.938 439.434 512.271 447.803 c 1
 511.583 435.756 510.293 427.372 508.402 422.653 c 1
 502.703 423.423 495.894 426.003 487.973 430.392 c 1
 487.92 431.485 487.973 436.192 488.132 444.515 c 128
 488.289 452.837 487.875 457.312 486.89 457.94 c 1
 479.871 457.797 473.32 458.236 467.235 459.256 c 1
 464.055 465.562 462.817 477.455 463.52 494.93 c 1
 460.519 488.461 458.688 481.908 458.026 475.273 c 1
 455.704 477.285 l 1
 458.028 459.59 458.802 442.721 458.026 426.677 c 1
 457.004 427.651 455.827 430.564 454.495 435.415 c 128
 453.162 440.265 451.76 444.136 450.287 447.029 c 1
 448.015 438.464 444.301 432.841 439.144 430.158 c 1
 427.909 451.855 419.68 473.032 414.459 493.691 c 1
 414.618 499.156 414.37 503.511 413.714 506.758 c 128
 413.057 510.005 411.776 513.516 409.871 517.293 c 128
 407.966 521.068 406.761 523.622 406.256 524.954 c 1
 405.354 525.034 402.723 525.189 398.362 525.419 c 1
 398.144 525.669 397.806 526.034 397.349 526.513 c 128
 396.665 527.231 396.665 527.231 396.35 527.586 c 1
 396.079 526.826 395.324 524.569 394.085 520.814 c 128
 392.845 517.059 391.82 514.209 391.011 512.264 c 1
 388.234 521.302 387.177 529.556 387.839 537.026 c 1
 385.131 539.968 l 1
 382.432 535.881 379.156 531.96 375.303 528.205 c 1
 378.936 510.56 384.61 495.78 392.327 483.863 c 0
 401.586 470.166 410.461 456.24 418.95 442.087 c 128
 427.439 427.933 439.797 411.392 456.024 392.465 c 128
 472.25 373.536 489.709 356.695 508.402 341.941 c 2
 735.137 159.392 l 2
 815.546 92.3838 879.982 26.1953 928.445 -39.1748 c 0
 954.695 -74.5898 978.425 -103.532 999.635 -126 c 1
 912.814 -125.227 l 1
 878.51 -54.3477 835.328 6.52832 783.271 57.4004 c 0
 738.835 100.818 689.929 144.721 636.552 189.108 c 2
 564.197 251.247 l 2
 498.394 308.336 458.516 343.803 444.561 357.649 c 0
 410.282 391.668 378.736 429.742 349.921 471.869 c 0
 348.325 474.202 346.803 476.988 345.355 480.227 c 1
 344.573 478.83 343.799 477.54 343.033 476.357 c 1
 348.14 463.667 l 1
 348.76 462.506 l 2
 364.657 423.753 377.425 398.525 387.065 386.823 c 1
 339.087 444.708 l 1
 341.177 439.136 l 2
 350.795 412.562 358.12 378.461 363.153 336.834 c 1
 359.257 331.413 356.032 327.363 353.479 324.685 c 1
 352.529 319.714 352.22 315.561 352.552 312.226 c 1
 351.185 311.064 349.104 309.699 346.309 308.13 c 128
 343.515 306.56 341.83 305.501 341.254 304.952 c 1
 344.311 301.198 346.633 294.466 348.218 284.755 c 1
 341.807 282.5 336.828 279.533 333.283 275.855 c 1
 332.044 271.132 327.969 265.767 321.056 259.76 c 1
 320.576 264.358 317.61 270.084 312.157 276.938 c 1
 309.15 274.276 305.642 272.986 301.633 273.069 c 1
 301.448 275.636 300.052 279.787 297.446 285.521 c 128
 294.84 291.256 293.475 294.302 293.352 294.66 c 1
 289.215 295.515 284.959 297.192 280.585 299.689 c 1
 281.09 310.966 280.161 320.562 277.799 328.477 c 1
 273.946 329.386 269.122 329.206 263.328 327.935 c 1
 266.234 337.235 269.742 344.638 273.852 350.145 c 1
 258.375 351.228 l 1
 258.376 351.269 258.315 356.281 258.19 366.264 c 128
 258.065 376.247 258.488 381.398 259.459 381.717 c 1
 258.037 382.976 255.844 384.585 252.88 386.544 c 128
 249.915 388.503 247.49 390.222 245.606 391.699 c 1
 249.541 397.165 251.553 402.35 251.642 407.253 c 1
 235.547 432.713 l 1
 242.082 440.368 245.513 453.317 245.839 471.56 c 1
 250.625 483.624 254.675 491.646 257.988 495.626 c 1
 257.623 497.195 254.089 505.785 247.386 521.396 c 1
 248.932 528.963 249.886 538.429 250.249 549.794 c 1
 236.475 557.301 l 1
 239.81 546.363 243.06 538.083 246.225 532.461 c 1
 236.781 542.681 229.456 552.87 224.249 563.027 c 1
 233.632 535.453 238.352 521.602 238.411 521.473 c 1
 235.313 526.639 232.604 531.385 230.285 535.711 c 1
 231.239 527.881 231.032 520.246 229.665 512.805 c 1
 225.784 511.078 222.586 508.86 220.07 506.149 c 1
 220.099 505.939 220.15 505.62 220.223 505.191 c 128
 220.298 504.762 220.351 504.438 220.38 504.215 c 1
 220.288 504.503 220.288 504.503 220.106 505.037 c 128
 219.984 505.393 219.895 505.661 219.839 505.841 c 1
 215.219 500.739 212.407 497.901 211.403 497.328 c 1
 211.153 493.122 213.519 485.057 218.501 473.133 c 128
 223.481 461.209 226.094 452.817 226.339 447.957 c 1
 226.258 447.891 224.231 446.033 220.257 442.383 c 128
 216.282 438.732 213.15 436.334 210.861 435.189 c 1
 211.273 431.767 211.396 428.75 211.231 426.138 c 128
 211.066 423.526 211.189 420.511 211.598 417.092 c 128
 212.009 413.672 212.873 410.47 214.189 407.485 c 1
 214.164 407.48 211.833 406.407 207.196 404.268 c 128
 202.559 402.129 198.596 401.705 195.307 402.997 c 1
 192.603 401.972 189.546 399.622 186.136 395.948 c 0
 184.417 394.096 183.063 392.757 182.074 391.932 c 1
 183.938 387.827 185.269 383.369 186.068 378.56 c 128
 186.866 373.749 187.465 368.369 187.866 362.419 c 128
 188.266 356.469 188.734 351.887 189.271 348.674 c 1
 179.83 355.87 l 1
 178.61 351.592 178.18 345.291 178.541 336.967 c 128
 178.902 328.642 178.404 323.103 177.045 320.351 c 1
 165.979 328.708 l 1
 173.794 313.696 l 1
 165.436 309.827 l 1
 165.407 309.792 163.009 304.814 158.24 294.892 c 1
 156.948 294.739 155.285 295.19 153.251 296.247 c 128
 151.217 297.304 149.553 297.755 148.258 297.6 c 1
 148.239 297.379 148.034 295.734 147.645 292.666 c 128
 147.256 289.598 147.099 287.09 147.174 285.142 c 1
 142.224 284.416 138.329 284.7 135.489 285.993 c 1
 133.88 295.428 130.733 304.662 126.048 313.696 c 1
 126.046 313.682 125.424 310.827 124.182 305.131 c 128
 122.939 299.435 122.633 294.887 123.262 291.486 c 1
 121.268 292.881 119.717 295.634 118.61 299.746 c 128
 117.502 303.857 116.293 306.65 114.983 308.124 c 1
 110.122 301.851 107.723 296.486 107.786 292.029 c 1
 105.712 295.104 103.755 299.955 101.915 306.583 c 128
 100.074 313.21 98.3174 317.981 96.6416 320.894 c 1
 89.9883 308.124 l 1
 89.2754 314.851 89.71 324.339 91.293 336.586 c 128
 92.876 348.833 93.5488 356.912 93.3145 360.823 c 1
 93.2832 360.845 92.4111 361.705 90.6973 363.404 c 128
 88.9834 365.102 87.2764 366.099 85.5771 366.396 c 1
 88.0039 379.591 93.4717 393.365 101.982 407.718 c 1
 101.986 407.763 101.986 407.789 101.982 407.796 c 0
 100.667 409.897 98.7412 412.627 96.2061 415.984 c 128
 93.6709 419.342 91.959 421.668 91.0713 422.962 c 1
 94.3799 410.487 96.0312 404.193 96.0244 404.081 c 1
 84.416 418.552 l 1
 84.415 418.526 84.4951 413.861 84.6553 404.557 c 128
 84.8164 395.253 84.375 390.658 83.333 390.771 c 1
 80.0176 397.134 76.123 402.68 71.6475 407.407 c 1
 73.8242 398.872 76.79 391.495 80.5469 385.276 c 1
 80.4141 385.399 77.8535 387.485 72.8652 391.534 c 128
 67.875 395.582 64.5029 399.016 62.749 401.837 c 1
 70.0225 373.591 l 1
 63.9092 385.818 l 1
 66.0137 377.614 67.124 370.211 67.2373 363.608 c 1
 63.5322 370.76 59.0957 377.415 53.9268 383.574 c 1
 53.7139 377.278 54.2812 371.164 55.6289 365.233 c 1
 42.2422 380.788 l 1
 51.6816 355.87 l 1
 37.2891 370.264 l 1
 36.4658 361.41 37.2139 352.537 39.5332 343.645 c 1
 38.2461 345.704 35.9932 348.228 32.7764 351.217 c 128
 29.5566 354.204 27.373 356.658 26.2227 358.579 c 1
 25.1543 350.686 23.4766 344.598 21.1924 340.316 c 1
 13.4551 355.251 l 1
 13.2236 351.471 13.2969 345.1 13.6748 336.137 c 128
 14.0518 327.174 13.9775 320.803 13.4551 317.024 c 1
 6.7998 325.304 l 1
 5.1748 312.535 l 1
 1.39355 319.889 -0.825195 327.653 -1.48145 335.828 c 1
 2.09375 362.141 11.1221 390.438 25.6035 420.719 c 0
 30.2793 430.495 40.5791 445.901 56.5049 466.938 c 128
 72.4297 487.972 84.8555 503.081 93.7803 512.264 c 0
 108.927 527.851 125.642 543.688 143.925 559.777 c 1
 146.134 565.364 148.481 570.343 150.966 574.712 c 1
 148.873 576.795 147.376 578.446 146.477 579.665 c 1
 144.762 578.972 142.983 578.378 141.138 577.885 c 1
 142.207 579.685 143.316 581.413 144.466 583.069 c 1
 143.606 584.974 143.038 586.96 142.762 589.028 c 1
 139.127 586.629 l 1
 138.808 586.168 136.698 583.502 132.796 578.631 c 128
 128.894 573.758 126.413 569.924 125.352 567.129 c 1
 125.253 570.015 125.253 570.015 125.077 575.562 c 128
 124.96 579.262 124.871 581.997 124.81 583.767 c 1
 117.423 572.315 112.058 560.294 108.715 547.705 c 1
 108.713 547.72 107.692 552.078 105.652 560.777 c 128
 103.613 569.479 102.776 576.212 103.142 580.981 c 1
 102.111 576.716 99.5479 571.3 95.4541 564.733 c 128
 91.3613 558.166 88.7646 553.057 87.667 549.407 c 1
 87.75 556.621 89.2197 565.494 92.0771 576.027 c 1
 76.0576 542.211 l 1
 76.0557 545.504 76.043 550.407 76.0186 556.919 c 128
 75.9961 563.431 75.9834 568.305 75.9814 571.54 c 1
 67.2754 559.354 61.3682 548.262 58.2598 538.265 c 1
 56.541 548.688 56.541 556.271 58.2598 561.016 c 1
 46.1895 548.285 38.6055 536.831 35.5088 526.656 c 1
 29.4717 550.491 l 1
 19.3379 539.656 12.2959 530.964 8.34668 524.413 c 1
 6.46875 530.24 6.1084 538.546 7.26367 549.33 c 1
 5.39258 546.02 3.16211 540.849 0.571289 533.816 c 128
 -2.01953 526.784 -4.22461 521.612 -6.0459 518.299 c 1
 -6.39453 525.857 -5.64746 533.983 -3.80176 542.676 c 1
 -17.6533 509.4 l 1
 -18.75 516.899 -18.208 525.231 -16.0283 534.396 c 1
 -23.6807 524.581 -29.0459 516.249 -32.124 509.4 c 1
 -34.9102 533.776 l 1
 -36.0381 530.33 -36.9062 526.638 -37.5156 522.7 c 128
 -38.125 518.761 -38.6562 514.376 -39.1084 509.543 c 128
 -39.5615 504.711 -39.9932 500.975 -40.4043 498.335 c 1
 -43.9238 504.327 -45.9609 510.053 -46.5176 515.514 c 1
 -50.5234 509.515 -52.7422 502.679 -53.1729 495.007 c 1
 -55.7725 505.885 -56.1328 516.048 -54.2559 525.496 c 1
 -54.3477 525.279 -58.6045 510.679 -67.0244 481.696 c 1
 -68.2178 502.369 -70.0752 515.112 -72.5967 519.925 c 1
 -73.4219 516.764 -74.6191 510.841 -76.1895 502.156 c 128
 -77.7598 493.471 -78.9092 488.199 -79.6377 486.34 c 1
 -80.0889 489.231 -80.3809 493.332 -80.5156 498.643 c 128
 -80.6504 503.954 -80.7705 507.359 -80.876 508.859 c 1
 -88.6035 490.425 -92.499 481.164 -92.5615 481.077 c 1
 -89.7754 503.287 l 1
 -91.4639 500.794 -92.7979 497.883 -93.7773 494.554 c 128
 -94.7568 491.225 -95.6406 487.413 -96.4277 483.12 c 128
 -97.2168 478.826 -97.9395 475.566 -98.5977 473.339 c 1
 -98.1592 476.818 -98.3057 482.166 -99.0371 489.385 c 128
 -99.7695 496.604 -99.8291 502.166 -99.2168 506.072 c 1
 -97.0312 510.663 -88.7383 520.408 -74.3369 535.307 c 128
 -59.9346 550.204 -46.6123 562.101 -34.3682 570.998 c 0
 -6.34668 591.357 32.4482 607.092 82.0166 618.203 c 1
 80.8701 620.312 79.6641 623.569 78.3994 627.971 c 128
 77.1348 632.372 75.7607 635.745 74.2783 638.09 c 1
 72.499 636.806 70.1943 634.26 67.3623 630.451 c 128
 64.5312 626.642 62.0391 624.03 59.8848 622.613 c 1
 59.5742 623.94 59.1875 625.333 58.7236 626.792 c 1
 48.4111 619.17 36.7783 611.844 23.8252 604.814 c 1
 37.1338 621.452 l 1
 15.002 615.339 l 1
 25.5273 638.09 l 1
 3.85938 623.696 l 1
 16.0859 639.715 l 1
 13.0186 638.36 7.32812 635.206 -0.988281 630.252 c 128
 -9.30371 625.299 -15.9941 621.979 -21.0586 620.292 c 1
 -11.0752 630.894 l 1
 -29.416 624.237 l 1
 -32.083 625.905 -35.248 628.893 -38.9111 633.201 c 128
 -42.5742 637.508 -46.0645 640.969 -49.3809 643.584 c 1
 -33.958 651.68 -10.8721 660.192 19.8779 669.121 c 1
 23.4873 675.192 27.7676 680.197 32.7227 684.134 c 1
 23.5518 686.396 15.04 687.324 7.18652 686.919 c 1
 16.7402 693.35 32.3779 699.351 54.1006 704.923 c 128
 75.8242 710.496 97.7422 712.981 119.857 712.378 c 0
 122.858 712.297 126.521 711.987 130.846 711.45 c 1
 128.204 713.406 125.857 715.031 123.804 716.325 c 1
 131.283 724.513 136.133 729.543 138.352 731.415 c 1
 136.474 730.866 133.051 729.235 128.082 726.52 c 128
 123.114 723.804 118.309 722.495 113.667 722.593 c 1
 110.648 729.212 107.734 737.467 104.923 747.356 c 1
 100.002 747.567 93.3213 747.18 84.8799 746.196 c 1
 84.7227 746.831 83.1748 753.796 80.2373 767.09 c 1
 78.3643 768.793 74.9141 769.259 69.8848 768.488 c 128
 64.8564 767.717 61.6523 767.535 60.2715 767.94 c 1
 60.7949 773.383 61.543 777.794 62.5146 781.174 c 1
 67.8467 785.359 74.3477 788.144 82.0166 789.531 c 1
 82.8682 792.398 83.8232 796.112 84.8799 800.674 c 1
 85.1514 800.547 94.9824 798.035 114.375 793.136 c 128
 133.767 788.236 147.357 783.01 155.144 777.459 c 1
 156.04 768.277 156.84 761.622 157.544 757.493 c 1
 158.244 759.084 158.882 761.333 159.459 764.239 c 128
 160.035 767.146 160.557 769.205 161.026 770.416 c 1
 161.955 769.828 165.461 768.485 171.544 766.387 c 128
 177.626 764.288 181.446 762.511 183.003 761.054 c 1
 180.632 757.097 179.058 753.692 178.283 750.839 c 1
 181.9 754.37 184.505 756.588 186.098 757.493 c 1
 191.261 754.45 201.052 745.612 215.469 730.98 c 128
 229.887 716.349 239.365 707.156 243.904 703.402 c 1
 244.911 702.628 l 2
 246.684 701.2 248 700.194 248.857 699.61 c 1
 244.601 722.979 l 1
 247.272 725.422 251.28 726.763 256.625 727.001 c 0
 259.294 727.119 261.296 727.352 262.631 727.701 c 1
 262.392 746.023 261.335 757.527 259.459 762.214 c 1
 264.216 765.184 268.714 766.68 272.953 766.703 c 128
 277.191 766.724 281.592 766.26 286.156 765.31 c 1
 288.261 770.154 292.858 776.329 299.946 783.835 c 128
 307.033 791.342 311.31 796.955 312.776 800.674 c 1
 323.266 803.192 331.004 804.456 335.991 804.466 c 0
EndSplineSet
Validated: 41
EndChar

StartChar: eight
Encoding: 56 56 24
Width: 900
Flags: HW
LayerCount: 2
Fore
SplineSet
575 175 m 1
 512 175 l 1
 512 112 l 1
 388 112 l 1
 388 175 l 1
 512 175 l 1
 512 238 l 1
 575 238 l 1
 575 175 l 1
388 300 m 1
 325 300 l 1
 325 362 l 1
 388 362 l 1
 388 300 l 1
575 300 m 1
 512 300 l 1
 512 362 l 1
 575 362 l 1
 575 300 l 1
325 50 m 1
 575 50 l 1
 575 -12 l 1
 325 -12 l 1
 325 50 l 1
325 50 m 1
 262 50 l 1
 262 112 l 1
 325 112 l 1
 325 50 l 1
575 50 m 1
 575 112 l 1
 638 112 l 1
 638 50 l 1
 575 50 l 1
262 112 m 1
 200 112 l 1
 200 175 l 1
 200 238 l 1
 200 300 l 1
 200 362 l 1
 200 425 l 1
 262 425 l 1
 262 362 l 1
 262 300 l 1
 262 238 l 1
 262 175 l 1
 262 112 l 1
638 112 m 1
 638 175 l 1
 638 238 l 1
 638 300 l 1
 638 362 l 1
 638 425 l 1
 700 425 l 1
 700 362 l 1
 700 300 l 1
 700 238 l 1
 700 175 l 1
 700 112 l 1
 638 112 l 1
388 175 m 1
 325 175 l 1
 325 238 l 1
 388 238 l 1
 388 175 l 1
262 425 m 1
 262 488 l 1
 325 488 l 1
 325 425 l 1
 262 425 l 1
638 425 m 1
 575 425 l 1
 575 488 l 1
 638 488 l 1
 638 425 l 1
325 488 m 1
 325 550 l 1
 575 550 l 1
 575 488 l 1
 325 488 l 1
EndSplineSet
Validated: 5
EndChar

StartChar: nine
Encoding: 57 57 25
Width: 900
Flags: HW
LayerCount: 2
Fore
SplineSet
437 58 m 1
 437 63 l 1
 442 63 l 1
 446 63 l 1
 446 58 l 1
 446 54 l 1
 442 54 l 1
 437 54 l 1
 437 58 l 1
314 71 m 1
 314 79 l 1
 296 79 l 1
 279 79 l 1
 279 87 l 1
 279 95 l 1
 271 95 l 1
 263 95 l 1
 263 104 l 1
 263 114 l 1
 255 114 l 1
 247 114 l 1
 247 104 l 1
 247 95 l 1
 243 95 l 1
 238 95 l 1
 238 99 l 1
 238 104 l 1
 233 104 l 1
 228 104 l 1
 228 112 l 1
 228 120 l 1
 217 120 l 1
 206 120 l 1
 206 128 l 1
 206 136 l 1
 202 136 l 1
 197 136 l 1
 197 132 l 1
 197 129 l 1
 192 129 l 1
 187 129 l 1
 187 137 l 1
 187 145 l 1
 179 145 l 1
 172 145 l 1
 172 140 l 1
 172 136 l 1
 167 136 l 1
 162 136 l 1
 162 140 l 1
 162 145 l 1
 154 145 l 1
 146 145 l 1
 146 150 l 1
 146 155 l 1
 142 155 l 1
 137 155 l 1
 137 164 l 1
 131 164 l 1
 131 159 l 1
 115 159 l 1
 115 170 l 1
 110 170 l 1
 105 170 l 1
 105 175 l 1
 105 180 l 1
 100 180 l 1
 96 180 l 1
 96 175 l 1
 96 170 l 1
 100 170 l 1
 105 170 l 1
 105 166 l 1
 105 161 l 1
 100 161 l 1
 96 161 l 1
 96 166 l 1
 96 170 l 1
 93 170 l 1
 89 170 l 1
 89 175 l 1
 89 180 l 1
 77 180 l 1
 64 180 l 1
 64 183 l 1
 64 186 l 1
 47 186 l 1
 29 186 l 1
 29 191 l 1
 29 196 l 1
 17 196 l 1
 4 196 l 1
 4 204 l 1
 4 211 l 1
 1 211 l 1
 -2 211 l 1
 -2 216 l 1
 -2 221 l 1
 -7 221 l 1
 -12 221 l 1
 -12 224 l 1
 -12 227 l 1
 -16 227 l 1
 -21 227 l 1
 -21 240 l 1
 -21 253 l 1
 -24 253 l 1
 -27 253 l 1
 -27 257 l 1
 -27 262 l 1
 -24 262 l 1
 -21 262 l 1
 -21 275 l 1
 -21 287 l 1
 -24 287 l 1
 -27 287 l 1
 -27 300 l 1
 -27 313 l 1
 -24 313 l 1
 -21 313 l 1
 -21 325 l 1
 -21 338 l 1
 -16 338 l 1
 -12 338 l 1
 -12 341 l 1
 -12 344 l 1
 -7 344 l 1
 -2 344 l 1
 -2 360 l 1
 -2 376 l 1
 6 376 l 1
 13 376 l 1
 13 385 l 1
 13 398 l 1
 13 410 l 1
 22 410 l 1
 29 410 l 1
 29 420 l 1
 29 429 l 1
 34 429 l 1
 39 429 l 1
 39 442 l 1
 39 455 l 1
 47 455 l 1
 55 455 l 1
 55 463 l 1
 55 470 l 1
 58 470 l 1
 69 470 l 1
 69 480 l 1
 69 488 l 1
 69 496 l 1
 75 496 l 1
 80 496 l 1
 80 491 l 1
 80 486 l 1
 85 486 l 1
 89 486 l 1
 89 499 l 1
 89 512 l 1
 93 512 l 1
 96 512 l 1
 96 516 l 1
 96 521 l 1
 100 521 l 1
 105 521 l 1
 105 529 l 1
 105 537 l 1
 118 537 l 1
 131 537 l 1
 135 537 l 1
 135 552 l 1
 140 552 l 1
 148 552 l 1
 156 552 l 1
 156 561 l 1
 156 568 l 1
 172 568 l 1
 187 568 l 1
 187 578 l 1
 187 587 l 1
 205 587 l 1
 222 587 l 1
 222 595 l 1
 222 603 l 1
 225 603 l 1
 228 603 l 1
 228 608 l 1
 228 613 l 1
 238 613 l 1
 247 613 l 1
 247 608 l 1
 247 603 l 1
 255 603 l 1
 263 603 l 1
 263 611 l 1
 263 619 l 1
 279 619 l 1
 295 619 l 1
 295 624 l 1
 295 628 l 1
 300 628 l 1
 304 628 l 1
 304 624 l 1
 304 619 l 1
 312 619 l 1
 320 619 l 1
 320 616 l 1
 320 613 l 1
 325 613 l 1
 330 613 l 1
 330 608 l 1
 330 603 l 1
 334 603 l 1
 339 603 l 1
 339 591 l 1
 339 578 l 1
 330 578 l 1
 320 578 l 1
 320 583 l 1
 320 587 l 1
 317 587 l 1
 314 587 l 1
 314 570 l 1
 314 553 l 1
 317 553 l 1
 320 553 l 1
 320 557 l 1
 320 562 l 1
 325 562 l 1
 330 562 l 1
 330 554 l 1
 330 546 l 1
 334 546 l 1
 334 552 l 1
 342 552 l 1
 345 552 l 1
 345 562 l 1
 345 568 l 1
 350 568 l 1
 355 568 l 1
 355 565 l 1
 355 562 l 1
 367 562 l 1
 380 562 l 1
 380 557 l 1
 380 553 l 1
 388 553 l 1
 396 553 l 1
 396 549 l 1
 396 546 l 1
 391 546 l 1
 386 546 l 1
 386 524 l 1
 386 502 l 1
 391 502 l 1
 396 502 l 1
 396 519 l 1
 396 537 l 1
 401 537 l 1
 405 537 l 1
 405 532 l 1
 405 527 l 1
 446 527 l 1
 487 527 l 1
 487 519 l 1
 487 512 l 1
 492 512 l 1
 497 512 l 1
 497 528 l 1
 513 528 l 1
 513 519 l 1
 513 512 l 1
 508 512 l 1
 503 512 l 1
 503 507 l 1
 503 502 l 1
 508 502 l 1
 513 502 l 1
 513 507 l 1
 513 512 l 1
 533 512 l 1
 554 512 l 1
 554 507 l 1
 554 502 l 1
 569 502 l 1
 569 485 l 1
 569 477 l 1
 579 477 l 1
 589 477 l 1
 589 486 l 1
 589 496 l 1
 592 496 l 1
 595 496 l 1
 595 491 l 1
 595 486 l 1
 603 486 l 1
 611 486 l 1
 611 482 l 1
 611 477 l 1
 620 477 l 1
 630 477 l 1
 630 482 l 1
 630 486 l 1
 633 486 l 1
 636 486 l 1
 636 470 l 1
 636 455 l 1
 641 455 l 1
 645 455 l 1
 645 463 l 1
 645 470 l 1
 653 470 l 1
 661 470 l 1
 661 474 l 1
 661 477 l 1
 666 477 l 1
 671 477 l 1
 671 474 l 1
 671 470 l 1
 675 470 l 1
 680 470 l 1
 680 466 l 1
 680 461 l 1
 675 461 l 1
 671 461 l 1
 671 453 l 1
 671 445 l 1
 679 445 l 1
 686 445 l 1
 686 450 l 1
 686 455 l 1
 699 455 l 1
 712 455 l 1
 712 442 l 1
 712 429 l 1
 727 429 l 1
 727 442 l 1
 727 445 l 1
 732 445 l 1
 737 445 l 1
 737 433 l 1
 737 420 l 1
 742 420 l 1
 746 420 l 1
 746 425 l 1
 746 429 l 1
 750 429 l 1
 753 429 l 1
 753 420 l 1
 753 410 l 1
 761 410 l 1
 769 410 l 1
 769 407 l 1
 769 404 l 1
 773 404 l 1
 778 404 l 1
 778 407 l 1
 778 410 l 1
 786 410 l 1
 794 410 l 1
 794 407 l 1
 794 404 l 1
 799 404 l 1
 803 404 l 1
 803 399 l 1
 803 395 l 1
 808 395 l 1
 813 395 l 1
 813 382 l 1
 813 369 l 1
 821 369 l 1
 829 369 l 1
 829 357 l 1
 829 344 l 1
 833 344 l 1
 838 344 l 1
 838 341 l 1
 838 338 l 1
 833 338 l 1
 829 338 l 1
 829 341 l 1
 829 344 l 1
 816 344 l 1
 803 344 l 1
 803 341 l 1
 803 338 l 1
 816 338 l 1
 829 338 l 1
 829 325 l 1
 829 313 l 1
 824 313 l 1
 820 313 l 1
 820 308 l 1
 820 303 l 1
 829 303 l 1
 838 303 l 1
 838 320 l 1
 838 338 l 1
 841 338 l 1
 844 338 l 1
 844 346 l 1
 844 354 l 1
 849 354 l 1
 854 354 l 1
 854 341 l 1
 854 328 l 1
 849 328 l 1
 844 328 l 1
 844 320 l 1
 844 313 l 1
 862 313 l 1
 879 313 l 1
 886 313 l 1
 886 297 l 1
 895 297 l 1
 895 284 l 1
 895 271 l 1
 890 271 l 1
 885 271 l 1
 885 275 l 1
 885 278 l 1
 878 278 l 1
 870 278 l 1
 870 275 l 1
 870 271 l 1
 865 271 l 1
 860 271 l 1
 860 267 l 1
 860 262 l 1
 852 262 l 1
 844 262 l 1
 844 267 l 1
 844 271 l 1
 853 271 l 1
 853 284 l 1
 853 287 l 1
 851 287 l 1
 848 287 l 1
 848 283 l 1
 848 278 l 1
 844 278 l 1
 838 278 l 1
 838 269 l 1
 838 261 l 1
 838 253 l 1
 849 253 l 1
 860 253 l 1
 860 249 l 1
 860 246 l 1
 865 246 l 1
 870 246 l 1
 870 241 l 1
 870 237 l 1
 857 237 l 1
 844 237 l 1
 844 232 l 1
 844 227 l 1
 849 227 l 1
 854 227 l 1
 854 224 l 1
 854 221 l 1
 849 221 l 1
 844 221 l 1
 844 218 l 1
 844 204 l 1
 814 204 l 1
 814 227 l 1
 821 227 l 1
 829 227 l 1
 829 224 l 1
 829 221 l 1
 833 221 l 1
 838 221 l 1
 838 229 l 1
 838 237 l 1
 829 237 l 1
 819 237 l 1
 819 241 l 1
 819 246 l 1
 816 246 l 1
 814 246 l 1
 814 237 l 1
 814 227 l 1
 808 227 l 1
 803 227 l 1
 803 207 l 1
 803 186 l 1
 795 186 l 1
 788 186 l 1
 788 183 l 1
 788 180 l 1
 783 180 l 1
 778 180 l 1
 778 188 l 1
 778 196 l 1
 773 196 l 1
 769 196 l 1
 769 200 l 1
 769 205 l 1
 758 205 l 1
 746 205 l 1
 746 196 l 1
 746 186 l 1
 742 186 l 1
 737 186 l 1
 737 183 l 1
 737 180 l 1
 745 180 l 1
 753 180 l 1
 753 170 l 1
 753 161 l 1
 740 161 l 1
 728 161 l 1
 728 166 l 1
 728 170 l 1
 724 170 l 1
 721 170 l 1
 721 166 l 1
 721 161 l 1
 716 161 l 1
 712 161 l 1
 712 158 l 1
 712 155 l 1
 707 155 l 1
 702 155 l 1
 702 150 l 1
 702 145 l 1
 691 145 l 1
 680 145 l 1
 680 150 l 1
 680 155 l 1
 675 155 l 1
 671 155 l 1
 671 150 l 1
 671 145 l 1
 653 145 l 1
 636 145 l 1
 636 137 l 1
 636 129 l 1
 641 129 l 1
 645 129 l 1
 645 132 l 1
 645 136 l 1
 649 136 l 1
 661 136 l 1
 661 123 l 1
 661 120 l 1
 658 120 l 1
 655 120 l 1
 655 125 l 1
 655 129 l 1
 650 129 l 1
 645 129 l 1
 645 121 l 1
 645 114 l 1
 641 114 l 1
 636 114 l 1
 636 109 l 1
 636 104 l 1
 641 104 l 1
 645 104 l 1
 645 96 l 1
 645 88 l 1
 641 88 l 1
 636 88 l 1
 636 96 l 1
 636 104 l 1
 633 104 l 1
 630 104 l 1
 630 117 l 1
 630 129 l 1
 625 129 l 1
 620 129 l 1
 620 125 l 1
 620 120 l 1
 615 120 l 1
 611 120 l 1
 611 99 l 1
 611 79 l 1
 608 79 l 1
 604 79 l 1
 604 87 l 1
 604 95 l 1
 587 95 l 1
 570 95 l 1
 570 91 l 1
 570 88 l 1
 562 88 l 1
 554 88 l 1
 554 84 l 1
 554 79 l 1
 546 79 l 1
 538 79 l 1
 538 84 l 1
 538 88 l 1
 525 88 l 1
 513 88 l 1
 513 91 l 1
 513 95 l 1
 508 95 l 1
 503 95 l 1
 503 99 l 1
 503 104 l 1
 500 104 l 1
 497 104 l 1
 497 112 l 1
 497 120 l 1
 492 120 l 1
 487 120 l 1
 487 117 l 1
 487 114 l 1
 483 114 l 1
 478 114 l 1
 478 109 l 1
 478 104 l 1
 475 104 l 1
 472 104 l 1
 472 99 l 1
 472 95 l 1
 459 95 l 1
 446 95 l 1
 446 91 l 1
 446 88 l 1
 487 88 l 1
 487 84 l 1
 487 79 l 1
 492 79 l 1
 497 79 l 1
 497 74 l 1
 497 69 l 1
 492 69 l 1
 487 69 l 1
 487 66 l 1
 487 63 l 1
 480 63 l 1
 472 63 l 1
 472 66 l 1
 472 69 l 1
 480 69 l 1
 487 69 l 1
 487 74 l 1
 487 79 l 1
 475 79 l 1
 462 79 l 1
 462 74 l 1
 462 69 l 1
 457 69 l 1
 453 69 l 1
 453 74 l 1
 453 79 l 1
 445 79 l 1
 437 79 l 1
 437 74 l 1
 437 69 l 1
 434 69 l 1
 431 69 l 1
 431 74 l 1
 431 79 l 1
 426 79 l 1
 421 79 l 1
 421 74 l 1
 421 69 l 1
 416 69 l 1
 412 69 l 1
 412 74 l 1
 412 79 l 1
 408 79 l 1
 405 79 l 1
 405 99 l 1
 405 120 l 1
 396 120 l 1
 386 120 l 1
 386 112 l 1
 386 104 l 1
 391 104 l 1
 396 104 l 1
 396 99 l 1
 396 95 l 1
 388 95 l 1
 380 95 l 1
 380 91 l 1
 380 88 l 1
 388 88 l 1
 396 88 l 1
 396 84 l 1
 396 79 l 1
 401 79 l 1
 405 79 l 1
 405 74 l 1
 405 69 l 1
 396 69 l 1
 386 69 l 1
 386 74 l 1
 386 79 l 1
 378 79 l 1
 371 79 l 1
 371 87 l 1
 371 95 l 1
 363 95 l 1
 355 95 l 1
 355 91 l 1
 355 88 l 1
 350 88 l 1
 345 88 l 1
 345 84 l 1
 345 79 l 1
 342 79 l 1
 339 79 l 1
 339 74 l 1
 339 69 l 1
 334 69 l 1
 330 69 l 1
 330 74 l 1
 330 79 l 1
 325 79 l 1
 320 79 l 1
 320 71 l 1
 320 63 l 1
 317 63 l 1
 314 63 l 1
 314 71 l 1
295 88 m 1
 295 95 l 1
 300 95 l 1
 304 95 l 1
 304 99 l 1
 304 104 l 1
 309 104 l 1
 314 104 l 1
 314 112 l 1
 314 120 l 1
 309 120 l 1
 304 120 l 1
 304 117 l 1
 304 114 l 1
 300 114 l 1
 295 114 l 1
 295 109 l 1
 295 104 l 1
 292 104 l 1
 288 104 l 1
 288 96 l 1
 288 88 l 1
 292 88 l 1
 295 88 l 1
431 91 m 1
 431 95 l 1
 426 95 l 1
 421 95 l 1
 421 91 l 1
 421 88 l 1
 426 88 l 1
 431 88 l 1
 431 91 l 1
570 99 m 1
 570 104 l 1
 562 104 l 1
 554 104 l 1
 554 99 l 1
 554 95 l 1
 562 95 l 1
 570 95 l 1
 570 99 l 1
453 109 m 1
 453 114 l 1
 450 114 l 1
 446 114 l 1
 446 109 l 1
 446 104 l 1
 450 104 l 1
 453 104 l 1
 453 109 l 1
522 109 m 1
 522 114 l 1
 517 114 l 1
 513 114 l 1
 513 109 l 1
 513 104 l 1
 517 104 l 1
 522 104 l 1
 522 109 l 1
595 117 m 1
 595 129 l 1
 592 129 l 1
 589 129 l 1
 589 117 l 1
 589 104 l 1
 592 104 l 1
 595 104 l 1
 595 117 l 1
487 125 m 1
 487 129 l 1
 483 129 l 1
 478 129 l 1
 478 125 l 1
 478 120 l 1
 483 120 l 1
 487 120 l 1
 487 125 l 1
554 150 m 1
 554 155 l 1
 549 155 l 1
 544 155 l 1
 544 150 l 1
 544 145 l 1
 549 145 l 1
 554 145 l 1
 554 150 l 1
405 166 m 1
 405 170 l 1
 418 170 l 1
 431 170 l 1
 431 166 l 1
 431 161 l 1
 454 161 l 1
 478 161 l 1
 478 166 l 1
 478 170 l 1
 487 170 l 1
 497 170 l 1
 497 166 l 1
 497 161 l 1
 513 161 l 1
 529 161 l 1
 529 166 l 1
 529 170 l 1
 536 170 l 1
 544 170 l 1
 544 178 l 1
 544 186 l 1
 538 186 l 1
 538 180 l 1
 530 180 l 1
 522 180 l 1
 522 183 l 1
 522 186 l 1
 517 186 l 1
 513 186 l 1
 513 183 l 1
 513 180 l 1
 487 180 l 1
 462 180 l 1
 462 183 l 1
 462 186 l 1
 467 186 l 1
 472 186 l 1
 472 191 l 1
 472 196 l 1
 480 196 l 1
 487 196 l 1
 487 191 l 1
 487 186 l 1
 495 186 l 1
 503 186 l 1
 503 196 l 1
 503 205 l 1
 508 205 l 1
 513 205 l 1
 513 208 l 1
 513 211 l 1
 521 211 l 1
 529 211 l 1
 529 216 l 1
 529 221 l 1
 533 221 l 1
 538 221 l 1
 538 213 l 1
 538 205 l 1
 541 205 l 1
 544 205 l 1
 544 200 l 1
 544 196 l 1
 549 196 l 1
 554 196 l 1
 554 204 l 1
 554 211 l 1
 549 211 l 1
 544 211 l 1
 544 216 l 1
 544 221 l 1
 554 221 l 1
 563 221 l 1
 563 213 l 1
 563 205 l 1
 570 205 l 1
 570 211 l 1
 574 211 l 1
 579 211 l 1
 579 216 l 1
 579 221 l 1
 587 221 l 1
 595 221 l 1
 595 224 l 1
 595 227 l 1
 600 227 l 1
 604 227 l 1
 604 232 l 1
 604 237 l 1
 608 237 l 1
 611 237 l 1
 611 245 l 1
 611 253 l 1
 615 253 l 1
 620 253 l 1
 620 245 l 1
 620 237 l 1
 625 237 l 1
 630 237 l 1
 630 241 l 1
 630 246 l 1
 638 246 l 1
 645 246 l 1
 645 249 l 1
 645 253 l 1
 653 253 l 1
 661 253 l 1
 661 262 l 1
 661 271 l 1
 666 271 l 1
 671 271 l 1
 671 262 l 1
 671 253 l 1
 675 253 l 1
 680 253 l 1
 680 262 l 1
 680 271 l 1
 688 271 l 1
 696 271 l 1
 696 275 l 1
 696 278 l 1
 709 278 l 1
 721 278 l 1
 721 283 l 1
 721 287 l 1
 716 287 l 1
 712 287 l 1
 712 292 l 1
 712 297 l 1
 696 297 l 1
 680 297 l 1
 680 300 l 1
 680 303 l 1
 691 303 l 1
 702 303 l 1
 702 308 l 1
 702 313 l 1
 694 313 l 1
 686 313 l 1
 686 316 l 1
 686 319 l 1
 691 319 l 1
 696 319 l 1
 696 324 l 1
 696 328 l 1
 683 328 l 1
 671 328 l 1
 671 346 l 1
 671 363 l 1
 663 363 l 1
 655 363 l 1
 655 366 l 1
 655 369 l 1
 650 369 l 1
 645 369 l 1
 645 374 l 1
 645 379 l 1
 642 379 l 1
 630 379 l 1
 630 395 l 1
 625 395 l 1
 620 395 l 1
 620 390 l 1
 620 385 l 1
 615 385 l 1
 611 385 l 1
 611 395 l 1
 611 404 l 1
 604 404 l 1
 598 404 l 1
 588 404 l 1
 588 420 l 1
 576 420 l 1
 563 420 l 1
 563 425 l 1
 563 429 l 1
 554 429 l 1
 544 429 l 1
 544 433 l 1
 544 436 l 1
 529 436 l 1
 513 436 l 1
 513 445 l 1
 513 455 l 1
 508 455 l 1
 503 455 l 1
 503 450 l 1
 503 445 l 1
 475 445 l 1
 446 445 l 1
 446 450 l 1
 446 455 l 1
 426 455 l 1
 405 455 l 1
 405 445 l 1
 405 436 l 1
 401 436 l 1
 396 436 l 1
 396 440 l 1
 396 445 l 1
 383 445 l 1
 371 445 l 1
 371 440 l 1
 371 436 l 1
 363 436 l 1
 355 436 l 1
 355 433 l 1
 355 429 l 1
 350 429 l 1
 345 429 l 1
 345 433 l 2
 345 435 344 436 342 436 c 2
 339 436 l 1
 339 428 l 1
 339 420 l 1
 330 420 l 1
 320 420 l 1
 320 415 l 1
 320 410 l 1
 312 410 l 1
 304 410 l 1
 304 407 l 1
 304 404 l 1
 300 404 l 1
 295 404 l 1
 295 399 l 1
 295 395 l 1
 287 395 l 1
 279 395 l 1
 279 387 l 1
 279 379 l 1
 276 379 l 1
 273 379 l 1
 273 371 l 1
 273 363 l 1
 263 363 l 1
 254 363 l 1
 254 350 l 1
 254 338 l 1
 251 338 l 1
 247 338 l 1
 247 333 l 1
 247 328 l 1
 251 328 l 1
 254 328 l 1
 254 316 l 1
 254 303 l 1
 258 303 l 1
 263 303 l 1
 263 300 l 1
 263 297 l 1
 258 297 l 1
 254 297 l 1
 254 292 l 1
 254 287 l 1
 258 287 l 1
 263 287 l 1
 263 275 l 1
 263 262 l 1
 268 262 l 1
 273 262 l 1
 273 247 l 1
 288 247 l 1
 288 241 l 1
 288 237 l 1
 292 237 l 1
 295 237 l 1
 295 232 l 1
 295 227 l 1
 312 227 l 1
 330 227 l 1
 330 224 l 1
 330 221 l 1
 325 221 l 1
 320 221 l 1
 320 216 l 1
 320 211 l 1
 325 211 l 1
 330 211 l 1
 330 208 l 1
 330 205 l 1
 350 205 l 1
 371 205 l 1
 371 200 l 1
 371 196 l 1
 375 196 l 1
 380 196 l 1
 380 188 l 1
 380 180 l 1
 375 180 l 1
 371 180 l 1
 371 188 l 1
 371 196 l 1
 358 196 l 1
 345 196 l 1
 345 191 l 1
 345 187 l 1
 350 187 l 1
 355 187 l 1
 355 183 l 1
 355 180 l 1
 363 180 l 1
 371 180 l 1
 371 175 l 1
 371 170 l 1
 383 170 l 1
 396 170 l 1
 396 166 l 1
 396 161 l 1
 401 161 l 1
 405 161 l 1
 405 166 l 1
396 183 m 1
 396 186 l 1
 391 186 l 1
 386 186 l 1
 386 199 l 1
 386 211 l 1
 383 211 l 1
 380 211 l 1
 380 216 l 1
 380 221 l 1
 372 221 l 1
 364 221 l 1
 364 224 l 1
 364 227 l 1
 360 227 l 1
 355 227 l 1
 355 232 l 1
 355 237 l 1
 350 237 l 1
 345 237 l 1
 345 241 l 1
 345 246 l 1
 342 246 l 1
 339 246 l 1
 339 254 l 1
 339 262 l 1
 334 262 l 1
 330 262 l 1
 330 270 l 1
 330 278 l 1
 325 278 l 1
 320 278 l 1
 320 290 l 1
 320 303 l 1
 317 303 l 1
 314 303 l 1
 314 308 l 1
 314 313 l 1
 317 313 l 1
 320 313 l 1
 320 333 l 1
 320 354 l 1
 325 354 l 1
 330 354 l 1
 330 362 l 1
 330 369 l 1
 334 369 l 1
 339 369 l 1
 339 377 l 1
 339 385 l 1
 342 385 l 1
 345 385 l 1
 345 390 l 1
 345 395 l 1
 350 395 l 1
 355 395 l 1
 355 403 l 1
 355 410 l 1
 363 410 l 1
 371 410 l 1
 371 415 l 1
 371 420 l 1
 388 420 l 1
 405 420 l 1
 405 425 l 1
 405 429 l 1
 429 429 l 1
 453 429 l 1
 453 425 l 1
 453 420 l 1
 462 420 l 1
 472 420 l 1
 472 415 l 1
 472 410 l 1
 480 410 l 1
 487 410 l 1
 487 407 l 1
 487 404 l 1
 492 404 l 1
 497 404 l 1
 497 399 l 1
 497 395 l 1
 500 395 l 1
 503 395 l 1
 503 390 l 1
 503 385 l 1
 508 385 l 1
 513 385 l 1
 513 377 l 1
 513 369 l 1
 497 369 l 1
 481 369 l 1
 474 369 l 1
 474 357 l 1
 474 354 l 1
 467 354 l 1
 462 354 l 1
 462 341 l 1
 462 328 l 1
 467 328 l 1
 472 328 l 1
 472 324 l 1
 472 319 l 1
 484 319 l 1
 497 319 l 1
 497 324 l 1
 497 328 l 1
 505 328 l 1
 513 328 l 1
 513 333 l 1
 513 338 l 1
 517 338 l 1
 522 338 l 1
 522 346 l 1
 522 354 l 1
 525 354 l 1
 529 354 l 1
 529 346 l 1
 529 338 l 1
 533 338 l 1
 538 338 l 1
 538 317 l 1
 538 297 l 1
 533 297 l 1
 529 297 l 1
 529 284 l 1
 529 271 l 1
 525 271 l 1
 522 271 l 1
 522 262 l 1
 522 253 l 1
 517 253 l 1
 513 253 l 1
 513 245 l 1
 513 237 l 1
 508 237 l 1
 503 237 l 1
 503 220 l 1
 487 220 l 1
 487 213 l 1
 487 205 l 1
 470 205 l 1
 453 205 l 1
 453 200 l 1
 453 196 l 1
 450 196 l 1
 446 196 l 1
 446 200 l 1
 446 205 l 1
 426 205 l 1
 405 205 l 1
 405 200 l 1
 405 196 l 1
 401 196 l 1
 396 196 l 1
 396 191 l 1
 396 186 l 1
 401 186 l 1
 405 186 l 1
 405 191 l 1
 405 196 l 1
 413 196 l 1
 421 196 l 1
 421 191 l 1
 421 186 l 1
 416 186 l 1
 412 186 l 1
 412 183 l 1
 412 180 l 1
 404 180 l 1
 396 180 l 1
 396 183 l 1
437 183 m 1
 437 186 l 1
 442 186 l 1
 446 186 l 1
 446 183 l 1
 446 180 l 1
 442 180 l 1
 437 180 l 1
 437 183 l 1
570 175 m 1
 570 180 l 1
 562 180 l 1
 554 180 l 1
 554 175 l 1
 554 170 l 1
 562 170 l 1
 570 170 l 1
 570 175 l 1
579 191 m 1
 579 196 l 1
 574 196 l 1
 570 196 l 1
 570 191 l 1
 570 186 l 1
 574 186 l 1
 579 186 l 1
 579 191 l 1
721 191 m 1
 721 196 l 1
 716 196 l 1
 712 196 l 1
 712 191 l 1
 712 186 l 1
 716 186 l 1
 721 186 l 1
 721 191 l 1
636 200 m 1
 636 205 l 1
 641 205 l 1
 645 205 l 1
 645 208 l 1
 645 211 l 1
 630 211 l 1
 630 196 l 1
 633 196 l 1
 636 196 l 1
 636 200 l 1
680 208 m 1
 680 211 l 1
 671 211 l 1
 661 211 l 1
 661 208 l 1
 661 205 l 1
 671 205 l 1
 680 205 l 1
 680 208 l 1
794 208 m 1
 794 211 l 1
 786 211 l 1
 778 211 l 1
 778 208 l 1
 778 205 l 1
 786 205 l 1
 794 205 l 1
 794 208 l 1
767 228 m 1
 753 228 l 1
 753 219 l 1
 753 211 l 1
 761 211 l 1
 767 211 l 1
 767 228 l 1
696 224 m 1
 696 227 l 1
 688 227 l 1
 680 227 l 1
 680 224 l 1
 680 221 l 1
 688 221 l 1
 696 221 l 1
 696 224 l 1
721 229 m 1
 721 237 l 1
 716 237 l 1
 712 237 l 1
 712 241 l 1
 712 246 l 1
 720 246 l 1
 728 246 l 1
 728 237 l 1
 728 227 l 1
 732 227 l 1
 737 227 l 1
 737 237 l 1
 737 246 l 1
 732 246 l 1
 728 246 l 1
 728 254 l 1
 728 262 l 1
 732 262 l 1
 737 262 l 1
 737 267 l 1
 737 271 l 1
 724 271 l 1
 712 271 l 1
 712 267 l 1
 712 262 l 1
 716 262 l 1
 721 262 l 1
 721 257 l 1
 721 253 l 1
 716 253 l 1
 712 253 l 1
 712 249 l 1
 712 246 l 1
 707 246 l 1
 702 246 l 1
 702 249 l 1
 702 253 l 1
 694 253 l 1
 686 253 l 1
 686 249 l 1
 686 246 l 1
 694 246 l 1
 702 246 l 1
 702 234 l 1
 702 221 l 1
 712 221 l 1
 721 221 l 1
 721 229 l 1
655 241 m 1
 655 246 l 1
 650 246 l 1
 645 246 l 1
 645 241 l 1
 645 237 l 1
 650 237 l 1
 655 237 l 1
 655 241 l 1
762 245 m 1
 762 253 l 1
 758 253 l 1
 753 253 l 1
 753 245 l 1
 753 237 l 1
 758 237 l 1
 762 237 l 1
 762 245 l 1
813 257 m 1
 813 262 l 1
 803 262 l 1
 794 262 l 1
 794 257 l 1
 794 253 l 1
 803 253 l 1
 813 253 l 1
 813 257 l 1
247 283 m 1
 247 287 l 1
 243 287 l 1
 238 287 l 1
 238 283 l 1
 238 278 l 1
 243 278 l 1
 247 278 l 1
 247 283 l 1
879 295 m 1
 879 303 l 1
 874 303 l 1
 870 303 l 1
 870 295 l 1
 870 287 l 1
 874 287 l 1
 879 287 l 1
 879 295 l 1
803 316 m 1
 803 319 l 1
 795 319 l 1
 788 319 l 1
 788 316 l 1
 788 313 l 1
 795 313 l 1
 803 313 l 1
 803 316 l 1
737 333 m 1
 737 338 l 1
 732 338 l 1
 728 338 l 1
 728 333 l 1
 728 328 l 1
 732 328 l 1
 737 328 l 1
 737 333 l 1
788 341 m 1
 788 344 l 1
 783 344 l 1
 778 344 l 1
 778 341 l 1
 778 338 l 1
 783 338 l 1
 788 338 l 1
 788 341 l 1
819 358 m 1
 819 363 l 1
 807 363 l 1
 794 363 l 1
 794 358 l 1
 794 354 l 1
 807 354 l 1
 819 354 l 1
 819 358 l 1
762 366 m 1
 762 369 l 1
 758 369 l 1
 753 369 l 1
 753 366 l 1
 753 363 l 1
 758 363 l 1
 762 363 l 1
 762 366 l 1
680 374 m 1
 680 379 l 1
 683 379 l 1
 686 379 l 1
 686 374 l 1
 686 369 l 1
 694 369 l 1
 702 369 l 1
 702 384 l 1
 686 384 l 1
 686 390 l 1
 686 395 l 1
 683 395 l 1
 680 395 l 1
 680 390 l 1
 680 385 l 1
 675 385 l 1
 671 385 l 1
 671 377 l 1
 671 369 l 1
 675 369 l 1
 680 369 l 1
 680 374 l 1
778 374 m 1
 778 379 l 1
 783 379 l 1
 788 379 l 1
 788 392 l 1
 788 404 l 1
 783 404 l 1
 778 404 l 1
 778 399 l 1
 778 395 l 1
 773 395 l 1
 769 395 l 1
 769 382 l 1
 769 369 l 1
 773 369 l 1
 778 369 l 1
 778 374 l 1
661 390 m 1
 661 395 l 1
 666 395 l 1
 671 395 l 1
 671 399 l 1
 671 404 l 1
 657 404 l 1
 657 420 l 1
 650 420 l 1
 645 420 l 1
 645 425 l 1
 645 429 l 1
 641 429 l 1
 636 429 l 1
 636 425 l 1
 636 420 l 1
 633 420 l 1
 630 420 l 1
 630 425 l 1
 630 429 l 1
 617 429 l 1
 604 429 l 1
 604 425 l 1
 604 420 l 1
 612 420 l 1
 620 420 l 1
 620 415 l 1
 620 410 l 1
 628 410 l 1
 636 410 l 1
 636 407 l 1
 636 404 l 1
 641 404 l 1
 645 404 l 1
 645 395 l 1
 645 385 l 1
 653 385 l 1
 661 385 l 1
 661 390 l 1
746 390 m 1
 746 395 l 1
 742 395 l 1
 737 395 l 1
 737 390 l 1
 737 385 l 1
 742 385 l 1
 746 385 l 1
 746 390 l 1
803 390 m 1
 803 395 l 1
 799 395 l 1
 794 395 l 1
 794 390 l 1
 794 385 l 1
 799 385 l 1
 803 385 l 1
 803 390 l 1
721 415 m 1
 721 420 l 1
 716 420 l 1
 712 420 l 1
 712 415 l 1
 712 410 l 1
 716 410 l 1
 721 410 l 1
 721 415 l 1
702 425 m 1
 702 429 l 1
 699 429 l 1
 696 429 l 1
 696 425 l 1
 696 420 l 1
 699 420 l 1
 702 420 l 1
 702 425 l 1
589 440 m 1
 589 445 l 1
 596 445 l 1
 604 445 l 1
 604 440 l 1
 604 436 l 1
 608 436 l 1
 611 436 l 1
 611 440 l 1
 611 445 l 1
 608 445 l 1
 604 445 l 1
 604 450 l 1
 604 455 l 1
 596 455 l 1
 589 455 l 1
 589 458 l 1
 589 461 l 1
 579 461 l 1
 570 461 l 1
 570 466 l 1
 570 470 l 1
 562 470 l 1
 554 470 l 1
 554 474 l 1
 554 477 l 1
 549 477 l 1
 544 477 l 1
 544 474 l 1
 544 470 l 1
 533 470 l 1
 522 470 l 1
 522 474 l 1
 522 477 l 1
 517 477 l 1
 513 477 l 1
 513 469 l 1
 513 461 l 1
 525 461 l 1
 538 461 l 1
 538 458 l 1
 538 455 l 1
 546 455 l 1
 554 455 l 1
 554 450 l 1
 554 445 l 1
 559 445 l 1
 563 445 l 1
 563 450 l 1
 563 455 l 1
 566 455 l 1
 570 455 l 1
 570 450 l 1
 570 445 l 1
 574 445 l 1
 579 445 l 1
 579 440 l 1
 579 436 l 1
 584 436 l 1
 589 436 l 1
 589 440 l 1
661 445 m 1
 661 455 l 1
 658 455 l 1
 655 455 l 1
 655 445 l 1
 655 436 l 1
 658 436 l 1
 661 436 l 1
 661 445 l 1
702 440 m 1
 702 445 l 1
 699 445 l 1
 696 445 l 1
 696 440 l 1
 696 436 l 1
 699 436 l 1
 702 436 l 1
 702 440 l 1
364 463 m 1
 364 470 l 1
 360 470 l 1
 355 470 l 1
 355 463 l 1
 355 455 l 1
 360 455 l 1
 364 455 l 1
 364 463 l 1
345 466 m 1
 345 470 l 1
 342 470 l 1
 339 470 l 1
 339 466 l 1
 339 461 l 1
 342 461 l 1
 345 461 l 1
 345 466 l 1
386 465 m 1
 386 470 l 1
 386 477 l 1
 386 482 l 1
 386 486 l 1
 383 486 l 1
 380 486 l 1
 380 482 l 1
 380 477 l 1
 375 477 l 1
 371 477 l 1
 371 474 l 1
 371 470 l 1
 375 470 l 1
 380 470 l 1
 380 466 l 1
 380 461 l 1
 383 461 l 1
 386 461 l 1
 386 465 l 1
431 474 m 1
 431 486 l 1
 421 486 l 1
 412 486 l 1
 412 482 l 1
 412 477 l 1
 404 477 l 1
 396 477 l 1
 396 469 l 1
 396 461 l 1
 413 461 l 1
 431 461 l 1
 431 474 l 1
462 466 m 1
 462 470 l 1
 457 470 l 1
 453 470 l 1
 453 466 l 1
 453 461 l 1
 457 461 l 1
 462 461 l 1
 462 466 l 1
503 464 m 1
 503 476 l 1
 494 476 l 1
 483 476 l 1
 472 476 l 1
 472 471 l 1
 478 471 l 1
 478 466 l 1
 478 461 l 1
 491 461 l 1
 503 461 l 1
 503 464 l 1
630 466 m 1
 630 470 l 1
 625 470 l 1
 620 470 l 1
 620 466 l 1
 620 461 l 1
 625 461 l 1
 630 461 l 1
 630 466 l 1
478 491 m 1
 478 496 l 1
 475 496 l 1
 472 496 l 1
 472 491 l 1
 472 486 l 1
 475 486 l 1
 478 486 l 1
 478 491 l 1
462 499 m 1
 462 502 l 1
 457 502 l 1
 453 502 l 1
 453 507 l 1
 453 512 l 1
 457 512 l 1
 462 512 l 1
 462 516 l 1
 462 521 l 1
 454 521 l 1
 446 521 l 1
 446 516 l 1
 446 512 l 1
 442 512 l 1
 437 512 l 1
 437 507 l 1
 437 502 l 1
 445 502 l 1
 453 502 l 1
 453 499 l 1
 453 496 l 1
 457 496 l 1
 462 496 l 1
 462 499 l 1
320 507 m 1
 320 512 l 1
 317 512 l 1
 314 512 l 1
 314 507 l 1
 314 502 l 1
 317 502 l 1
 320 502 l 1
 320 507 l 1
478 507 m 1
 478 512 l 1
 475 512 l 1
 472 512 l 1
 472 507 l 1
 472 502 l 1
 475 502 l 1
 478 502 l 1
 478 507 l 1
238 516 m 1
 238 521 l 1
 233 521 l 1
 229 521 l 1
 229 525 l 1
 229 529 l 1
 221 529 l 1
 221 523 l 1
 224 523 l 1
 229 523 l 1
 229 516 l 1
 229 512 l 1
 233 512 l 1
 238 512 l 1
 238 516 l 1
279 516 m 1
 279 521 l 1
 276 521 l 1
 273 521 l 1
 273 516 l 1
 273 512 l 1
 276 512 l 1
 279 512 l 1
 279 516 l 1
412 516 m 1
 412 521 l 1
 408 521 l 1
 405 521 l 1
 405 516 l 1
 405 512 l 1
 408 512 l 1
 412 512 l 1
 412 516 l 1
263 524 m 1
 263 527 l 1
 271 527 l 1
 279 527 l 1
 279 532 l 1
 279 537 l 1
 276 537 l 1
 273 537 l 1
 273 542 l 1
 273 546 l 1
 288 546 l 1
 304 546 l 1
 304 542 l 1
 304 537 l 1
 296 537 l 1
 288 537 l 1
 288 532 l 1
 288 527 l 1
 301 527 l 1
 314 527 l 1
 314 532 l 1
 314 537 l 1
 317 537 l 1
 320 537 l 1
 320 542 l 1
 320 546 l 1
 312 546 l 1
 304 546 l 1
 304 549 l 1
 304 553 l 1
 300 553 l 1
 295 553 l 1
 295 557 l 1
 295 562 l 1
 292 562 l 1
 288 562 l 1
 288 557 l 1
 288 553 l 1
 276 553 l 1
 263 553 l 1
 263 549 l 1
 263 546 l 1
 246 546 l 1
 228 546 l 1
 228 542 l 1
 228 537 l 1
 233 537 l 1
 238 537 l 1
 238 532 l 1
 238 527 l 1
 243 527 l 1
 247 527 l 1
 247 532 l 1
 247 537 l 1
 251 537 l 1
 254 537 l 1
 254 529 l 1
 254 521 l 1
 258 521 l 1
 263 521 l 1
 263 524 l 1
330 532 m 1
 330 537 l 1
 325 537 l 1
 320 537 l 1
 320 532 l 1
 320 527 l 1
 325 527 l 1
 330 527 l 1
 330 532 l 1
355 542 m 1
 355 546 l 1
 347 546 l 1
 339 546 l 1
 339 542 l 1
 339 537 l 1
 347 537 l 1
 355 537 l 1
 355 542 l 1
380 542 m 1
 380 546 l 1
 375 546 l 1
 371 546 l 1
 371 553 l 1
 364 553 l 1
 364 545 l 1
 364 537 l 1
 372 537 l 1
 380 537 l 1
 380 542 l 1
206 557 m 1
 206 562 l 1
 202 562 l 1
 197 562 l 1
 197 557 l 1
 197 553 l 1
 202 553 l 1
 206 553 l 1
 206 557 l 1
254 570 m 1
 254 578 l 1
 251 578 l 1
 247 578 l 1
 247 573 l 1
 247 568 l 1
 243 568 l 1
 238 568 l 1
 238 565 l 1
 238 562 l 1
 246 562 l 1
 254 562 l 1
 254 570 l 1
273 565 m 1
 273 568 l 1
 268 568 l 1
 263 568 l 1
 263 565 l 1
 263 562 l 1
 268 562 l 1
 273 562 l 1
 273 565 l 1
304 598 m 1
 304 603 l 1
 300 603 l 1
 295 603 l 1
 295 598 l 1
 295 594 l 1
 300 594 l 1
 304 594 l 1
 304 598 l 1
538 66 m 1
 538 69 l 1
 546 69 l 1
 554 69 l 1
 554 66 l 1
 554 63 l 1
 546 63 l 1
 538 63 l 1
 538 66 l 1
570 66 m 1
 570 69 l 1
 574 69 l 1
 579 69 l 1
 579 66 l 1
 579 63 l 1
 574 63 l 1
 570 63 l 1
 570 66 l 1
345 74 m 1
 345 79 l 1
 350 79 l 1
 355 79 l 1
 355 74 l 1
 355 69 l 1
 350 69 l 1
 345 69 l 1
 345 74 l 1
487 99 m 1
 487 104 l 1
 492 104 l 1
 497 104 l 1
 497 99 l 1
 497 95 l 1
 492 95 l 1
 487 95 l 1
 487 99 l 1
671 128 m 1
 671 136 l 1
 691 136 l 1
 696 136 l 1
 696 132 l 1
 696 129 l 1
 691 129 l 1
 686 129 l 1
 686 125 l 1
 686 120 l 1
 679 120 l 1
 671 120 l 1
 671 128 l 1
712 150 m 1
 712 155 l 1
 716 155 l 1
 721 155 l 1
 721 150 l 1
 721 145 l 1
 716 145 l 1
 712 145 l 1
 712 150 l 1
762 186 m 1
 758 186 l 1
 753 186 l 1
 753 191 l 1
 753 196 l 1
 758 196 l 1
 762 196 l 1
 762 191 l 1
 762 186 l 1
-12 208 m 1
 -12 211 l 1
 -7 211 l 1
 -2 211 l 1
 -2 208 l 1
 -2 205 l 1
 -7 205 l 1
 -12 205 l 1
 -12 208 l 1
885 257 m 1
 885 262 l 1
 890 262 l 1
 895 262 l 1
 895 257 l 1
 895 253 l 1
 890 253 l 1
 885 253 l 1
 885 257 l 1
870 267 m 1
 870 271 l 1
 874 271 l 1
 879 271 l 1
 879 267 l 1
 879 262 l 1
 874 262 l 1
 870 262 l 1
 870 267 l 1
920 283 m 1
 920 287 l 1
 923 287 l 1
 927 287 l 1
 927 283 l 1
 927 278 l 1
 923 278 l 1
 920 278 l 1
 920 283 l 1
860 341 m 1
 860 344 l 1
 865 344 l 1
 870 344 l 1
 870 349 l 1
 870 354 l 1
 874 354 l 1
 879 354 l 1
 879 349 l 1
 879 344 l 1
 874 344 l 1
 870 344 l 1
 870 341 l 1
 870 338 l 1
 865 338 l 1
 860 338 l 1
 860 341 l 1
860 366 m 1
 860 369 l 1
 865 369 l 1
 870 369 l 1
 870 366 l 1
 870 363 l 1
 865 363 l 1
 860 363 l 1
 860 366 l 1
753 440 m 1
 753 445 l 1
 758 445 l 1
 762 445 l 1
 762 440 l 1
 762 436 l 1
 758 436 l 1
 753 436 l 1
 753 440 l 1
661 491 m 1
 661 496 l 1
 666 496 l 1
 671 496 l 1
 671 491 l 1
 671 486 l 1
 666 486 l 1
 661 486 l 1
 661 491 l 1
330 616 m 1
 330 619 l 1
 325 619 l 1
 320 619 l 1
 320 624 l 1
 320 628 l 1
 330 628 l 1
 339 628 l 1
 339 633 l 1
 339 638 l 1
 352 638 l 1
 364 638 l 1
 364 633 l 1
 364 628 l 1
 367 628 l 1
 371 628 l 1
 371 633 l 1
 371 638 l 1
 375 638 l 1
 380 638 l 1
 380 633 l 1
 380 628 l 1
 375 628 l 1
 371 628 l 1
 371 624 l 1
 371 619 l 1
 367 619 l 1
 364 619 l 1
 364 624 l 1
 364 628 l 1
 355 628 l 1
 345 628 l 1
 345 621 l 1
 345 613 l 1
 337 613 l 1
 330 613 l 1
 330 616 l 1
396 616 m 1
 396 619 l 1
 401 619 l 1
 405 619 l 1
 405 616 l 1
 405 613 l 1
 401 613 l 1
 396 613 l 1
 396 616 l 1
EndSplineSet
Validated: 133
EndChar

StartChar: colon
Encoding: 58 58 26
Width: 900
Flags: HW
LayerCount: 2
Fore
SplineSet
640 0 m 1
 570 0 l 1
 260 739 l 1
 330 739 l 1
 640 0 l 1
EndSplineSet
Validated: 1
EndChar

StartChar: semicolon
Encoding: 59 59 27
Width: 900
Flags: HW
LayerCount: 2
Fore
SplineSet
531.5 560 m 1
 500.5 560 l 1
 498.5 573.333 493.5 583 485.5 589 c 0
 476.833 595.667 464.833 599 449.5 599 c 0
 434.833 599 423.333 595.833 415 589.5 c 128
 406.667 583.167 401.167 573.333 398.5 560 c 1
 367.5 560 l 1
 369.5 584.667 377.333 603.333 391 616 c 128
 404.667 628.667 424.167 635 449.5 635 c 128
 474.833 635 494.333 628.667 508 616 c 128
 521.667 603.333 529.5 584.667 531.5 560 c 1
744.5 485 m 1
 713.5 485 l 1
 711.5 497.667 706.167 507.333 697.5 514 c 0
 689.5 520.667 677.833 524 662.5 524 c 0
 647.833 524 636.167 520.833 627.5 514.5 c 128
 618.833 508.167 613.5 498.333 611.5 485 c 1
 580.5 485 l 1
 582.5 509.667 590.333 528.333 604 541 c 128
 617.667 553.667 637.167 560 662.5 560 c 128
 687.833 560 707.333 553.667 721 541 c 128
 734.667 528.333 742.5 509.667 744.5 485 c 1
318.5 485 m 1
 287.5 485 l 1
 286.167 497.667 281.167 507.333 272.5 514 c 128
 263.833 520.667 251.833 524 236.5 524 c 0
 221.833 524 210.333 520.833 202 514.5 c 128
 193.667 508.167 188.5 498.333 186.5 485 c 1
 155.5 485 l 1
 156.833 509.667 164.5 528.333 178.5 541 c 128
 192.5 553.667 212 560 237 560 c 128
 262 560 281.5 553.667 295.5 541 c 128
 309.5 528.333 317.167 509.667 318.5 485 c 1
744.5 121 m 1
 713.5 121 l 1
 711.5 133.667 706.167 143.333 697.5 150 c 0
 689.5 156.667 677.833 160 662.5 160 c 0
 647.833 160 636.167 156.833 627.5 150.5 c 128
 618.833 144.167 613.5 134.333 611.5 121 c 1
 580.5 121 l 1
 582.5 145.667 590.333 164.333 604 177 c 128
 617.667 189.667 637.167 196 662.5 196 c 128
 687.833 196 707.333 189.667 721 177 c 128
 734.667 164.333 742.5 145.667 744.5 121 c 1
318.5 121 m 1
 287.5 121 l 1
 286.167 133.667 281.167 143.333 272.5 150 c 128
 263.833 156.667 251.833 160 236.5 160 c 0
 221.833 160 210.333 156.833 202 150.5 c 128
 193.667 144.167 188.5 134.333 186.5 121 c 1
 155.5 121 l 1
 156.833 145.667 164.5 164.333 178.5 177 c 128
 192.5 189.667 212 196 237 196 c 128
 262 196 281.5 189.667 295.5 177 c 128
 309.5 164.333 317.167 145.667 318.5 121 c 1
832.5 303 m 1
 801.5 303 l 1
 799.5 315.667 794.167 325.333 785.5 332 c 0
 777.5 338.667 765.833 342 750.5 342 c 0
 735.833 342 724.333 338.833 716 332.5 c 128
 707.667 326.167 702.167 316.333 699.5 303 c 1
 668.5 303 l 1
 670.5 327.667 678.333 346.333 692 359 c 128
 705.667 371.667 725.167 378 750.5 378 c 128
 775.833 378 795.333 371.667 809 359 c 128
 822.667 346.333 830.5 327.667 832.5 303 c 1
230.5 303 m 1
 199.5 303 l 1
 197.5 315.667 192.5 325.333 184.5 332 c 0
 175.833 338.667 163.833 342 148.5 342 c 0
 133.833 342 122.333 338.833 114 332.5 c 128
 105.667 326.167 100.167 316.333 97.5 303 c 1
 67.5 303 l 1
 68.833 327.667 76.333 346.333 90 359 c 128
 103.667 371.667 123.167 378 148.5 378 c 128
 173.833 378 193.5 371.667 207.5 359 c 128
 221.5 346.333 229.167 327.667 230.5 303 c 1
531.5 45 m 1
 500.5 45 l 1
 498.5 58.333 493.5 68.333 485.5 75 c 0
 476.833 81 464.833 84 449.5 84 c 0
 434.833 84 423.333 80.833 415 74.5 c 128
 406.667 68.167 401.167 58.333 398.5 45 c 1
 367.5 45 l 1
 369.5 70.333 377.333 89.167 391 101.5 c 128
 404.667 113.833 424.167 120 449.5 120 c 128
 474.833 120 494.333 113.833 508 101.5 c 128
 521.667 89.167 529.5 70.333 531.5 45 c 1
EndSplineSet
Validated: 1
EndChar

StartChar: equal
Encoding: 61 61 28
Width: 900
Flags: HW
LayerCount: 2
Fore
SplineSet
835 186 m 2
 835 94 819.833 32.833 789.5 2.5 c 128
 759.167 -27.833 698 -43 606 -43 c 2
 294 -43 l 2
 202 -43 140.833 -27.833 110.5 2.5 c 128
 80.167 32.833 65 94 65 186 c 2
 65 250 l 2
 65 338 78.167 397.333 104.5 428 c 128
 130.833 458.667 181.333 475.333 256 478 c 1
 256 534 l 1
 437 715 l 1
 644 715 l 1
 644 478 l 1
 718.667 475.333 769.167 458.5 795.5 427.5 c 128
 821.833 396.5 835 337.333 835 250 c 2
 835 186 l 2
431 541 m 1
 431 652 l 1
 319 541 l 1
 431 541 l 1
604 177 m 1
 604 675 l 1
 471 675 l 1
 471 501 l 1
 296 501 l 1
 296 177 l 1
 604 177 l 1
795 186 m 2
 795 250 l 2
 795 326.667 785.333 376.667 766 400 c 128
 746.667 423.333 706 436 644 438 c 1
 644 137 l 1
 256 137 l 1
 256 438 l 1
 193.333 436 152.5 423.333 133.5 400 c 128
 114.5 376.667 105 326.667 105 250 c 2
 105 186 l 2
 105 105.333 116.5 53.667 139.5 31 c 128
 162.5 8.33301 214 -3 294 -3 c 2
 606 -3 l 2
 686.667 -3 738.333 8.5 761 31.5 c 128
 783.667 54.5 795 106 795 186 c 2
EndSplineSet
Validated: 1
EndChar

StartChar: greater
Encoding: 62 62 29
Width: 900
Flags: HW
LayerCount: 2
Fore
SplineSet
739.5 293 m 1
 160.5 293 l 1
 449.5 615 l 1
 739.5 293 l 1
739.5 0 m 1
 160.5 0 l 1
 160.5 189 l 1
 739.5 189 l 1
 739.5 0 l 1
EndSplineSet
Validated: 1
EndChar

StartChar: question
Encoding: 63 63 30
Width: 900
Flags: HW
LayerCount: 2
Fore
SplineSet
830.5 -200 m 1
 69.5 -200 l 1
 69.5 -75 l 1
 830.5 -75 l 1
 830.5 -200 l 1
EndSplineSet
Validated: 1
EndChar

StartChar: at
Encoding: 64 64 31
Width: 900
Flags: HW
LayerCount: 2
Fore
SplineSet
575 175 m 1
 512 175 l 1
 512 112 l 1
 388 112 l 1
 388 175 l 1
 512 175 l 1
 512 238 l 1
 575 238 l 1
 575 175 l 1
388 300 m 1
 325 300 l 1
 325 362 l 1
 388 362 l 1
 388 300 l 1
575 300 m 1
 512 300 l 1
 512 362 l 1
 575 362 l 1
 575 300 l 1
325 50 m 1
 575 50 l 1
 575 -12 l 1
 325 -12 l 1
 325 50 l 1
325 50 m 1
 262 50 l 1
 262 112 l 1
 325 112 l 1
 325 50 l 1
575 50 m 1
 575 112 l 1
 638 112 l 1
 638 50 l 1
 575 50 l 1
262 112 m 1
 200 112 l 1
 200 175 l 1
 200 238 l 1
 200 300 l 1
 200 362 l 1
 200 425 l 1
 262 425 l 1
 262 362 l 1
 262 300 l 1
 262 238 l 1
 262 175 l 1
 262 112 l 1
638 112 m 1
 638 175 l 1
 638 238 l 1
 638 300 l 1
 638 362 l 1
 638 425 l 1
 700 425 l 1
 700 362 l 1
 700 300 l 1
 700 238 l 1
 700 175 l 1
 700 112 l 1
 638 112 l 1
388 175 m 1
 325 175 l 1
 325 238 l 1
 388 238 l 1
 388 175 l 1
262 425 m 1
 262 488 l 1
 325 488 l 1
 325 425 l 1
 262 425 l 1
638 425 m 1
 575 425 l 1
 575 488 l 1
 638 488 l 1
 638 425 l 1
325 488 m 1
 325 550 l 1
 575 550 l 1
 575 488 l 1
 325 488 l 1
EndSplineSet
Validated: 5
EndChar

StartChar: A
Encoding: 65 65 32
Width: 900
Flags: HW
LayerCount: 2
Fore
SplineSet
830.5 -200 m 1
 69.5 -200 l 1
 69.5 425 l 1
 830.5 425 l 1
 830.5 -200 l 1
EndSplineSet
Validated: 1
EndChar

StartChar: B
Encoding: 66 66 33
Width: 900
Flags: HW
LayerCount: 2
Fore
SplineSet
151.5 -27 m 1
 748.5 -27 l 1
 449.5 571 l 1
 151.5 -27 l 1
68.5 -83 m 1
 449.5 683 l 1
 831.5 -83 l 1
 68.5 -83 l 1
EndSplineSet
Validated: 1
EndChar

StartChar: C
Encoding: 67 67 34
Width: 900
Flags: HW
LayerCount: 2
Fore
SplineSet
469.5 442 m 1
 469.5 454 l 2
 469.5 463.333 470.667 474.833 473 488.5 c 128
 475.333 502.167 478.167 517.333 481.5 534 c 128
 484.833 550.667 491.167 567.333 500.5 584 c 128
 509.833 600.667 521 616 534 630 c 128
 547 644 564.5 655.167 586.5 663.5 c 128
 608.5 671.833 633.167 676 660.5 676 c 0
 683.833 676 705.667 671.833 726 663.5 c 128
 746.333 655.167 764 643.833 779 629.5 c 128
 794 615.167 806 597.833 815 577.5 c 128
 824 557.167 829.333 536 831 514 c 128
 832.667 492 829.5 468 821.5 442 c 128
 813.5 416 800.5 390.667 782.5 366 c 2
 469.5 -47 l 1
 469.5 442 l 1
430.5 442 m 1
 430.5 -47 l 1
 117.5 366 l 2
 99.5 390.667 86.5 416 78.5 442 c 128
 70.5 468 67.333 492 69 514 c 128
 70.667 536 76 557.167 85 577.5 c 128
 94 597.833 106 615.167 121 629.5 c 128
 136 643.833 153.833 655.167 174.5 663.5 c 128
 195.167 671.833 216.833 676 239.5 676 c 0
 266.833 676 291.5 671.833 313.5 663.5 c 128
 335.5 655.167 353 644 366 630 c 128
 379 616 390.167 600.667 399.5 584 c 128
 408.833 567.333 415.333 550.667 419 534 c 128
 422.667 517.333 425.5 502.167 427.5 488.5 c 128
 429.5 474.833 430.5 463.333 430.5 454 c 2
 430.5 442 l 1
EndSplineSet
Validated: 33
EndChar

StartChar: D
Encoding: 68 68 35
Width: 900
Flags: HW
LayerCount: 2
Fore
SplineSet
450 447 m 128
 424 447 402 438 384 420 c 128
 366 402 357 380 357 354 c 128
 357 328 366 306.167 384 288.5 c 128
 402 270.833 424 262 450 262 c 128
 476 262 498 270.833 516 288.5 c 128
 534 306.167 543 327.833 543 353.5 c 128
 543 379.167 534 401.167 516 419.5 c 128
 498 437.833 476 447 450 447 c 128
450 510 m 0
 470.667 510 490.667 506 510 498 c 128
 529.333 490 546 478.667 560 464 c 0
 574.667 449.333 585.833 432.667 593.5 414 c 128
 601.167 395.333 605 375.333 605 354 c 0
 605 310.667 589.833 274.167 559.5 244.5 c 128
 529.167 214.833 492.333 200 449 200 c 0
 405 200 368.333 214.667 339 244 c 128
 309.667 273.333 295 310 295 354 c 0
 295 397.333 310 434.167 340 464.5 c 128
 370 494.833 406.667 510 450 510 c 0
450 610 m 128
 415.333 610 382.667 603.667 352 591 c 0
 322 577.667 294.667 558.667 270 534 c 128
 245.333 509.333 226.833 482 214.5 452 c 128
 202.167 422 196 389.333 196 354 c 0
 196 319.333 202.167 287 214.5 257 c 128
 226.833 227 245.333 199.667 270 175 c 0
 294.667 149.667 322 130.667 352 118 c 0
 382.667 105.333 415.333 99 450 99 c 128
 484.667 99 517.333 105.333 548 118 c 0
 578 130.667 605.333 149.667 630 175 c 0
 654.667 199.667 673.167 227 685.5 257 c 128
 697.833 287 704 319.333 704 354 c 0
 704 389.333 697.833 422 685.5 452 c 128
 673.167 482 654.667 509.333 630 534 c 128
 605.333 558.667 578 577.667 548 591 c 0
 517.333 603.667 484.667 610 450 610 c 128
450 683 m 128
 494.667 683 536.5 674.833 575.5 658.5 c 128
 614.5 642.167 649.667 618 681 586 c 0
 713.667 554 738 518.667 754 480 c 128
 770 441.333 778 399.333 778 354 c 0
 778 309.333 770 267.667 754 229 c 128
 738 190.333 713.667 155 681 123 c 0
 649.667 91 614.5 66.833 575.5 50.5 c 128
 536.5 34.167 494.667 26 450 26 c 128
 405.333 26 363.5 34.167 324.5 50.5 c 128
 285.5 66.833 250.333 91 219 123 c 0
 186.333 155 162 190.333 146 229 c 128
 130 267.667 122 309.333 122 354 c 0
 122 399.333 130 441.333 146 480 c 128
 162 518.667 186.333 554 219 586 c 0
 250.333 618 285.5 642.167 324.5 658.5 c 128
 363.5 674.833 405.333 683 450 683 c 128
EndSplineSet
Validated: 1
EndChar

StartChar: E
Encoding: 69 69 36
Width: 900
Flags: HW
LayerCount: 2
Fore
SplineSet
220.5 791 m 1
 221.5 791 l 1
 212.167 723.667 192.5 690 162.5 690 c 2
 159.5 690 l 1
 140.833 693.333 131.5 700.667 131.5 712 c 2
 131.5 713 l 2
 131.5 731 161.167 757 220.5 791 c 1
423.5 914 m 1
 423.5 914 l 1
 414.167 846.667 394.5 813 364.5 813 c 2
 361.5 813 l 1
 342.833 815.667 333.5 822.667 333.5 834 c 2
 333.5 835 l 2
 333.5 853 363.5 879.333 423.5 914 c 1
598.5 973 m 1
 599.5 973 l 1
 590.167 905.667 570.5 872 540.5 872 c 2
 537.5 872 l 2
 518.167 874.667 508.5 881.667 508.5 893 c 2
 508.5 895 l 2
 508.5 912.333 538.5 938.333 598.5 973 c 1
629.5 831 m 1
 631.5 831 l 1
 621.5 763.667 601.5 730 571.5 730 c 2
 568.5 730 l 1
 549.833 732.667 540.5 739.667 540.5 751 c 2
 540.5 752 l 2
 540.5 770 570.167 796.333 629.5 831 c 1
805.5 933 m 1
 806.5 933 l 1
 797.167 866.333 777.5 833 747.5 833 c 2
 744.5 833 l 2
 725.167 835 715.5 842 715.5 854 c 2
 715.5 855 l 2
 715.5 873 745.5 899 805.5 933 c 1
859.5 831 m 1
 860.5 831 l 1
 851.167 763.667 831.5 730 801.5 730 c 2
 797.5 730 l 2
 779.5 732 770.5 739 770.5 751 c 2
 770.5 752 l 2
 770.5 770 800.167 796.333 859.5 831 c 1
814.5 664 m 1
 816.5 664 l 1
 806.5 596.667 786.5 563 756.5 563 c 2
 753.5 563 l 1
 734.833 566.333 725.5 573.667 725.5 585 c 2
 725.5 586 l 2
 725.5 604 755.167 630 814.5 664 c 1
433.5 689 m 1
 462.5 689 l 1
 464.5 686 l 1
 464.5 632 l 1
 465.5 632 l 2
 608.833 632 726.167 561.667 817.5 421 c 0
 831.5 395.667 838.5 381.333 838.5 378 c 2
 838.5 374 l 1
 837.5 374 l 1
 830.167 378.667 823.5 387.667 817.5 401 c 1
 806.167 407.667 791.167 411 772.5 411 c 2
 751.5 411 l 2
 702.167 411 659.5 396.333 623.5 367 c 1
 623.5 345 l 2
 623.5 341 622.167 338.667 619.5 338 c 1
 603.5 366 l 1
 554.167 384 507.5 393 463.5 393 c 1
 463.5 95 l 2
 463.5 65.667 446.167 47.667 411.5 41 c 2
 396.5 40 l 2
 367.167 40 346.5 54 334.5 82 c 1
 333.5 94 l 1
 333.5 105 l 1
 336.5 108 l 1
 357.5 108 l 1
 359.5 105 l 1
 359.5 100 l 2
 362.833 70.667 374.833 56 395.5 56 c 2
 400.5 56 l 2
 417.833 56 429.833 64.333 436.5 81 c 1
 439.5 99 l 1
 439.5 393 l 1
 370.833 393 322.5 384 294.5 366 c 1
 289.167 350 284.167 342 279.5 342 c 1
 276.5 344 l 1
 276.5 349 l 1
 279.5 372 l 1
 277.5 372 l 1
 255.5 390 212.5 403 148.5 411 c 2
 115.5 411 l 2
 83.5 411 61.833 402 50.5 384 c 1
 41.5 377 l 1
 39.5 377 l 1
 39.5 378 l 1
 58.833 419.333 99.5 471.667 161.5 535 c 0
 239.5 599.667 329.167 632 430.5 632 c 1
 430.5 686 l 1
 433.5 689 l 1
EndSplineSet
Validated: 5
EndChar

StartChar: F
Encoding: 70 70 37
Width: 900
Flags: HW
LayerCount: 2
Fore
SplineSet
469.5 442 m 1
 469.5 454 l 2
 469.5 463.333 470.667 474.833 473 488.5 c 128
 475.333 502.167 478.167 517.333 481.5 534 c 128
 484.833 550.667 491.167 567.333 500.5 584 c 128
 509.833 600.667 521 616 534 630 c 128
 547 644 564.5 655.167 586.5 663.5 c 128
 608.5 671.833 633.167 676 660.5 676 c 0
 683.833 676 705.667 671.833 726 663.5 c 128
 746.333 655.167 764 643.833 779 629.5 c 128
 794 615.167 806 597.833 815 577.5 c 128
 824 557.167 829.333 536 831 514 c 128
 832.667 492 829.5 468 821.5 442 c 128
 813.5 416 800.5 390.667 782.5 366 c 2
 469.5 -47 l 1
 469.5 442 l 1
430.5 442 m 1
 430.5 -47 l 1
 117.5 366 l 2
 99.5 390.667 86.5 416 78.5 442 c 128
 70.5 468 67.333 492 69 514 c 128
 70.667 536 76 557.167 85 577.5 c 128
 94 597.833 106 615.167 121 629.5 c 128
 136 643.833 153.833 655.167 174.5 663.5 c 128
 195.167 671.833 216.833 676 239.5 676 c 0
 266.833 676 291.5 671.833 313.5 663.5 c 128
 335.5 655.167 353 644 366 630 c 128
 379 616 390.167 600.667 399.5 584 c 128
 408.833 567.333 415.333 550.667 419 534 c 128
 422.667 517.333 425.5 502.167 427.5 488.5 c 128
 429.5 474.833 430.5 463.333 430.5 454 c 2
 430.5 442 l 1
EndSplineSet
Validated: 33
EndChar

StartChar: G
Encoding: 71 71 38
Width: 900
Flags: HW
LayerCount: 2
Fore
SplineSet
693 747 m 1
 432 435 l 1
 663 354 l 1
 207 -54 l 1
 498 324 l 1
 273 411 l 1
 693 747 l 1
EndSplineSet
Validated: 1
EndChar

StartChar: H
Encoding: 72 72 39
Width: 900
Flags: HW
LayerCount: 2
Fore
SplineSet
428 282 m 0
 428 294 423.167 301.333 413.5 304 c 128
 403.833 306.667 382.333 308.333 349 309 c 0
 335.667 309 290.667 313 214 321 c 1
 140 222 l 1
 89 215 l 1
 122 333 l 1
 87 347 l 1
 122 358 l 1
 89 476 l 1
 140 469 l 1
 214 370 l 1
 250 374 l 2
 266 374.667 284.167 376.167 304.5 378.5 c 128
 324.833 380.833 342.667 382 358 382 c 2
 391 383 l 2
 415.667 383.667 428 392.333 428 409 c 0
 428 410.333 428.167 412.5 428.5 415.5 c 128
 428.833 418.5 429 421.333 429 424 c 0
 429 442 421 469.667 405 507 c 2
 318 705 l 1
 355 705 l 2
 364.333 705 371.333 703.333 376 700 c 128
 380.667 696.667 387.333 689 396 677 c 2
 435 622 l 1
 496 622 l 2
 498.667 622 501.333 620.333 504 617 c 128
 506.667 613.667 508 610 508 606 c 0
 508 601.333 506.833 597.333 504.5 594 c 128
 502.167 590.667 499.333 589 496 589 c 2
 463 589 l 1
 512 519 l 1
 572 519 l 2
 574.667 519 577.333 517.333 580 514 c 128
 582.667 510.667 584 507 584 503 c 0
 584 498.333 582.667 494.167 580 490.5 c 128
 577.333 486.833 574.333 485 571 485 c 2
 540 485 l 1
 614 386 l 1
 623 385 l 1
 693 382 l 2
 773 378.667 813 367 813 347 c 0
 813 333 797.5 323.167 766.5 317.5 c 128
 735.5 311.833 684.667 307.667 614 305 c 1
 540 206 l 1
 571 206 l 2
 574.333 206 577.333 204.167 580 200.5 c 128
 582.667 196.833 584 193 584 189 c 0
 584 184.333 582.833 180.333 580.5 177 c 128
 578.167 173.667 575.333 172 572 172 c 2
 512 172 l 1
 463 102 l 1
 496 102 l 2
 499.333 102 502.167 100.333 504.5 97 c 128
 506.833 93.667 508 89.667 508 85 c 0
 508 81 506.667 77.333 504 74 c 128
 501.333 70.667 498.667 69 496 69 c 2
 435 69 l 1
 396 14 l 2
 387.333 2.66699 380.5 -4.66699 375.5 -8 c 128
 370.5 -11.333 363.667 -13 355 -13 c 2
 318 -13 l 1
 405 184 l 1
 420.333 242.667 428 275.333 428 282 c 0
EndSplineSet
Validated: 1
EndChar

StartChar: I
Encoding: 73 73 40
Width: 900
Flags: HW
LayerCount: 2
Fore
SplineSet
275.5 405 m 0
 275.5 423 281.5 440 293.5 456 c 1
 301.5 458 308.167 464 313.5 474 c 2
 338.5 520 l 2
 343.167 527.333 352.833 535 367.5 543 c 1
 369.5 543 l 1
 371.5 543 l 1
 362.833 558.333 351.833 586.333 338.5 627 c 0
 329.167 657 321.167 677.667 314.5 689 c 0
 303.167 708.333 297.5 724 297.5 736 c 0
 297.5 744.667 301.5 753.333 309.5 762 c 0
 318.167 772.667 328.167 778 339.5 778 c 0
 344.833 778 350.5 777.333 356.5 776 c 0
 371.833 772 382.5 765.667 388.5 757 c 0
 412.5 721 436.5 672.667 460.5 612 c 2
 479.5 565 l 2
 484.167 553 488.833 543.667 493.5 537 c 1
 499.5 542.333 503.5 555.333 505.5 576 c 0
 507.5 590 510.167 602 513.5 612 c 0
 514.833 617.333 517.5 642 521.5 686 c 0
 522.833 704.667 523.5 715 523.5 717 c 2
 523.5 727 l 1
 522.833 729 522.5 731 522.5 733 c 0
 522.5 745 527.833 756.333 538.5 767 c 0
 547.167 777 558.167 782 571.5 782 c 0
 589.5 782 603.167 772.333 612.5 753 c 0
 616.5 744.333 618.833 737.333 619.5 732 c 0
 622.833 693.333 624.5 660.667 624.5 634 c 0
 624.5 627.333 624.167 621 623.5 615 c 2
 619.5 468 l 1
 619.5 461 l 2
 619.5 453 619.833 444.333 620.5 435 c 2
 621.5 424 l 2
 622.833 412 623.5 391.667 623.5 363 c 0
 623.5 351.667 623.167 339 622.5 325 c 2
 624.5 264 l 2
 624.5 256 620.833 229.667 613.5 185 c 0
 612.833 179 612.5 153 612.5 107 c 2
 612.5 40 l 1
 346.5 40 l 1
 346.5 129 l 2
 346.5 135 345.5 143.333 343.5 154 c 0
 340.833 171.333 333.5 191 321.5 213 c 0
 305.5 241.667 297.5 262.333 297.5 275 c 0
 297.5 301 293.167 328.333 284.5 357 c 0
 278.5 376.333 275.5 392.333 275.5 405 c 0
591.5 725 m 2
 590.833 743.667 584.167 753 571.5 753 c 0
 560.167 753 553.833 741.667 552.5 719 c 2
 549.5 665 l 2
 549.5 655.667 547.833 642 544.5 624 c 2
 527.5 529 l 2
 525.5 519.667 521.167 514 514.5 512 c 2
 487.5 505 l 1
 475.5 510 l 1
 472.833 514.667 464.5 533 450.5 565 c 2
 441.5 584 l 2
 426.833 619.333 407.167 661.333 382.5 710 c 0
 374.5 726.667 367.167 737.333 360.5 742 c 0
 355.167 746 350.167 748 345.5 748 c 0
 339.5 748 335.5 746 333.5 742 c 1
 330.833 740 329.5 737.333 329.5 734 c 0
 329.5 724 334.167 710 343.5 692 c 0
 348.167 683.333 353.5 670.667 359.5 654 c 2
 405.5 530 l 1
 472.5 481 l 2
 503.167 457.667 533.833 431 564.5 401 c 1
 565.833 397 566.5 393.667 566.5 391 c 0
 566.5 385 563.167 381.333 556.5 380 c 1
 552.5 380 l 2
 545.167 380 538.5 383 532.5 389 c 0
 530.5 391 529.167 393.333 528.5 396 c 1
 513.167 412.667 486.833 434.667 449.5 462 c 2
 423.5 481 l 1
 421.5 481.667 413.5 487 399.5 497 c 0
 390.167 504.333 382.167 508 375.5 508 c 0
 372.167 508 369.167 506.333 366.5 503 c 0
 365.167 501 363.833 498 362.5 494 c 1
 365.167 486.667 374.5 477 390.5 465 c 0
 403.833 454.333 412.5 446 416.5 440 c 0
 419.167 436 427.833 426.333 442.5 411 c 0
 459.167 393.667 467.5 377.333 467.5 362 c 0
 467.5 350 464.167 334 457.5 314 c 0
 452.833 299.333 450.167 286.667 449.5 276 c 2
 449.5 275 l 2
 449.5 259 458.5 240.667 476.5 220 c 0
 483.833 211.333 491.5 204 499.5 198 c 0
 516.833 186 526.833 177.333 529.5 172 c 0
 530.833 170 531.5 168 531.5 166 c 0
 531.5 160.667 526.833 156.667 517.5 154 c 1
 477.5 170.667 449.833 196.667 434.5 232 c 0
 432.5 236.667 430.167 240.667 427.5 244 c 0
 422.833 251.333 420.833 258.667 421.5 266 c 2
 425.5 303 l 2
 426.167 307.667 425.167 312 422.5 316 c 0
 420.5 319.333 417.167 321.667 412.5 323 c 1
 403.167 315 391.833 311 378.5 311 c 0
 374.5 311 369.833 311.333 364.5 312 c 1
 357.167 314 350.5 317 344.5 321 c 1
 328.5 343 319.167 354 316.5 354 c 0
 315.167 354 314.833 353.333 315.5 352 c 0
 318.833 340.667 321.5 322 323.5 296 c 0
 324.833 280 327.167 268.333 330.5 261 c 2
 375.5 157 l 1
 375.5 147 l 1
 375.5 70 l 1
 584.5 70 l 1
 583.5 159 l 2
 583.5 177.667 585.5 195 589.5 211 c 0
 593.5 227.667 595.5 245.667 595.5 265 c 2
 595.5 269 l 1
 594.5 302 l 2
 595.833 320.667 596.5 338.667 596.5 356 c 0
 596.5 384.667 594.833 411 591.5 435 c 0
 590.167 449.667 589.5 463.667 589.5 477 c 2
 589.5 484 l 1
 595.5 642 l 1
 595.5 647 l 2
 595.5 653 595.167 662.333 594.5 675 c 2
 591.5 725 l 2
343.5 469 m 1
 334.5 460 l 1
 346.5 446 361.833 431.667 380.5 417 c 0
 398.5 401 410.167 383.333 415.5 364 c 0
 416.833 360 417.5 356 417.5 352 c 1
 423.5 346.667 428.167 344 431.5 344 c 256
 434.833 344 437.167 346.667 438.5 352 c 0
 439.167 354.667 439.5 357.667 439.5 361 c 0
 439.5 367.667 437.5 374.667 433.5 382 c 0
 432.167 384.667 430.5 387 428.5 389 c 0
 393.167 425.667 364.833 452.333 343.5 469 c 1
313.5 435 m 1
 308.167 428.333 305.167 417.667 304.5 403 c 1
 331.167 381.667 350.833 361.667 363.5 343 c 1
 368.167 340.333 372.167 339 375.5 339 c 0
 380.833 339 384.833 342 387.5 348 c 0
 388.833 351.333 389.5 354.667 389.5 358 c 0
 389.5 363.333 387.5 369 383.5 375 c 0
 380.833 378.333 377.833 381 374.5 383 c 1
 315.5 433 l 1
 313.5 435 l 1
EndSplineSet
Validated: 33
EndChar

StartChar: J
Encoding: 74 74 41
Width: 900
Flags: HW
LayerCount: 2
Fore
SplineSet
637 672 m 1
 588 497 l 1
 762 541 l 1
 637 411 l 1
 811 361 l 1
 637 307 l 1
 762 176 l 1
 588 222 l 1
 637 47 l 1
 497 176 l 1
 447 -1 l 1
 402 176 l 1
 271 47 l 1
 316 222 l 1
 140 176 l 1
 271 307 l 1
 89 361 l 1
 271 411 l 1
 140 541 l 1
 316 497 l 1
 271 672 l 1
 402 541 l 1
 447 720 l 1
 497 541 l 1
 637 672 l 1
EndSplineSet
Validated: 1
EndChar

StartChar: K
Encoding: 75 75 42
Width: 900
Flags: HW
LayerCount: 2
Fore
SplineSet
444.5 -13 m 0
 327.167 -13 231.833 21.167 158.5 89.5 c 128
 85.167 157.833 48.5 243.333 48.5 346 c 0
 48.5 450.667 86.333 536.667 162 604 c 128
 237.667 671.333 334.5 705 452.5 705 c 0
 567.833 705 663.167 670.833 738.5 602.5 c 128
 813.833 534.167 851.5 448.667 851.5 346 c 0
 851.5 241.333 813.5 155.333 737.5 88 c 128
 661.5 20.667 563.833 -13 444.5 -13 c 0
729.5 347 m 0
 729.5 388.333 723.5 426.333 711.5 461 c 128
 699.5 495.667 683.5 524.167 663.5 546.5 c 128
 643.5 568.833 621.833 588.5 598.5 605.5 c 128
 575.167 622.5 551.167 635.5 526.5 644.5 c 128
 501.833 653.5 479.833 660.167 460.5 664.5 c 128
 441.167 668.833 424.5 671 410.5 671 c 0
 311.833 671 229.833 635.333 164.5 564 c 0
 109.167 502.667 81.5 431.333 81.5 350 c 0
 81.5 259.333 113 182.167 176 118.5 c 128
 239 54.833 315.5 23 405.5 23 c 0
 494.833 23 571.167 54.667 634.5 118 c 128
 697.833 181.333 729.5 257.667 729.5 347 c 0
EndSplineSet
Validated: 1
EndChar

StartChar: L
Encoding: 76 76 43
Width: 900
Flags: HW
LayerCount: 2
Fore
SplineSet
684.5 589 m 1
 848.5 407 l 1
 848.5 290 l 1
 398.5 101 l 1
 398.5 193 l 1
 51.5 193 l 1
 51.5 320 l 1
 231.5 504 l 1
 616.5 504 l 1
 684.5 589 l 1
684.5 557 m 1
 625.5 485 l 1
 240.5 485 l 1
 72.5 310 l 1
 486.5 310 l 1
 427.5 233 l 1
 826.5 400 l 1
 684.5 557 l 1
EndSplineSet
Validated: 1
EndChar

StartChar: M
Encoding: 77 77 44
Width: 900
Flags: HW
LayerCount: 2
Fore
SplineSet
625 461 m 1
 625 427 l 1
 669 427 l 1
 669 461 l 1
 625 461 l 1
583 604 m 1
 602 563 l 1
 639 582 l 1
 652 521 l 1
 718 521 l 1
 746 431 l 1
 661 295 l 1
 748 184 l 1
 835 210 l 1
 845 193 l 1
 811 181 l 1
 811 171 l 1
 874 180 l 1
 877 161 l 1
 812 154 l 1
 812 147 l 1
 860 137 l 1
 849 122 l 1
 801 131 l 1
 712 116 l 1
 619 201 l 1
 559 131 l 1
 625 65 l 1
 773 69 l 1
 775 42 l 1
 693 44 l 1
 684 35 l 1
 796 20 l 1
 788 -3 l 1
 665 14 l 1
 661 10 l 1
 731 -16 l 1
 720 -37 l 1
 595 -3 l 1
 496 -16 l 1
 121 -16 l 1
 23 67 l 1
 23 180 l 1
 125 320 l 1
 364 384 l 1
 496 465 l 1
 472 561 l 1
 510 548 l 1
 523 589 l 1
 555 561 l 1
 583 604 l 1
EndSplineSet
Validated: 1
EndChar

StartChar: N
Encoding: 78 78 45
Width: 900
Flags: HW
LayerCount: 2
Fore
SplineSet
78 469 m 1
 294 835 l 1
 786 620 l 1
 822 403 l 1
 737 163 l 1
 362 -88 l 1
 197 -56 l 1
 78 469 l 1
132 460 m 1
 239 -13 l 1
 352 -35 l 1
 696 195 l 1
 771 407 l 1
 741 585 l 1
 315 771 l 1
 132 460 l 1
EndSplineSet
Validated: 1
EndChar

StartChar: O
Encoding: 79 79 46
Width: 900
Flags: HW
LayerCount: 2
Fore
SplineSet
447 569 m 2
 450 569 l 1
 453 569 l 2
 628.333 568.333 786.667 496.333 928 353 c 1
 855.333 279 781.333 221 706 179 c 128
 630.667 137 548.333 116 459 116 c 0
 453 116 453 116 450 116 c 256
 447 116 447 116 441 116 c 0
 351.667 116 269.333 137 194 179 c 128
 118.667 221 44.667 279 -28 353 c 1
 113.333 496.333 271.667 568.333 447 569 c 2
447 521 m 2
 309.667 521 175 465 43 353 c 1
 56.333 340.333 67 330.667 75 324 c 1
 131 364.667 188.833 397.833 248.5 423.5 c 128
 308.167 449.167 374.333 462 447 462 c 2
 450 462 l 1
 453 462 l 2
 525.667 462 591.833 449.167 651.5 423.5 c 128
 711.167 397.833 769 364.667 825 324 c 1
 833 330.667 843.667 340.333 857 353 c 1
 725 465 590.333 521 453 521 c 2
 450 521 l 1
 447 521 l 2
450 407 m 256
 418 407 390.833 395.667 368.5 373 c 128
 346.167 350.333 335 323 335 291 c 128
 335 259 346.167 231.833 368.5 209.5 c 128
 390.833 187.167 418 176 450 176 c 256
 482 176 509.167 187.167 531.5 209.5 c 128
 553.833 231.833 565 259 565 291 c 128
 565 323 553.833 350.333 531.5 373 c 128
 509.167 395.667 482 407 450 407 c 256
326 397 m 1
 257.333 379 186.667 344.333 114 293 c 1
 184.667 238.333 256.333 201.333 329 182 c 1
 300.333 213.333 286 249.667 286 291 c 0
 286 329 299.333 364.333 326 397 c 1
574 397 m 1
 601.333 364.333 614.667 329 614 291 c 0
 614 249.667 599.667 213.333 571 182 c 1
 643.667 201.333 715.333 238.333 786 293 c 1
 713.333 344.333 642.667 379 574 397 c 1
450 364 m 256
 472 364 490.167 357 504.5 343 c 128
 518.833 329 526 311 526 289 c 0
 526 269 518.5 251.5 503.5 236.5 c 128
 488.5 221.5 470.667 213.667 450 213 c 0
 429.333 213.667 411.667 221.5 397 236.5 c 128
 382.333 251.5 375 269 375 289 c 0
 374.333 311 381.167 329 395.5 343 c 128
 409.833 357 428 364 450 364 c 256
450 316 m 0
 442.667 316 436.5 313.5 431.5 308.5 c 128
 426.5 303.5 424 297.167 424 289.5 c 128
 424 281.833 426.5 275.5 431.5 270.5 c 128
 436.5 265.5 442.667 262.667 450 262 c 1
 458 262.667 464.5 265.5 469.5 270.5 c 128
 474.5 275.5 477 281.833 477 289.5 c 128
 477 297.167 474.5 303.5 469.5 308.5 c 128
 464.5 313.5 458 316 450 316 c 0
EndSplineSet
Validated: 33
EndChar

StartChar: P
Encoding: 80 80 47
Width: 900
Flags: HW
LayerCount: 2
Fore
SplineSet
335.991 804.466 m 0
 342.868 804.479 349.369 802.957 355.492 799.9 c 1
 352.275 796.267 350.986 791.288 351.624 784.965 c 1
 357.358 786.986 365.334 786.773 375.551 784.324 c 128
 385.766 781.875 394.118 776.878 400.606 769.333 c 1
 400.568 769.332 397.127 769.497 390.284 769.829 c 128
 383.44 770.16 380.097 769.737 380.255 768.559 c 1
 392.017 751.303 l 1
 376.307 740.314 l 1
 373.986 726.153 l 1
 371.379 725.224 367.765 723.589 363.143 721.246 c 128
 358.521 718.903 354.25 717.037 350.331 715.646 c 128
 346.412 714.257 342.535 713.58 338.7 713.617 c 1
 344.241 709.638 347.388 704.402 348.14 697.907 c 1
 345.959 696.644 342.886 694.649 338.92 691.924 c 128
 334.954 689.199 332.095 687.299 330.343 686.223 c 1
 349.233 694.996 365.638 701.857 379.558 706.807 c 0
 422.597 722.115 464.668 731.479 505.771 734.896 c 0
 523.782 736.394 546.162 733.419 572.909 725.971 c 128
 599.656 718.521 618.832 711.593 630.438 705.183 c 0
 650.326 694.197 666.551 682.435 679.112 669.896 c 1
 650.455 666.231 636.062 664.399 635.931 664.4 c 1
 629.068 668.053 619.396 674.182 606.916 682.785 c 128
 594.435 691.388 584.761 697.538 577.893 701.235 c 1
 604.592 676.938 l 1
 581.899 689.682 565.932 700.129 556.69 708.277 c 1
 557.836 704.762 560.194 699.605 563.765 692.804 c 128
 567.337 686.004 569.699 680.973 570.852 677.71 c 1
 567.645 679.633 562.989 682.243 556.886 685.542 c 128
 550.783 688.841 545.33 691.927 540.528 694.801 c 128
 535.725 697.674 531.439 700.592 527.672 703.557 c 1
 527.818 697.428 529.649 690.36 533.165 682.354 c 1
 526.816 684.201 520.806 687.864 515.136 693.342 c 1
 508.116 690.828 501.59 686.907 495.557 681.579 c 1
 492.793 681.92 488.22 681.729 481.839 681.006 c 128
 475.458 680.282 470.771 680.061 467.776 680.342 c 1
 486.5 671.651 503.757 658.934 519.547 642.191 c 0
 537.168 623.504 547.486 600.831 550.5 574.171 c 1
 543.051 581.218 537.557 589.06 534.017 597.696 c 1
 530.326 593.939 527.669 589.605 526.047 584.694 c 1
 530.999 581.677 l 2
 543.494 573.895 557.081 561.711 571.761 545.126 c 128
 586.441 528.541 597.41 513.382 604.669 499.649 c 1
 603.618 500.068 601.977 501.385 599.744 503.6 c 128
 597.513 505.814 596.033 507.206 595.305 507.775 c 1
 601.332 497.57 604.789 484.75 605.675 469.314 c 1
 601.734 473.075 596.962 475.346 591.359 476.125 c 1
 591.483 474.632 591.534 472.956 591.513 471.095 c 1
 596.079 462.814 l 1
 589.811 441.612 l 1
 583.246 442.005 578.009 443.836 574.101 447.106 c 1
 558.161 445.868 l 1
 570.232 430.624 l 1
 566.523 426.513 561.287 423.391 554.524 421.26 c 1
 549.803 425.902 l 1
 547.957 423.591 544.965 421.812 540.827 420.562 c 1
 534.094 432.171 l 1
 533.701 428.885 532.979 424.939 531.927 420.332 c 1
 526.993 418.518 521.318 418.673 514.903 420.796 c 1
 514.815 430.431 513.938 439.434 512.271 447.803 c 1
 511.583 435.756 510.293 427.372 508.402 422.653 c 1
 502.703 423.423 495.894 426.003 487.973 430.392 c 1
 487.92 431.485 487.973 436.192 488.132 444.515 c 128
 488.289 452.837 487.875 457.312 486.89 457.94 c 1
 479.871 457.797 473.32 458.236 467.235 459.256 c 1
 464.055 465.562 462.817 477.455 463.52 494.93 c 1
 460.519 488.461 458.688 481.908 458.026 475.273 c 1
 455.704 477.285 l 1
 458.028 459.59 458.802 442.721 458.026 426.677 c 1
 457.004 427.651 455.827 430.564 454.495 435.415 c 128
 453.162 440.265 451.76 444.136 450.287 447.029 c 1
 448.015 438.464 444.301 432.841 439.144 430.158 c 1
 427.909 451.855 419.68 473.032 414.459 493.691 c 1
 414.618 499.156 414.37 503.511 413.714 506.758 c 128
 413.057 510.005 411.776 513.516 409.871 517.293 c 128
 407.966 521.068 406.761 523.622 406.256 524.954 c 1
 405.354 525.034 402.723 525.189 398.362 525.419 c 1
 398.144 525.669 397.806 526.034 397.349 526.513 c 128
 396.665 527.231 396.665 527.231 396.35 527.586 c 1
 396.079 526.826 395.324 524.569 394.085 520.814 c 128
 392.845 517.059 391.82 514.209 391.011 512.264 c 1
 388.234 521.302 387.177 529.556 387.839 537.026 c 1
 385.131 539.968 l 1
 382.432 535.881 379.156 531.96 375.303 528.205 c 1
 378.936 510.56 384.61 495.78 392.327 483.863 c 0
 401.586 470.166 410.461 456.24 418.95 442.087 c 128
 427.439 427.933 439.797 411.392 456.024 392.465 c 128
 472.25 373.536 489.709 356.695 508.402 341.941 c 2
 735.137 159.392 l 2
 815.546 92.3838 879.982 26.1953 928.445 -39.1748 c 0
 954.695 -74.5898 978.425 -103.532 999.635 -126 c 1
 912.814 -125.227 l 1
 878.51 -54.3477 835.328 6.52832 783.271 57.4004 c 0
 738.835 100.818 689.929 144.721 636.552 189.108 c 2
 564.197 251.247 l 2
 498.394 308.336 458.516 343.803 444.561 357.649 c 0
 410.282 391.668 378.736 429.742 349.921 471.869 c 0
 348.325 474.202 346.803 476.988 345.355 480.227 c 1
 344.573 478.83 343.799 477.54 343.033 476.357 c 1
 348.14 463.667 l 1
 348.76 462.506 l 2
 364.657 423.753 377.425 398.525 387.065 386.823 c 1
 339.087 444.708 l 1
 341.177 439.136 l 2
 350.795 412.562 358.12 378.461 363.153 336.834 c 1
 359.257 331.413 356.032 327.363 353.479 324.685 c 1
 352.529 319.714 352.22 315.561 352.552 312.226 c 1
 351.185 311.064 349.104 309.699 346.309 308.13 c 128
 343.515 306.56 341.83 305.501 341.254 304.952 c 1
 344.311 301.198 346.633 294.466 348.218 284.755 c 1
 341.807 282.5 336.828 279.533 333.283 275.855 c 1
 332.044 271.132 327.969 265.767 321.056 259.76 c 1
 320.576 264.358 317.61 270.084 312.157 276.938 c 1
 309.15 274.276 305.642 272.986 301.633 273.069 c 1
 301.448 275.636 300.052 279.787 297.446 285.521 c 128
 294.84 291.256 293.475 294.302 293.352 294.66 c 1
 289.215 295.515 284.959 297.192 280.585 299.689 c 1
 281.09 310.966 280.161 320.562 277.799 328.477 c 1
 273.946 329.386 269.122 329.206 263.328 327.935 c 1
 266.234 337.235 269.742 344.638 273.852 350.145 c 1
 258.375 351.228 l 1
 258.376 351.269 258.315 356.281 258.19 366.264 c 128
 258.065 376.247 258.488 381.398 259.459 381.717 c 1
 258.037 382.976 255.844 384.585 252.88 386.544 c 128
 249.915 388.503 247.49 390.222 245.606 391.699 c 1
 249.541 397.165 251.553 402.35 251.642 407.253 c 1
 235.547 432.713 l 1
 242.082 440.368 245.513 453.317 245.839 471.56 c 1
 250.625 483.624 254.675 491.646 257.988 495.626 c 1
 257.623 497.195 254.089 505.785 247.386 521.396 c 1
 248.932 528.963 249.886 538.429 250.249 549.794 c 1
 236.475 557.301 l 1
 239.81 546.363 243.06 538.083 246.225 532.461 c 1
 236.781 542.681 229.456 552.87 224.249 563.027 c 1
 233.632 535.453 238.352 521.602 238.411 521.473 c 1
 235.313 526.639 232.604 531.385 230.285 535.711 c 1
 231.239 527.881 231.032 520.246 229.665 512.805 c 1
 225.784 511.078 222.586 508.86 220.07 506.149 c 1
 220.099 505.939 220.15 505.62 220.223 505.191 c 128
 220.298 504.762 220.351 504.438 220.38 504.215 c 1
 220.288 504.503 220.288 504.503 220.106 505.037 c 128
 219.984 505.393 219.895 505.661 219.839 505.841 c 1
 215.219 500.739 212.407 497.901 211.403 497.328 c 1
 211.153 493.122 213.519 485.057 218.501 473.133 c 128
 223.481 461.209 226.094 452.817 226.339 447.957 c 1
 226.258 447.891 224.231 446.033 220.257 442.383 c 128
 216.282 438.732 213.15 436.334 210.861 435.189 c 1
 211.273 431.767 211.396 428.75 211.231 426.138 c 128
 211.066 423.526 211.189 420.511 211.598 417.092 c 128
 212.009 413.672 212.873 410.47 214.189 407.485 c 1
 214.164 407.48 211.833 406.407 207.196 404.268 c 128
 202.559 402.129 198.596 401.705 195.307 402.997 c 1
 192.603 401.972 189.546 399.622 186.136 395.948 c 0
 184.417 394.096 183.063 392.757 182.074 391.932 c 1
 183.938 387.827 185.269 383.369 186.068 378.56 c 128
 186.866 373.749 187.465 368.369 187.866 362.419 c 128
 188.266 356.469 188.734 351.887 189.271 348.674 c 1
 179.83 355.87 l 1
 178.61 351.592 178.18 345.291 178.541 336.967 c 128
 178.902 328.642 178.404 323.103 177.045 320.351 c 1
 165.979 328.708 l 1
 173.794 313.696 l 1
 165.436 309.827 l 1
 165.407 309.792 163.009 304.814 158.24 294.892 c 1
 156.948 294.739 155.285 295.19 153.251 296.247 c 128
 151.217 297.304 149.553 297.755 148.258 297.6 c 1
 148.239 297.379 148.034 295.734 147.645 292.666 c 128
 147.256 289.598 147.099 287.09 147.174 285.142 c 1
 142.224 284.416 138.329 284.7 135.489 285.993 c 1
 133.88 295.428 130.733 304.662 126.048 313.696 c 1
 126.046 313.682 125.424 310.827 124.182 305.131 c 128
 122.939 299.435 122.633 294.887 123.262 291.486 c 1
 121.268 292.881 119.717 295.634 118.61 299.746 c 128
 117.502 303.857 116.293 306.65 114.983 308.124 c 1
 110.122 301.851 107.723 296.486 107.786 292.029 c 1
 105.712 295.104 103.755 299.955 101.915 306.583 c 128
 100.074 313.21 98.3174 317.981 96.6416 320.894 c 1
 89.9883 308.124 l 1
 89.2754 314.851 89.71 324.339 91.293 336.586 c 128
 92.876 348.833 93.5488 356.912 93.3145 360.823 c 1
 93.2832 360.845 92.4111 361.705 90.6973 363.404 c 128
 88.9834 365.102 87.2764 366.099 85.5771 366.396 c 1
 88.0039 379.591 93.4717 393.365 101.982 407.718 c 1
 101.986 407.763 101.986 407.789 101.982 407.796 c 0
 100.667 409.897 98.7412 412.627 96.2061 415.984 c 128
 93.6709 419.342 91.959 421.668 91.0713 422.962 c 1
 94.3799 410.487 96.0312 404.193 96.0244 404.081 c 1
 84.416 418.552 l 1
 84.415 418.526 84.4951 413.861 84.6553 404.557 c 128
 84.8164 395.253 84.375 390.658 83.333 390.771 c 1
 80.0176 397.134 76.123 402.68 71.6475 407.407 c 1
 73.8242 398.872 76.79 391.495 80.5469 385.276 c 1
 80.4141 385.399 77.8535 387.485 72.8652 391.534 c 128
 67.875 395.582 64.5029 399.016 62.749 401.837 c 1
 70.0225 373.591 l 1
 63.9092 385.818 l 1
 66.0137 377.614 67.124 370.211 67.2373 363.608 c 1
 63.5322 370.76 59.0957 377.415 53.9268 383.574 c 1
 53.7139 377.278 54.2812 371.164 55.6289 365.233 c 1
 42.2422 380.788 l 1
 51.6816 355.87 l 1
 37.2891 370.264 l 1
 36.4658 361.41 37.2139 352.537 39.5332 343.645 c 1
 38.2461 345.704 35.9932 348.228 32.7764 351.217 c 128
 29.5566 354.204 27.373 356.658 26.2227 358.579 c 1
 25.1543 350.686 23.4766 344.598 21.1924 340.316 c 1
 13.4551 355.251 l 1
 13.2236 351.471 13.2969 345.1 13.6748 336.137 c 128
 14.0518 327.174 13.9775 320.803 13.4551 317.024 c 1
 6.7998 325.304 l 1
 5.1748 312.535 l 1
 1.39355 319.889 -0.825195 327.653 -1.48145 335.828 c 1
 2.09375 362.141 11.1221 390.438 25.6035 420.719 c 0
 30.2793 430.495 40.5791 445.901 56.5049 466.938 c 128
 72.4297 487.972 84.8555 503.081 93.7803 512.264 c 0
 108.927 527.851 125.642 543.688 143.925 559.777 c 1
 146.134 565.364 148.481 570.343 150.966 574.712 c 1
 148.873 576.795 147.376 578.446 146.477 579.665 c 1
 144.762 578.972 142.983 578.378 141.138 577.885 c 1
 142.207 579.685 143.316 581.413 144.466 583.069 c 1
 143.606 584.974 143.038 586.96 142.762 589.028 c 1
 139.127 586.629 l 1
 138.808 586.168 136.698 583.502 132.796 578.631 c 128
 128.894 573.758 126.413 569.924 125.352 567.129 c 1
 125.253 570.015 125.253 570.015 125.077 575.562 c 128
 124.96 579.262 124.871 581.997 124.81 583.767 c 1
 117.423 572.315 112.058 560.294 108.715 547.705 c 1
 108.713 547.72 107.692 552.078 105.652 560.777 c 128
 103.613 569.479 102.776 576.212 103.142 580.981 c 1
 102.111 576.716 99.5479 571.3 95.4541 564.733 c 128
 91.3613 558.166 88.7646 553.057 87.667 549.407 c 1
 87.75 556.621 89.2197 565.494 92.0771 576.027 c 1
 76.0576 542.211 l 1
 76.0557 545.504 76.043 550.407 76.0186 556.919 c 128
 75.9961 563.431 75.9834 568.305 75.9814 571.54 c 1
 67.2754 559.354 61.3682 548.262 58.2598 538.265 c 1
 56.541 548.688 56.541 556.271 58.2598 561.016 c 1
 46.1895 548.285 38.6055 536.831 35.5088 526.656 c 1
 29.4717 550.491 l 1
 19.3379 539.656 12.2959 530.964 8.34668 524.413 c 1
 6.46875 530.24 6.1084 538.546 7.26367 549.33 c 1
 5.39258 546.02 3.16211 540.849 0.571289 533.816 c 128
 -2.01953 526.784 -4.22461 521.612 -6.0459 518.299 c 1
 -6.39453 525.857 -5.64746 533.983 -3.80176 542.676 c 1
 -17.6533 509.4 l 1
 -18.75 516.899 -18.208 525.231 -16.0283 534.396 c 1
 -23.6807 524.581 -29.0459 516.249 -32.124 509.4 c 1
 -34.9102 533.776 l 1
 -36.0381 530.33 -36.9062 526.638 -37.5156 522.7 c 128
 -38.125 518.761 -38.6562 514.376 -39.1084 509.543 c 128
 -39.5615 504.711 -39.9932 500.975 -40.4043 498.335 c 1
 -43.9238 504.327 -45.9609 510.053 -46.5176 515.514 c 1
 -50.5234 509.515 -52.7422 502.679 -53.1729 495.007 c 1
 -55.7725 505.885 -56.1328 516.048 -54.2559 525.496 c 1
 -54.3477 525.279 -58.6045 510.679 -67.0244 481.696 c 1
 -68.2178 502.369 -70.0752 515.112 -72.5967 519.925 c 1
 -73.4219 516.764 -74.6191 510.841 -76.1895 502.156 c 128
 -77.7598 493.471 -78.9092 488.199 -79.6377 486.34 c 1
 -80.0889 489.231 -80.3809 493.332 -80.5156 498.643 c 128
 -80.6504 503.954 -80.7705 507.359 -80.876 508.859 c 1
 -88.6035 490.425 -92.499 481.164 -92.5615 481.077 c 1
 -89.7754 503.287 l 1
 -91.4639 500.794 -92.7979 497.883 -93.7773 494.554 c 128
 -94.7568 491.225 -95.6406 487.413 -96.4277 483.12 c 128
 -97.2168 478.826 -97.9395 475.566 -98.5977 473.339 c 1
 -98.1592 476.818 -98.3057 482.166 -99.0371 489.385 c 128
 -99.7695 496.604 -99.8291 502.166 -99.2168 506.072 c 1
 -97.0312 510.663 -88.7383 520.408 -74.3369 535.307 c 128
 -59.9346 550.204 -46.6123 562.101 -34.3682 570.998 c 0
 -6.34668 591.357 32.4482 607.092 82.0166 618.203 c 1
 80.8701 620.312 79.6641 623.569 78.3994 627.971 c 128
 77.1348 632.372 75.7607 635.745 74.2783 638.09 c 1
 72.499 636.806 70.1943 634.26 67.3623 630.451 c 128
 64.5312 626.642 62.0391 624.03 59.8848 622.613 c 1
 59.5742 623.94 59.1875 625.333 58.7236 626.792 c 1
 48.4111 619.17 36.7783 611.844 23.8252 604.814 c 1
 37.1338 621.452 l 1
 15.002 615.339 l 1
 25.5273 638.09 l 1
 3.85938 623.696 l 1
 16.0859 639.715 l 1
 13.0186 638.36 7.32812 635.206 -0.988281 630.252 c 128
 -9.30371 625.299 -15.9941 621.979 -21.0586 620.292 c 1
 -11.0752 630.894 l 1
 -29.416 624.237 l 1
 -32.083 625.905 -35.248 628.893 -38.9111 633.201 c 128
 -42.5742 637.508 -46.0645 640.969 -49.3809 643.584 c 1
 -33.958 651.68 -10.8721 660.192 19.8779 669.121 c 1
 23.4873 675.192 27.7676 680.197 32.7227 684.134 c 1
 23.5518 686.396 15.04 687.324 7.18652 686.919 c 1
 16.7402 693.35 32.3779 699.351 54.1006 704.923 c 128
 75.8242 710.496 97.7422 712.981 119.857 712.378 c 0
 122.858 712.297 126.521 711.987 130.846 711.45 c 1
 128.204 713.406 125.857 715.031 123.804 716.325 c 1
 131.283 724.513 136.133 729.543 138.352 731.415 c 1
 136.474 730.866 133.051 729.235 128.082 726.52 c 128
 123.114 723.804 118.309 722.495 113.667 722.593 c 1
 110.648 729.212 107.734 737.467 104.923 747.356 c 1
 100.002 747.567 93.3213 747.18 84.8799 746.196 c 1
 84.7227 746.831 83.1748 753.796 80.2373 767.09 c 1
 78.3643 768.793 74.9141 769.259 69.8848 768.488 c 128
 64.8564 767.717 61.6523 767.535 60.2715 767.94 c 1
 60.7949 773.383 61.543 777.794 62.5146 781.174 c 1
 67.8467 785.359 74.3477 788.144 82.0166 789.531 c 1
 82.8682 792.398 83.8232 796.112 84.8799 800.674 c 1
 85.1514 800.547 94.9824 798.035 114.375 793.136 c 128
 133.767 788.236 147.357 783.01 155.144 777.459 c 1
 156.04 768.277 156.84 761.622 157.544 757.493 c 1
 158.244 759.084 158.882 761.333 159.459 764.239 c 128
 160.035 767.146 160.557 769.205 161.026 770.416 c 1
 161.955 769.828 165.461 768.485 171.544 766.387 c 128
 177.626 764.288 181.446 762.511 183.003 761.054 c 1
 180.632 757.097 179.058 753.692 178.283 750.839 c 1
 181.9 754.37 184.505 756.588 186.098 757.493 c 1
 191.261 754.45 201.052 745.612 215.469 730.98 c 128
 229.887 716.349 239.365 707.156 243.904 703.402 c 1
 244.911 702.628 l 2
 246.684 701.2 248 700.194 248.857 699.61 c 1
 244.601 722.979 l 1
 247.272 725.422 251.28 726.763 256.625 727.001 c 0
 259.294 727.119 261.296 727.352 262.631 727.701 c 1
 262.392 746.023 261.335 757.527 259.459 762.214 c 1
 264.216 765.184 268.714 766.68 272.953 766.703 c 128
 277.191 766.724 281.592 766.26 286.156 765.31 c 1
 288.261 770.154 292.858 776.329 299.946 783.835 c 128
 307.033 791.342 311.31 796.955 312.776 800.674 c 1
 323.266 803.192 331.004 804.456 335.991 804.466 c 0
EndSplineSet
Validated: 41
EndChar

StartChar: Q
Encoding: 81 81 48
Width: 900
Flags: HW
LayerCount: 2
Fore
SplineSet
640.5 327 m 0
 640.5 299 628.167 285 603.5 285 c 0
 597.5 285 591 285.5 584 286.5 c 128
 577 287.5 572.833 288 571.5 288 c 0
 555.5 288 547.5 276.333 547.5 253 c 0
 547.5 246.333 547.667 242.167 548 240.5 c 128
 548.333 238.833 548.5 236.333 548.5 233 c 0
 548.5 205.667 537.833 192 516.5 192 c 0
 513.833 192 508 193.333 499 196 c 128
 490 198.667 483.167 200 478.5 200 c 0
 465.833 200 459.5 190.333 459.5 171 c 2
 460.5 160 l 2
 461.167 152.667 461.5 146.667 461.5 142 c 0
 461.5 114.667 449.5 101 425.5 101 c 0
 422.167 101 416.333 102.333 408 105 c 128
 399.667 107.667 393.833 109 390.5 109 c 0
 374.5 109 366.5 100.333 366.5 83 c 0
 366.5 76.333 367 69.333 368 62 c 128
 369 54.667 369.5 50.333 369.5 49 c 0
 369.5 25.667 357.5 14 333.5 14 c 0
 326.167 14 319.667 14.5 314 15.5 c 128
 308.333 16.5 304.167 17 301.5 17 c 0
 285.5 17 277.5 5 277.5 -19 c 1
 265.5 -14.333 259.5 -4 259.5 12 c 0
 259.5 40 271.167 54 294.5 54 c 0
 296.5 54 302 53.333 311 52 c 128
 320 50.667 325.5 50 327.5 50 c 0
 344.167 50 352.5 56.667 352.5 70 c 0
 352.5 72.667 352.333 78.5 352 87.5 c 128
 351.667 96.5 351.5 103.333 351.5 108 c 0
 351.5 132.667 361.833 145 382.5 145 c 0
 387.167 145 393.333 143.833 401 141.5 c 128
 408.667 139.167 414.833 138 419.5 138 c 0
 434.167 138 441.5 147 441.5 165 c 0
 441.5 168.333 441.333 172.167 441 176.5 c 128
 440.667 180.833 440.5 189.333 440.5 202 c 0
 440.5 225.333 450.5 237 470.5 237 c 0
 474.5 237 481 235.667 490 233 c 128
 499 230.333 504.5 229 506.5 229 c 0
 517.833 229 525.5 234.667 529.5 246 c 0
 530.167 248.667 530.5 259 530.5 277 c 0
 530.5 309 542.167 325 565.5 325 c 0
 567.5 325 573 324.333 582 323 c 128
 591 321.667 596.5 321 598.5 321 c 0
 613.833 321 621.5 334.667 621.5 362 c 1
 634.167 353.333 640.5 341.667 640.5 327 c 0
EndSplineSet
Validated: 1
EndChar

StartChar: R
Encoding: 82 82 49
Width: 900
Flags: HW
LayerCount: 2
Fore
SplineSet
437 58 m 1
 437 63 l 1
 442 63 l 1
 446 63 l 1
 446 58 l 1
 446 54 l 1
 442 54 l 1
 437 54 l 1
 437 58 l 1
314 71 m 1
 314 79 l 1
 296 79 l 1
 279 79 l 1
 279 87 l 1
 279 95 l 1
 271 95 l 1
 263 95 l 1
 263 104 l 1
 263 114 l 1
 255 114 l 1
 247 114 l 1
 247 104 l 1
 247 95 l 1
 243 95 l 1
 238 95 l 1
 238 99 l 1
 238 104 l 1
 233 104 l 1
 228 104 l 1
 228 112 l 1
 228 120 l 1
 217 120 l 1
 206 120 l 1
 206 128 l 1
 206 136 l 1
 202 136 l 1
 197 136 l 1
 197 132 l 1
 197 129 l 1
 192 129 l 1
 187 129 l 1
 187 137 l 1
 187 145 l 1
 179 145 l 1
 172 145 l 1
 172 140 l 1
 172 136 l 1
 167 136 l 1
 162 136 l 1
 162 140 l 1
 162 145 l 1
 154 145 l 1
 146 145 l 1
 146 150 l 1
 146 155 l 1
 142 155 l 1
 137 155 l 1
 137 164 l 1
 131 164 l 1
 131 159 l 1
 115 159 l 1
 115 170 l 1
 110 170 l 1
 105 170 l 1
 105 175 l 1
 105 180 l 1
 100 180 l 1
 96 180 l 1
 96 175 l 1
 96 170 l 1
 100 170 l 1
 105 170 l 1
 105 166 l 1
 105 161 l 1
 100 161 l 1
 96 161 l 1
 96 166 l 1
 96 170 l 1
 93 170 l 1
 89 170 l 1
 89 175 l 1
 89 180 l 1
 77 180 l 1
 64 180 l 1
 64 183 l 1
 64 186 l 1
 47 186 l 1
 29 186 l 1
 29 191 l 1
 29 196 l 1
 17 196 l 1
 4 196 l 1
 4 204 l 1
 4 211 l 1
 1 211 l 1
 -2 211 l 1
 -2 216 l 1
 -2 221 l 1
 -7 221 l 1
 -12 221 l 1
 -12 224 l 1
 -12 227 l 1
 -16 227 l 1
 -21 227 l 1
 -21 240 l 1
 -21 253 l 1
 -24 253 l 1
 -27 253 l 1
 -27 257 l 1
 -27 262 l 1
 -24 262 l 1
 -21 262 l 1
 -21 275 l 1
 -21 287 l 1
 -24 287 l 1
 -27 287 l 1
 -27 300 l 1
 -27 313 l 1
 -24 313 l 1
 -21 313 l 1
 -21 325 l 1
 -21 338 l 1
 -16 338 l 1
 -12 338 l 1
 -12 341 l 1
 -12 344 l 1
 -7 344 l 1
 -2 344 l 1
 -2 360 l 1
 -2 376 l 1
 6 376 l 1
 13 376 l 1
 13 385 l 1
 13 398 l 1
 13 410 l 1
 22 410 l 1
 29 410 l 1
 29 420 l 1
 29 429 l 1
 34 429 l 1
 39 429 l 1
 39 442 l 1
 39 455 l 1
 47 455 l 1
 55 455 l 1
 55 463 l 1
 55 470 l 1
 58 470 l 1
 69 470 l 1
 69 480 l 1
 69 488 l 1
 69 496 l 1
 75 496 l 1
 80 496 l 1
 80 491 l 1
 80 486 l 1
 85 486 l 1
 89 486 l 1
 89 499 l 1
 89 512 l 1
 93 512 l 1
 96 512 l 1
 96 516 l 1
 96 521 l 1
 100 521 l 1
 105 521 l 1
 105 529 l 1
 105 537 l 1
 118 537 l 1
 131 537 l 1
 135 537 l 1
 135 552 l 1
 140 552 l 1
 148 552 l 1
 156 552 l 1
 156 561 l 1
 156 568 l 1
 172 568 l 1
 187 568 l 1
 187 578 l 1
 187 587 l 1
 205 587 l 1
 222 587 l 1
 222 595 l 1
 222 603 l 1
 225 603 l 1
 228 603 l 1
 228 608 l 1
 228 613 l 1
 238 613 l 1
 247 613 l 1
 247 608 l 1
 247 603 l 1
 255 603 l 1
 263 603 l 1
 263 611 l 1
 263 619 l 1
 279 619 l 1
 295 619 l 1
 295 624 l 1
 295 628 l 1
 300 628 l 1
 304 628 l 1
 304 624 l 1
 304 619 l 1
 312 619 l 1
 320 619 l 1
 320 616 l 1
 320 613 l 1
 325 613 l 1
 330 613 l 1
 330 608 l 1
 330 603 l 1
 334 603 l 1
 339 603 l 1
 339 591 l 1
 339 578 l 1
 330 578 l 1
 320 578 l 1
 320 583 l 1
 320 587 l 1
 317 587 l 1
 314 587 l 1
 314 570 l 1
 314 553 l 1
 317 553 l 1
 320 553 l 1
 320 557 l 1
 320 562 l 1
 325 562 l 1
 330 562 l 1
 330 554 l 1
 330 546 l 1
 334 546 l 1
 334 552 l 1
 342 552 l 1
 345 552 l 1
 345 562 l 1
 345 568 l 1
 350 568 l 1
 355 568 l 1
 355 565 l 1
 355 562 l 1
 367 562 l 1
 380 562 l 1
 380 557 l 1
 380 553 l 1
 388 553 l 1
 396 553 l 1
 396 549 l 1
 396 546 l 1
 391 546 l 1
 386 546 l 1
 386 524 l 1
 386 502 l 1
 391 502 l 1
 396 502 l 1
 396 519 l 1
 396 537 l 1
 401 537 l 1
 405 537 l 1
 405 532 l 1
 405 527 l 1
 446 527 l 1
 487 527 l 1
 487 519 l 1
 487 512 l 1
 492 512 l 1
 497 512 l 1
 497 528 l 1
 513 528 l 1
 513 519 l 1
 513 512 l 1
 508 512 l 1
 503 512 l 1
 503 507 l 1
 503 502 l 1
 508 502 l 1
 513 502 l 1
 513 507 l 1
 513 512 l 1
 533 512 l 1
 554 512 l 1
 554 507 l 1
 554 502 l 1
 569 502 l 1
 569 485 l 1
 569 477 l 1
 579 477 l 1
 589 477 l 1
 589 486 l 1
 589 496 l 1
 592 496 l 1
 595 496 l 1
 595 491 l 1
 595 486 l 1
 603 486 l 1
 611 486 l 1
 611 482 l 1
 611 477 l 1
 620 477 l 1
 630 477 l 1
 630 482 l 1
 630 486 l 1
 633 486 l 1
 636 486 l 1
 636 470 l 1
 636 455 l 1
 641 455 l 1
 645 455 l 1
 645 463 l 1
 645 470 l 1
 653 470 l 1
 661 470 l 1
 661 474 l 1
 661 477 l 1
 666 477 l 1
 671 477 l 1
 671 474 l 1
 671 470 l 1
 675 470 l 1
 680 470 l 1
 680 466 l 1
 680 461 l 1
 675 461 l 1
 671 461 l 1
 671 453 l 1
 671 445 l 1
 679 445 l 1
 686 445 l 1
 686 450 l 1
 686 455 l 1
 699 455 l 1
 712 455 l 1
 712 442 l 1
 712 429 l 1
 727 429 l 1
 727 442 l 1
 727 445 l 1
 732 445 l 1
 737 445 l 1
 737 433 l 1
 737 420 l 1
 742 420 l 1
 746 420 l 1
 746 425 l 1
 746 429 l 1
 750 429 l 1
 753 429 l 1
 753 420 l 1
 753 410 l 1
 761 410 l 1
 769 410 l 1
 769 407 l 1
 769 404 l 1
 773 404 l 1
 778 404 l 1
 778 407 l 1
 778 410 l 1
 786 410 l 1
 794 410 l 1
 794 407 l 1
 794 404 l 1
 799 404 l 1
 803 404 l 1
 803 399 l 1
 803 395 l 1
 808 395 l 1
 813 395 l 1
 813 382 l 1
 813 369 l 1
 821 369 l 1
 829 369 l 1
 829 357 l 1
 829 344 l 1
 833 344 l 1
 838 344 l 1
 838 341 l 1
 838 338 l 1
 833 338 l 1
 829 338 l 1
 829 341 l 1
 829 344 l 1
 816 344 l 1
 803 344 l 1
 803 341 l 1
 803 338 l 1
 816 338 l 1
 829 338 l 1
 829 325 l 1
 829 313 l 1
 824 313 l 1
 820 313 l 1
 820 308 l 1
 820 303 l 1
 829 303 l 1
 838 303 l 1
 838 320 l 1
 838 338 l 1
 841 338 l 1
 844 338 l 1
 844 346 l 1
 844 354 l 1
 849 354 l 1
 854 354 l 1
 854 341 l 1
 854 328 l 1
 849 328 l 1
 844 328 l 1
 844 320 l 1
 844 313 l 1
 862 313 l 1
 879 313 l 1
 886 313 l 1
 886 297 l 1
 895 297 l 1
 895 284 l 1
 895 271 l 1
 890 271 l 1
 885 271 l 1
 885 275 l 1
 885 278 l 1
 878 278 l 1
 870 278 l 1
 870 275 l 1
 870 271 l 1
 865 271 l 1
 860 271 l 1
 860 267 l 1
 860 262 l 1
 852 262 l 1
 844 262 l 1
 844 267 l 1
 844 271 l 1
 853 271 l 1
 853 284 l 1
 853 287 l 1
 851 287 l 1
 848 287 l 1
 848 283 l 1
 848 278 l 1
 844 278 l 1
 838 278 l 1
 838 269 l 1
 838 261 l 1
 838 253 l 1
 849 253 l 1
 860 253 l 1
 860 249 l 1
 860 246 l 1
 865 246 l 1
 870 246 l 1
 870 241 l 1
 870 237 l 1
 857 237 l 1
 844 237 l 1
 844 232 l 1
 844 227 l 1
 849 227 l 1
 854 227 l 1
 854 224 l 1
 854 221 l 1
 849 221 l 1
 844 221 l 1
 844 218 l 1
 844 204 l 1
 814 204 l 1
 814 227 l 1
 821 227 l 1
 829 227 l 1
 829 224 l 1
 829 221 l 1
 833 221 l 1
 838 221 l 1
 838 229 l 1
 838 237 l 1
 829 237 l 1
 819 237 l 1
 819 241 l 1
 819 246 l 1
 816 246 l 1
 814 246 l 1
 814 237 l 1
 814 227 l 1
 808 227 l 1
 803 227 l 1
 803 207 l 1
 803 186 l 1
 795 186 l 1
 788 186 l 1
 788 183 l 1
 788 180 l 1
 783 180 l 1
 778 180 l 1
 778 188 l 1
 778 196 l 1
 773 196 l 1
 769 196 l 1
 769 200 l 1
 769 205 l 1
 758 205 l 1
 746 205 l 1
 746 196 l 1
 746 186 l 1
 742 186 l 1
 737 186 l 1
 737 183 l 1
 737 180 l 1
 745 180 l 1
 753 180 l 1
 753 170 l 1
 753 161 l 1
 740 161 l 1
 728 161 l 1
 728 166 l 1
 728 170 l 1
 724 170 l 1
 721 170 l 1
 721 166 l 1
 721 161 l 1
 716 161 l 1
 712 161 l 1
 712 158 l 1
 712 155 l 1
 707 155 l 1
 702 155 l 1
 702 150 l 1
 702 145 l 1
 691 145 l 1
 680 145 l 1
 680 150 l 1
 680 155 l 1
 675 155 l 1
 671 155 l 1
 671 150 l 1
 671 145 l 1
 653 145 l 1
 636 145 l 1
 636 137 l 1
 636 129 l 1
 641 129 l 1
 645 129 l 1
 645 132 l 1
 645 136 l 1
 649 136 l 1
 661 136 l 1
 661 123 l 1
 661 120 l 1
 658 120 l 1
 655 120 l 1
 655 125 l 1
 655 129 l 1
 650 129 l 1
 645 129 l 1
 645 121 l 1
 645 114 l 1
 641 114 l 1
 636 114 l 1
 636 109 l 1
 636 104 l 1
 641 104 l 1
 645 104 l 1
 645 96 l 1
 645 88 l 1
 641 88 l 1
 636 88 l 1
 636 96 l 1
 636 104 l 1
 633 104 l 1
 630 104 l 1
 630 117 l 1
 630 129 l 1
 625 129 l 1
 620 129 l 1
 620 125 l 1
 620 120 l 1
 615 120 l 1
 611 120 l 1
 611 99 l 1
 611 79 l 1
 608 79 l 1
 604 79 l 1
 604 87 l 1
 604 95 l 1
 587 95 l 1
 570 95 l 1
 570 91 l 1
 570 88 l 1
 562 88 l 1
 554 88 l 1
 554 84 l 1
 554 79 l 1
 546 79 l 1
 538 79 l 1
 538 84 l 1
 538 88 l 1
 525 88 l 1
 513 88 l 1
 513 91 l 1
 513 95 l 1
 508 95 l 1
 503 95 l 1
 503 99 l 1
 503 104 l 1
 500 104 l 1
 497 104 l 1
 497 112 l 1
 497 120 l 1
 492 120 l 1
 487 120 l 1
 487 117 l 1
 487 114 l 1
 483 114 l 1
 478 114 l 1
 478 109 l 1
 478 104 l 1
 475 104 l 1
 472 104 l 1
 472 99 l 1
 472 95 l 1
 459 95 l 1
 446 95 l 1
 446 91 l 1
 446 88 l 1
 487 88 l 1
 487 84 l 1
 487 79 l 1
 492 79 l 1
 497 79 l 1
 497 74 l 1
 497 69 l 1
 492 69 l 1
 487 69 l 1
 487 66 l 1
 487 63 l 1
 480 63 l 1
 472 63 l 1
 472 66 l 1
 472 69 l 1
 480 69 l 1
 487 69 l 1
 487 74 l 1
 487 79 l 1
 475 79 l 1
 462 79 l 1
 462 74 l 1
 462 69 l 1
 457 69 l 1
 453 69 l 1
 453 74 l 1
 453 79 l 1
 445 79 l 1
 437 79 l 1
 437 74 l 1
 437 69 l 1
 434 69 l 1
 431 69 l 1
 431 74 l 1
 431 79 l 1
 426 79 l 1
 421 79 l 1
 421 74 l 1
 421 69 l 1
 416 69 l 1
 412 69 l 1
 412 74 l 1
 412 79 l 1
 408 79 l 1
 405 79 l 1
 405 99 l 1
 405 120 l 1
 396 120 l 1
 386 120 l 1
 386 112 l 1
 386 104 l 1
 391 104 l 1
 396 104 l 1
 396 99 l 1
 396 95 l 1
 388 95 l 1
 380 95 l 1
 380 91 l 1
 380 88 l 1
 388 88 l 1
 396 88 l 1
 396 84 l 1
 396 79 l 1
 401 79 l 1
 405 79 l 1
 405 74 l 1
 405 69 l 1
 396 69 l 1
 386 69 l 1
 386 74 l 1
 386 79 l 1
 378 79 l 1
 371 79 l 1
 371 87 l 1
 371 95 l 1
 363 95 l 1
 355 95 l 1
 355 91 l 1
 355 88 l 1
 350 88 l 1
 345 88 l 1
 345 84 l 1
 345 79 l 1
 342 79 l 1
 339 79 l 1
 339 74 l 1
 339 69 l 1
 334 69 l 1
 330 69 l 1
 330 74 l 1
 330 79 l 1
 325 79 l 1
 320 79 l 1
 320 71 l 1
 320 63 l 1
 317 63 l 1
 314 63 l 1
 314 71 l 1
295 88 m 1
 295 95 l 1
 300 95 l 1
 304 95 l 1
 304 99 l 1
 304 104 l 1
 309 104 l 1
 314 104 l 1
 314 112 l 1
 314 120 l 1
 309 120 l 1
 304 120 l 1
 304 117 l 1
 304 114 l 1
 300 114 l 1
 295 114 l 1
 295 109 l 1
 295 104 l 1
 292 104 l 1
 288 104 l 1
 288 96 l 1
 288 88 l 1
 292 88 l 1
 295 88 l 1
431 91 m 1
 431 95 l 1
 426 95 l 1
 421 95 l 1
 421 91 l 1
 421 88 l 1
 426 88 l 1
 431 88 l 1
 431 91 l 1
570 99 m 1
 570 104 l 1
 562 104 l 1
 554 104 l 1
 554 99 l 1
 554 95 l 1
 562 95 l 1
 570 95 l 1
 570 99 l 1
453 109 m 1
 453 114 l 1
 450 114 l 1
 446 114 l 1
 446 109 l 1
 446 104 l 1
 450 104 l 1
 453 104 l 1
 453 109 l 1
522 109 m 1
 522 114 l 1
 517 114 l 1
 513 114 l 1
 513 109 l 1
 513 104 l 1
 517 104 l 1
 522 104 l 1
 522 109 l 1
595 117 m 1
 595 129 l 1
 592 129 l 1
 589 129 l 1
 589 117 l 1
 589 104 l 1
 592 104 l 1
 595 104 l 1
 595 117 l 1
487 125 m 1
 487 129 l 1
 483 129 l 1
 478 129 l 1
 478 125 l 1
 478 120 l 1
 483 120 l 1
 487 120 l 1
 487 125 l 1
554 150 m 1
 554 155 l 1
 549 155 l 1
 544 155 l 1
 544 150 l 1
 544 145 l 1
 549 145 l 1
 554 145 l 1
 554 150 l 1
405 166 m 1
 405 170 l 1
 418 170 l 1
 431 170 l 1
 431 166 l 1
 431 161 l 1
 454 161 l 1
 478 161 l 1
 478 166 l 1
 478 170 l 1
 487 170 l 1
 497 170 l 1
 497 166 l 1
 497 161 l 1
 513 161 l 1
 529 161 l 1
 529 166 l 1
 529 170 l 1
 536 170 l 1
 544 170 l 1
 544 178 l 1
 544 186 l 1
 538 186 l 1
 538 180 l 1
 530 180 l 1
 522 180 l 1
 522 183 l 1
 522 186 l 1
 517 186 l 1
 513 186 l 1
 513 183 l 1
 513 180 l 1
 487 180 l 1
 462 180 l 1
 462 183 l 1
 462 186 l 1
 467 186 l 1
 472 186 l 1
 472 191 l 1
 472 196 l 1
 480 196 l 1
 487 196 l 1
 487 191 l 1
 487 186 l 1
 495 186 l 1
 503 186 l 1
 503 196 l 1
 503 205 l 1
 508 205 l 1
 513 205 l 1
 513 208 l 1
 513 211 l 1
 521 211 l 1
 529 211 l 1
 529 216 l 1
 529 221 l 1
 533 221 l 1
 538 221 l 1
 538 213 l 1
 538 205 l 1
 541 205 l 1
 544 205 l 1
 544 200 l 1
 544 196 l 1
 549 196 l 1
 554 196 l 1
 554 204 l 1
 554 211 l 1
 549 211 l 1
 544 211 l 1
 544 216 l 1
 544 221 l 1
 554 221 l 1
 563 221 l 1
 563 213 l 1
 563 205 l 1
 570 205 l 1
 570 211 l 1
 574 211 l 1
 579 211 l 1
 579 216 l 1
 579 221 l 1
 587 221 l 1
 595 221 l 1
 595 224 l 1
 595 227 l 1
 600 227 l 1
 604 227 l 1
 604 232 l 1
 604 237 l 1
 608 237 l 1
 611 237 l 1
 611 245 l 1
 611 253 l 1
 615 253 l 1
 620 253 l 1
 620 245 l 1
 620 237 l 1
 625 237 l 1
 630 237 l 1
 630 241 l 1
 630 246 l 1
 638 246 l 1
 645 246 l 1
 645 249 l 1
 645 253 l 1
 653 253 l 1
 661 253 l 1
 661 262 l 1
 661 271 l 1
 666 271 l 1
 671 271 l 1
 671 262 l 1
 671 253 l 1
 675 253 l 1
 680 253 l 1
 680 262 l 1
 680 271 l 1
 688 271 l 1
 696 271 l 1
 696 275 l 1
 696 278 l 1
 709 278 l 1
 721 278 l 1
 721 283 l 1
 721 287 l 1
 716 287 l 1
 712 287 l 1
 712 292 l 1
 712 297 l 1
 696 297 l 1
 680 297 l 1
 680 300 l 1
 680 303 l 1
 691 303 l 1
 702 303 l 1
 702 308 l 1
 702 313 l 1
 694 313 l 1
 686 313 l 1
 686 316 l 1
 686 319 l 1
 691 319 l 1
 696 319 l 1
 696 324 l 1
 696 328 l 1
 683 328 l 1
 671 328 l 1
 671 346 l 1
 671 363 l 1
 663 363 l 1
 655 363 l 1
 655 366 l 1
 655 369 l 1
 650 369 l 1
 645 369 l 1
 645 374 l 1
 645 379 l 1
 642 379 l 1
 630 379 l 1
 630 395 l 1
 625 395 l 1
 620 395 l 1
 620 390 l 1
 620 385 l 1
 615 385 l 1
 611 385 l 1
 611 395 l 1
 611 404 l 1
 604 404 l 1
 598 404 l 1
 588 404 l 1
 588 420 l 1
 576 420 l 1
 563 420 l 1
 563 425 l 1
 563 429 l 1
 554 429 l 1
 544 429 l 1
 544 433 l 1
 544 436 l 1
 529 436 l 1
 513 436 l 1
 513 445 l 1
 513 455 l 1
 508 455 l 1
 503 455 l 1
 503 450 l 1
 503 445 l 1
 475 445 l 1
 446 445 l 1
 446 450 l 1
 446 455 l 1
 426 455 l 1
 405 455 l 1
 405 445 l 1
 405 436 l 1
 401 436 l 1
 396 436 l 1
 396 440 l 1
 396 445 l 1
 383 445 l 1
 371 445 l 1
 371 440 l 1
 371 436 l 1
 363 436 l 1
 355 436 l 1
 355 433 l 1
 355 429 l 1
 350 429 l 1
 345 429 l 1
 345 433 l 2
 345 435 344 436 342 436 c 2
 339 436 l 1
 339 428 l 1
 339 420 l 1
 330 420 l 1
 320 420 l 1
 320 415 l 1
 320 410 l 1
 312 410 l 1
 304 410 l 1
 304 407 l 1
 304 404 l 1
 300 404 l 1
 295 404 l 1
 295 399 l 1
 295 395 l 1
 287 395 l 1
 279 395 l 1
 279 387 l 1
 279 379 l 1
 276 379 l 1
 273 379 l 1
 273 371 l 1
 273 363 l 1
 263 363 l 1
 254 363 l 1
 254 350 l 1
 254 338 l 1
 251 338 l 1
 247 338 l 1
 247 333 l 1
 247 328 l 1
 251 328 l 1
 254 328 l 1
 254 316 l 1
 254 303 l 1
 258 303 l 1
 263 303 l 1
 263 300 l 1
 263 297 l 1
 258 297 l 1
 254 297 l 1
 254 292 l 1
 254 287 l 1
 258 287 l 1
 263 287 l 1
 263 275 l 1
 263 262 l 1
 268 262 l 1
 273 262 l 1
 273 247 l 1
 288 247 l 1
 288 241 l 1
 288 237 l 1
 292 237 l 1
 295 237 l 1
 295 232 l 1
 295 227 l 1
 312 227 l 1
 330 227 l 1
 330 224 l 1
 330 221 l 1
 325 221 l 1
 320 221 l 1
 320 216 l 1
 320 211 l 1
 325 211 l 1
 330 211 l 1
 330 208 l 1
 330 205 l 1
 350 205 l 1
 371 205 l 1
 371 200 l 1
 371 196 l 1
 375 196 l 1
 380 196 l 1
 380 188 l 1
 380 180 l 1
 375 180 l 1
 371 180 l 1
 371 188 l 1
 371 196 l 1
 358 196 l 1
 345 196 l 1
 345 191 l 1
 345 187 l 1
 350 187 l 1
 355 187 l 1
 355 183 l 1
 355 180 l 1
 363 180 l 1
 371 180 l 1
 371 175 l 1
 371 170 l 1
 383 170 l 1
 396 170 l 1
 396 166 l 1
 396 161 l 1
 401 161 l 1
 405 161 l 1
 405 166 l 1
396 183 m 1
 396 186 l 1
 391 186 l 1
 386 186 l 1
 386 199 l 1
 386 211 l 1
 383 211 l 1
 380 211 l 1
 380 216 l 1
 380 221 l 1
 372 221 l 1
 364 221 l 1
 364 224 l 1
 364 227 l 1
 360 227 l 1
 355 227 l 1
 355 232 l 1
 355 237 l 1
 350 237 l 1
 345 237 l 1
 345 241 l 1
 345 246 l 1
 342 246 l 1
 339 246 l 1
 339 254 l 1
 339 262 l 1
 334 262 l 1
 330 262 l 1
 330 270 l 1
 330 278 l 1
 325 278 l 1
 320 278 l 1
 320 290 l 1
 320 303 l 1
 317 303 l 1
 314 303 l 1
 314 308 l 1
 314 313 l 1
 317 313 l 1
 320 313 l 1
 320 333 l 1
 320 354 l 1
 325 354 l 1
 330 354 l 1
 330 362 l 1
 330 369 l 1
 334 369 l 1
 339 369 l 1
 339 377 l 1
 339 385 l 1
 342 385 l 1
 345 385 l 1
 345 390 l 1
 345 395 l 1
 350 395 l 1
 355 395 l 1
 355 403 l 1
 355 410 l 1
 363 410 l 1
 371 410 l 1
 371 415 l 1
 371 420 l 1
 388 420 l 1
 405 420 l 1
 405 425 l 1
 405 429 l 1
 429 429 l 1
 453 429 l 1
 453 425 l 1
 453 420 l 1
 462 420 l 1
 472 420 l 1
 472 415 l 1
 472 410 l 1
 480 410 l 1
 487 410 l 1
 487 407 l 1
 487 404 l 1
 492 404 l 1
 497 404 l 1
 497 399 l 1
 497 395 l 1
 500 395 l 1
 503 395 l 1
 503 390 l 1
 503 385 l 1
 508 385 l 1
 513 385 l 1
 513 377 l 1
 513 369 l 1
 497 369 l 1
 481 369 l 1
 474 369 l 1
 474 357 l 1
 474 354 l 1
 467 354 l 1
 462 354 l 1
 462 341 l 1
 462 328 l 1
 467 328 l 1
 472 328 l 1
 472 324 l 1
 472 319 l 1
 484 319 l 1
 497 319 l 1
 497 324 l 1
 497 328 l 1
 505 328 l 1
 513 328 l 1
 513 333 l 1
 513 338 l 1
 517 338 l 1
 522 338 l 1
 522 346 l 1
 522 354 l 1
 525 354 l 1
 529 354 l 1
 529 346 l 1
 529 338 l 1
 533 338 l 1
 538 338 l 1
 538 317 l 1
 538 297 l 1
 533 297 l 1
 529 297 l 1
 529 284 l 1
 529 271 l 1
 525 271 l 1
 522 271 l 1
 522 262 l 1
 522 253 l 1
 517 253 l 1
 513 253 l 1
 513 245 l 1
 513 237 l 1
 508 237 l 1
 503 237 l 1
 503 220 l 1
 487 220 l 1
 487 213 l 1
 487 205 l 1
 470 205 l 1
 453 205 l 1
 453 200 l 1
 453 196 l 1
 450 196 l 1
 446 196 l 1
 446 200 l 1
 446 205 l 1
 426 205 l 1
 405 205 l 1
 405 200 l 1
 405 196 l 1
 401 196 l 1
 396 196 l 1
 396 191 l 1
 396 186 l 1
 401 186 l 1
 405 186 l 1
 405 191 l 1
 405 196 l 1
 413 196 l 1
 421 196 l 1
 421 191 l 1
 421 186 l 1
 416 186 l 1
 412 186 l 1
 412 183 l 1
 412 180 l 1
 404 180 l 1
 396 180 l 1
 396 183 l 1
437 183 m 1
 437 186 l 1
 442 186 l 1
 446 186 l 1
 446 183 l 1
 446 180 l 1
 442 180 l 1
 437 180 l 1
 437 183 l 1
570 175 m 1
 570 180 l 1
 562 180 l 1
 554 180 l 1
 554 175 l 1
 554 170 l 1
 562 170 l 1
 570 170 l 1
 570 175 l 1
579 191 m 1
 579 196 l 1
 574 196 l 1
 570 196 l 1
 570 191 l 1
 570 186 l 1
 574 186 l 1
 579 186 l 1
 579 191 l 1
721 191 m 1
 721 196 l 1
 716 196 l 1
 712 196 l 1
 712 191 l 1
 712 186 l 1
 716 186 l 1
 721 186 l 1
 721 191 l 1
636 200 m 1
 636 205 l 1
 641 205 l 1
 645 205 l 1
 645 208 l 1
 645 211 l 1
 630 211 l 1
 630 196 l 1
 633 196 l 1
 636 196 l 1
 636 200 l 1
680 208 m 1
 680 211 l 1
 671 211 l 1
 661 211 l 1
 661 208 l 1
 661 205 l 1
 671 205 l 1
 680 205 l 1
 680 208 l 1
794 208 m 1
 794 211 l 1
 786 211 l 1
 778 211 l 1
 778 208 l 1
 778 205 l 1
 786 205 l 1
 794 205 l 1
 794 208 l 1
767 228 m 1
 753 228 l 1
 753 219 l 1
 753 211 l 1
 761 211 l 1
 767 211 l 1
 767 228 l 1
696 224 m 1
 696 227 l 1
 688 227 l 1
 680 227 l 1
 680 224 l 1
 680 221 l 1
 688 221 l 1
 696 221 l 1
 696 224 l 1
721 229 m 1
 721 237 l 1
 716 237 l 1
 712 237 l 1
 712 241 l 1
 712 246 l 1
 720 246 l 1
 728 246 l 1
 728 237 l 1
 728 227 l 1
 732 227 l 1
 737 227 l 1
 737 237 l 1
 737 246 l 1
 732 246 l 1
 728 246 l 1
 728 254 l 1
 728 262 l 1
 732 262 l 1
 737 262 l 1
 737 267 l 1
 737 271 l 1
 724 271 l 1
 712 271 l 1
 712 267 l 1
 712 262 l 1
 716 262 l 1
 721 262 l 1
 721 257 l 1
 721 253 l 1
 716 253 l 1
 712 253 l 1
 712 249 l 1
 712 246 l 1
 707 246 l 1
 702 246 l 1
 702 249 l 1
 702 253 l 1
 694 253 l 1
 686 253 l 1
 686 249 l 1
 686 246 l 1
 694 246 l 1
 702 246 l 1
 702 234 l 1
 702 221 l 1
 712 221 l 1
 721 221 l 1
 721 229 l 1
655 241 m 1
 655 246 l 1
 650 246 l 1
 645 246 l 1
 645 241 l 1
 645 237 l 1
 650 237 l 1
 655 237 l 1
 655 241 l 1
762 245 m 1
 762 253 l 1
 758 253 l 1
 753 253 l 1
 753 245 l 1
 753 237 l 1
 758 237 l 1
 762 237 l 1
 762 245 l 1
813 257 m 1
 813 262 l 1
 803 262 l 1
 794 262 l 1
 794 257 l 1
 794 253 l 1
 803 253 l 1
 813 253 l 1
 813 257 l 1
247 283 m 1
 247 287 l 1
 243 287 l 1
 238 287 l 1
 238 283 l 1
 238 278 l 1
 243 278 l 1
 247 278 l 1
 247 283 l 1
879 295 m 1
 879 303 l 1
 874 303 l 1
 870 303 l 1
 870 295 l 1
 870 287 l 1
 874 287 l 1
 879 287 l 1
 879 295 l 1
803 316 m 1
 803 319 l 1
 795 319 l 1
 788 319 l 1
 788 316 l 1
 788 313 l 1
 795 313 l 1
 803 313 l 1
 803 316 l 1
737 333 m 1
 737 338 l 1
 732 338 l 1
 728 338 l 1
 728 333 l 1
 728 328 l 1
 732 328 l 1
 737 328 l 1
 737 333 l 1
788 341 m 1
 788 344 l 1
 783 344 l 1
 778 344 l 1
 778 341 l 1
 778 338 l 1
 783 338 l 1
 788 338 l 1
 788 341 l 1
819 358 m 1
 819 363 l 1
 807 363 l 1
 794 363 l 1
 794 358 l 1
 794 354 l 1
 807 354 l 1
 819 354 l 1
 819 358 l 1
762 366 m 1
 762 369 l 1
 758 369 l 1
 753 369 l 1
 753 366 l 1
 753 363 l 1
 758 363 l 1
 762 363 l 1
 762 366 l 1
680 374 m 1
 680 379 l 1
 683 379 l 1
 686 379 l 1
 686 374 l 1
 686 369 l 1
 694 369 l 1
 702 369 l 1
 702 384 l 1
 686 384 l 1
 686 390 l 1
 686 395 l 1
 683 395 l 1
 680 395 l 1
 680 390 l 1
 680 385 l 1
 675 385 l 1
 671 385 l 1
 671 377 l 1
 671 369 l 1
 675 369 l 1
 680 369 l 1
 680 374 l 1
778 374 m 1
 778 379 l 1
 783 379 l 1
 788 379 l 1
 788 392 l 1
 788 404 l 1
 783 404 l 1
 778 404 l 1
 778 399 l 1
 778 395 l 1
 773 395 l 1
 769 395 l 1
 769 382 l 1
 769 369 l 1
 773 369 l 1
 778 369 l 1
 778 374 l 1
661 390 m 1
 661 395 l 1
 666 395 l 1
 671 395 l 1
 671 399 l 1
 671 404 l 1
 657 404 l 1
 657 420 l 1
 650 420 l 1
 645 420 l 1
 645 425 l 1
 645 429 l 1
 641 429 l 1
 636 429 l 1
 636 425 l 1
 636 420 l 1
 633 420 l 1
 630 420 l 1
 630 425 l 1
 630 429 l 1
 617 429 l 1
 604 429 l 1
 604 425 l 1
 604 420 l 1
 612 420 l 1
 620 420 l 1
 620 415 l 1
 620 410 l 1
 628 410 l 1
 636 410 l 1
 636 407 l 1
 636 404 l 1
 641 404 l 1
 645 404 l 1
 645 395 l 1
 645 385 l 1
 653 385 l 1
 661 385 l 1
 661 390 l 1
746 390 m 1
 746 395 l 1
 742 395 l 1
 737 395 l 1
 737 390 l 1
 737 385 l 1
 742 385 l 1
 746 385 l 1
 746 390 l 1
803 390 m 1
 803 395 l 1
 799 395 l 1
 794 395 l 1
 794 390 l 1
 794 385 l 1
 799 385 l 1
 803 385 l 1
 803 390 l 1
721 415 m 1
 721 420 l 1
 716 420 l 1
 712 420 l 1
 712 415 l 1
 712 410 l 1
 716 410 l 1
 721 410 l 1
 721 415 l 1
702 425 m 1
 702 429 l 1
 699 429 l 1
 696 429 l 1
 696 425 l 1
 696 420 l 1
 699 420 l 1
 702 420 l 1
 702 425 l 1
589 440 m 1
 589 445 l 1
 596 445 l 1
 604 445 l 1
 604 440 l 1
 604 436 l 1
 608 436 l 1
 611 436 l 1
 611 440 l 1
 611 445 l 1
 608 445 l 1
 604 445 l 1
 604 450 l 1
 604 455 l 1
 596 455 l 1
 589 455 l 1
 589 458 l 1
 589 461 l 1
 579 461 l 1
 570 461 l 1
 570 466 l 1
 570 470 l 1
 562 470 l 1
 554 470 l 1
 554 474 l 1
 554 477 l 1
 549 477 l 1
 544 477 l 1
 544 474 l 1
 544 470 l 1
 533 470 l 1
 522 470 l 1
 522 474 l 1
 522 477 l 1
 517 477 l 1
 513 477 l 1
 513 469 l 1
 513 461 l 1
 525 461 l 1
 538 461 l 1
 538 458 l 1
 538 455 l 1
 546 455 l 1
 554 455 l 1
 554 450 l 1
 554 445 l 1
 559 445 l 1
 563 445 l 1
 563 450 l 1
 563 455 l 1
 566 455 l 1
 570 455 l 1
 570 450 l 1
 570 445 l 1
 574 445 l 1
 579 445 l 1
 579 440 l 1
 579 436 l 1
 584 436 l 1
 589 436 l 1
 589 440 l 1
661 445 m 1
 661 455 l 1
 658 455 l 1
 655 455 l 1
 655 445 l 1
 655 436 l 1
 658 436 l 1
 661 436 l 1
 661 445 l 1
702 440 m 1
 702 445 l 1
 699 445 l 1
 696 445 l 1
 696 440 l 1
 696 436 l 1
 699 436 l 1
 702 436 l 1
 702 440 l 1
364 463 m 1
 364 470 l 1
 360 470 l 1
 355 470 l 1
 355 463 l 1
 355 455 l 1
 360 455 l 1
 364 455 l 1
 364 463 l 1
345 466 m 1
 345 470 l 1
 342 470 l 1
 339 470 l 1
 339 466 l 1
 339 461 l 1
 342 461 l 1
 345 461 l 1
 345 466 l 1
386 465 m 1
 386 470 l 1
 386 477 l 1
 386 482 l 1
 386 486 l 1
 383 486 l 1
 380 486 l 1
 380 482 l 1
 380 477 l 1
 375 477 l 1
 371 477 l 1
 371 474 l 1
 371 470 l 1
 375 470 l 1
 380 470 l 1
 380 466 l 1
 380 461 l 1
 383 461 l 1
 386 461 l 1
 386 465 l 1
431 474 m 1
 431 486 l 1
 421 486 l 1
 412 486 l 1
 412 482 l 1
 412 477 l 1
 404 477 l 1
 396 477 l 1
 396 469 l 1
 396 461 l 1
 413 461 l 1
 431 461 l 1
 431 474 l 1
462 466 m 1
 462 470 l 1
 457 470 l 1
 453 470 l 1
 453 466 l 1
 453 461 l 1
 457 461 l 1
 462 461 l 1
 462 466 l 1
503 464 m 1
 503 476 l 1
 494 476 l 1
 483 476 l 1
 472 476 l 1
 472 471 l 1
 478 471 l 1
 478 466 l 1
 478 461 l 1
 491 461 l 1
 503 461 l 1
 503 464 l 1
630 466 m 1
 630 470 l 1
 625 470 l 1
 620 470 l 1
 620 466 l 1
 620 461 l 1
 625 461 l 1
 630 461 l 1
 630 466 l 1
478 491 m 1
 478 496 l 1
 475 496 l 1
 472 496 l 1
 472 491 l 1
 472 486 l 1
 475 486 l 1
 478 486 l 1
 478 491 l 1
462 499 m 1
 462 502 l 1
 457 502 l 1
 453 502 l 1
 453 507 l 1
 453 512 l 1
 457 512 l 1
 462 512 l 1
 462 516 l 1
 462 521 l 1
 454 521 l 1
 446 521 l 1
 446 516 l 1
 446 512 l 1
 442 512 l 1
 437 512 l 1
 437 507 l 1
 437 502 l 1
 445 502 l 1
 453 502 l 1
 453 499 l 1
 453 496 l 1
 457 496 l 1
 462 496 l 1
 462 499 l 1
320 507 m 1
 320 512 l 1
 317 512 l 1
 314 512 l 1
 314 507 l 1
 314 502 l 1
 317 502 l 1
 320 502 l 1
 320 507 l 1
478 507 m 1
 478 512 l 1
 475 512 l 1
 472 512 l 1
 472 507 l 1
 472 502 l 1
 475 502 l 1
 478 502 l 1
 478 507 l 1
238 516 m 1
 238 521 l 1
 233 521 l 1
 229 521 l 1
 229 525 l 1
 229 529 l 1
 221 529 l 1
 221 523 l 1
 224 523 l 1
 229 523 l 1
 229 516 l 1
 229 512 l 1
 233 512 l 1
 238 512 l 1
 238 516 l 1
279 516 m 1
 279 521 l 1
 276 521 l 1
 273 521 l 1
 273 516 l 1
 273 512 l 1
 276 512 l 1
 279 512 l 1
 279 516 l 1
412 516 m 1
 412 521 l 1
 408 521 l 1
 405 521 l 1
 405 516 l 1
 405 512 l 1
 408 512 l 1
 412 512 l 1
 412 516 l 1
263 524 m 1
 263 527 l 1
 271 527 l 1
 279 527 l 1
 279 532 l 1
 279 537 l 1
 276 537 l 1
 273 537 l 1
 273 542 l 1
 273 546 l 1
 288 546 l 1
 304 546 l 1
 304 542 l 1
 304 537 l 1
 296 537 l 1
 288 537 l 1
 288 532 l 1
 288 527 l 1
 301 527 l 1
 314 527 l 1
 314 532 l 1
 314 537 l 1
 317 537 l 1
 320 537 l 1
 320 542 l 1
 320 546 l 1
 312 546 l 1
 304 546 l 1
 304 549 l 1
 304 553 l 1
 300 553 l 1
 295 553 l 1
 295 557 l 1
 295 562 l 1
 292 562 l 1
 288 562 l 1
 288 557 l 1
 288 553 l 1
 276 553 l 1
 263 553 l 1
 263 549 l 1
 263 546 l 1
 246 546 l 1
 228 546 l 1
 228 542 l 1
 228 537 l 1
 233 537 l 1
 238 537 l 1
 238 532 l 1
 238 527 l 1
 243 527 l 1
 247 527 l 1
 247 532 l 1
 247 537 l 1
 251 537 l 1
 254 537 l 1
 254 529 l 1
 254 521 l 1
 258 521 l 1
 263 521 l 1
 263 524 l 1
330 532 m 1
 330 537 l 1
 325 537 l 1
 320 537 l 1
 320 532 l 1
 320 527 l 1
 325 527 l 1
 330 527 l 1
 330 532 l 1
355 542 m 1
 355 546 l 1
 347 546 l 1
 339 546 l 1
 339 542 l 1
 339 537 l 1
 347 537 l 1
 355 537 l 1
 355 542 l 1
380 542 m 1
 380 546 l 1
 375 546 l 1
 371 546 l 1
 371 553 l 1
 364 553 l 1
 364 545 l 1
 364 537 l 1
 372 537 l 1
 380 537 l 1
 380 542 l 1
206 557 m 1
 206 562 l 1
 202 562 l 1
 197 562 l 1
 197 557 l 1
 197 553 l 1
 202 553 l 1
 206 553 l 1
 206 557 l 1
254 570 m 1
 254 578 l 1
 251 578 l 1
 247 578 l 1
 247 573 l 1
 247 568 l 1
 243 568 l 1
 238 568 l 1
 238 565 l 1
 238 562 l 1
 246 562 l 1
 254 562 l 1
 254 570 l 1
273 565 m 1
 273 568 l 1
 268 568 l 1
 263 568 l 1
 263 565 l 1
 263 562 l 1
 268 562 l 1
 273 562 l 1
 273 565 l 1
304 598 m 1
 304 603 l 1
 300 603 l 1
 295 603 l 1
 295 598 l 1
 295 594 l 1
 300 594 l 1
 304 594 l 1
 304 598 l 1
538 66 m 1
 538 69 l 1
 546 69 l 1
 554 69 l 1
 554 66 l 1
 554 63 l 1
 546 63 l 1
 538 63 l 1
 538 66 l 1
570 66 m 1
 570 69 l 1
 574 69 l 1
 579 69 l 1
 579 66 l 1
 579 63 l 1
 574 63 l 1
 570 63 l 1
 570 66 l 1
345 74 m 1
 345 79 l 1
 350 79 l 1
 355 79 l 1
 355 74 l 1
 355 69 l 1
 350 69 l 1
 345 69 l 1
 345 74 l 1
487 99 m 1
 487 104 l 1
 492 104 l 1
 497 104 l 1
 497 99 l 1
 497 95 l 1
 492 95 l 1
 487 95 l 1
 487 99 l 1
671 128 m 1
 671 136 l 1
 691 136 l 1
 696 136 l 1
 696 132 l 1
 696 129 l 1
 691 129 l 1
 686 129 l 1
 686 125 l 1
 686 120 l 1
 679 120 l 1
 671 120 l 1
 671 128 l 1
712 150 m 1
 712 155 l 1
 716 155 l 1
 721 155 l 1
 721 150 l 1
 721 145 l 1
 716 145 l 1
 712 145 l 1
 712 150 l 1
762 186 m 1
 758 186 l 1
 753 186 l 1
 753 191 l 1
 753 196 l 1
 758 196 l 1
 762 196 l 1
 762 191 l 1
 762 186 l 1
-12 208 m 1
 -12 211 l 1
 -7 211 l 1
 -2 211 l 1
 -2 208 l 1
 -2 205 l 1
 -7 205 l 1
 -12 205 l 1
 -12 208 l 1
885 257 m 1
 885 262 l 1
 890 262 l 1
 895 262 l 1
 895 257 l 1
 895 253 l 1
 890 253 l 1
 885 253 l 1
 885 257 l 1
870 267 m 1
 870 271 l 1
 874 271 l 1
 879 271 l 1
 879 267 l 1
 879 262 l 1
 874 262 l 1
 870 262 l 1
 870 267 l 1
920 283 m 1
 920 287 l 1
 923 287 l 1
 927 287 l 1
 927 283 l 1
 927 278 l 1
 923 278 l 1
 920 278 l 1
 920 283 l 1
860 341 m 1
 860 344 l 1
 865 344 l 1
 870 344 l 1
 870 349 l 1
 870 354 l 1
 874 354 l 1
 879 354 l 1
 879 349 l 1
 879 344 l 1
 874 344 l 1
 870 344 l 1
 870 341 l 1
 870 338 l 1
 865 338 l 1
 860 338 l 1
 860 341 l 1
860 366 m 1
 860 369 l 1
 865 369 l 1
 870 369 l 1
 870 366 l 1
 870 363 l 1
 865 363 l 1
 860 363 l 1
 860 366 l 1
753 440 m 1
 753 445 l 1
 758 445 l 1
 762 445 l 1
 762 440 l 1
 762 436 l 1
 758 436 l 1
 753 436 l 1
 753 440 l 1
661 491 m 1
 661 496 l 1
 666 496 l 1
 671 496 l 1
 671 491 l 1
 671 486 l 1
 666 486 l 1
 661 486 l 1
 661 491 l 1
330 616 m 1
 330 619 l 1
 325 619 l 1
 320 619 l 1
 320 624 l 1
 320 628 l 1
 330 628 l 1
 339 628 l 1
 339 633 l 1
 339 638 l 1
 352 638 l 1
 364 638 l 1
 364 633 l 1
 364 628 l 1
 367 628 l 1
 371 628 l 1
 371 633 l 1
 371 638 l 1
 375 638 l 1
 380 638 l 1
 380 633 l 1
 380 628 l 1
 375 628 l 1
 371 628 l 1
 371 624 l 1
 371 619 l 1
 367 619 l 1
 364 619 l 1
 364 624 l 1
 364 628 l 1
 355 628 l 1
 345 628 l 1
 345 621 l 1
 345 613 l 1
 337 613 l 1
 330 613 l 1
 330 616 l 1
396 616 m 1
 396 619 l 1
 401 619 l 1
 405 619 l 1
 405 616 l 1
 405 613 l 1
 401 613 l 1
 396 613 l 1
 396 616 l 1
EndSplineSet
Validated: 133
EndChar

StartChar: S
Encoding: 83 83 50
Width: 900
Flags: HW
LayerCount: 2
Fore
SplineSet
640 0 m 1
 570 0 l 1
 260 739 l 1
 330 739 l 1
 640 0 l 1
EndSplineSet
Validated: 1
EndChar

StartChar: T
Encoding: 84 84 51
Width: 900
Flags: HW
LayerCount: 2
Fore
SplineSet
531.5 560 m 1
 500.5 560 l 1
 498.5 573.333 493.5 583 485.5 589 c 0
 476.833 595.667 464.833 599 449.5 599 c 0
 434.833 599 423.333 595.833 415 589.5 c 128
 406.667 583.167 401.167 573.333 398.5 560 c 1
 367.5 560 l 1
 369.5 584.667 377.333 603.333 391 616 c 128
 404.667 628.667 424.167 635 449.5 635 c 128
 474.833 635 494.333 628.667 508 616 c 128
 521.667 603.333 529.5 584.667 531.5 560 c 1
744.5 485 m 1
 713.5 485 l 1
 711.5 497.667 706.167 507.333 697.5 514 c 0
 689.5 520.667 677.833 524 662.5 524 c 0
 647.833 524 636.167 520.833 627.5 514.5 c 128
 618.833 508.167 613.5 498.333 611.5 485 c 1
 580.5 485 l 1
 582.5 509.667 590.333 528.333 604 541 c 128
 617.667 553.667 637.167 560 662.5 560 c 128
 687.833 560 707.333 553.667 721 541 c 128
 734.667 528.333 742.5 509.667 744.5 485 c 1
318.5 485 m 1
 287.5 485 l 1
 286.167 497.667 281.167 507.333 272.5 514 c 128
 263.833 520.667 251.833 524 236.5 524 c 0
 221.833 524 210.333 520.833 202 514.5 c 128
 193.667 508.167 188.5 498.333 186.5 485 c 1
 155.5 485 l 1
 156.833 509.667 164.5 528.333 178.5 541 c 128
 192.5 553.667 212 560 237 560 c 128
 262 560 281.5 553.667 295.5 541 c 128
 309.5 528.333 317.167 509.667 318.5 485 c 1
744.5 121 m 1
 713.5 121 l 1
 711.5 133.667 706.167 143.333 697.5 150 c 0
 689.5 156.667 677.833 160 662.5 160 c 0
 647.833 160 636.167 156.833 627.5 150.5 c 128
 618.833 144.167 613.5 134.333 611.5 121 c 1
 580.5 121 l 1
 582.5 145.667 590.333 164.333 604 177 c 128
 617.667 189.667 637.167 196 662.5 196 c 128
 687.833 196 707.333 189.667 721 177 c 128
 734.667 164.333 742.5 145.667 744.5 121 c 1
318.5 121 m 1
 287.5 121 l 1
 286.167 133.667 281.167 143.333 272.5 150 c 128
 263.833 156.667 251.833 160 236.5 160 c 0
 221.833 160 210.333 156.833 202 150.5 c 128
 193.667 144.167 188.5 134.333 186.5 121 c 1
 155.5 121 l 1
 156.833 145.667 164.5 164.333 178.5 177 c 128
 192.5 189.667 212 196 237 196 c 128
 262 196 281.5 189.667 295.5 177 c 128
 309.5 164.333 317.167 145.667 318.5 121 c 1
832.5 303 m 1
 801.5 303 l 1
 799.5 315.667 794.167 325.333 785.5 332 c 0
 777.5 338.667 765.833 342 750.5 342 c 0
 735.833 342 724.333 338.833 716 332.5 c 128
 707.667 326.167 702.167 316.333 699.5 303 c 1
 668.5 303 l 1
 670.5 327.667 678.333 346.333 692 359 c 128
 705.667 371.667 725.167 378 750.5 378 c 128
 775.833 378 795.333 371.667 809 359 c 128
 822.667 346.333 830.5 327.667 832.5 303 c 1
230.5 303 m 1
 199.5 303 l 1
 197.5 315.667 192.5 325.333 184.5 332 c 0
 175.833 338.667 163.833 342 148.5 342 c 0
 133.833 342 122.333 338.833 114 332.5 c 128
 105.667 326.167 100.167 316.333 97.5 303 c 1
 67.5 303 l 1
 68.833 327.667 76.333 346.333 90 359 c 128
 103.667 371.667 123.167 378 148.5 378 c 128
 173.833 378 193.5 371.667 207.5 359 c 128
 221.5 346.333 229.167 327.667 230.5 303 c 1
531.5 45 m 1
 500.5 45 l 1
 498.5 58.333 493.5 68.333 485.5 75 c 0
 476.833 81 464.833 84 449.5 84 c 0
 434.833 84 423.333 80.833 415 74.5 c 128
 406.667 68.167 401.167 58.333 398.5 45 c 1
 367.5 45 l 1
 369.5 70.333 377.333 89.167 391 101.5 c 128
 404.667 113.833 424.167 120 449.5 120 c 128
 474.833 120 494.333 113.833 508 101.5 c 128
 521.667 89.167 529.5 70.333 531.5 45 c 1
EndSplineSet
Validated: 1
EndChar

StartChar: U
Encoding: 85 85 52
Width: 900
Flags: HW
LayerCount: 2
Fore
SplineSet
150 87 m 0
 181.333 87 209.667 95 235 111 c 128
 260.333 127 284.333 150.833 307 182.5 c 128
 329.667 214.167 354.333 253.333 381 300 c 2
 470 463 l 1
 479 463 l 1
 470 213 l 1
 569 423 l 1
 577 423 l 1
 574 222 l 1
 672 399 l 1
 676 239 l 1
 747 365 l 1
 766 280 l 2
 772.667 250 784.333 235 801 235 c 0
 810.333 235 819.667 238.667 829 246 c 2
 869 279 l 1
 892 265 l 1
 885.333 259.667 876.333 252 865 242 c 128
 853.667 232 845.667 225.5 841 222.5 c 128
 836.333 219.5 829.167 216 819.5 212 c 128
 809.833 208 799 205.667 787 205 c 0
 771 205 760 210.5 754 221.5 c 128
 748 232.5 740.667 255.333 732 290 c 1
 654 155 l 1
 650 309 l 1
 549 122 l 1
 549 322 l 1
 447 105 l 1
 439 105 l 1
 447 365 l 1
 386 254 l 1
 332 170 l 1
 274 105 l 1
 214 70 l 1
 141 56 l 1
 93.6667 56 59.6667 71.3333 39 102 c 128
 18.3333 132.667 8 167.333 8 206 c 128
 8 244.667 17.3333 286.5 36 331.5 c 128
 54.6667 376.5 82.5 416.167 119.5 450.5 c 128
 156.5 484.833 197 502 241 502 c 0
 274.333 502 300 492.667 318 474 c 128
 336 455.333 345 429.333 345 396 c 0
 345 349.333 328.833 301.833 296.5 253.5 c 128
 264.167 205.167 225.333 180.667 180 180 c 0
 157.333 180 141 188.167 131 204.5 c 128
 121 220.833 116 238.333 116 257 c 0
 116 282.333 124.333 303.833 141 321.5 c 128
 157.667 339.167 174.333 348 191 348 c 0
 214.333 348 226 332 226 300 c 0
 226 279.333 218.5 260.667 203.5 244 c 128
 188.5 227.333 174 219 160 219 c 2
 157 219 l 1
 165 213 176 210 190 210 c 0
 219.333 210 247.333 230.5 274 271.5 c 128
 300.667 312.5 314 351.333 314 388 c 0
 314 413.333 307 433.5 293 448.5 c 128
 279 463.5 259 471 233 471 c 0
 185 471 140.667 443 100 387 c 128
 59.3333 331 39 274.667 39 218 c 0
 39 196.667 41.8333 176.833 47.5 158.5 c 128
 53.1667 140.167 64.8333 123.667 82.5 109 c 128
 100.167 94.3333 122.667 87 150 87 c 0
181 320 m 0
 170.333 320 161.167 313.5 153.5 300.5 c 128
 145.833 287.5 142 274.667 142 262 c 0
 142 248.667 148 242 160 242 c 2
 163 242 l 2
 171.667 242 179.667 247.667 187 259 c 128
 194.333 270.333 198 282.667 198 296 c 0
 198 312 192.333 320 181 320 c 0
EndSplineSet
Validated: 1
EndChar

StartChar: V
Encoding: 86 86 53
Width: 900
Flags: HW
LayerCount: 2
Fore
SplineSet
835 186 m 2
 835 94 819.833 32.833 789.5 2.5 c 128
 759.167 -27.833 698 -43 606 -43 c 2
 294 -43 l 2
 202 -43 140.833 -27.833 110.5 2.5 c 128
 80.167 32.833 65 94 65 186 c 2
 65 250 l 2
 65 338 78.167 397.333 104.5 428 c 128
 130.833 458.667 181.333 475.333 256 478 c 1
 256 534 l 1
 437 715 l 1
 644 715 l 1
 644 478 l 1
 718.667 475.333 769.167 458.5 795.5 427.5 c 128
 821.833 396.5 835 337.333 835 250 c 2
 835 186 l 2
431 541 m 1
 431 652 l 1
 319 541 l 1
 431 541 l 1
604 177 m 1
 604 675 l 1
 471 675 l 1
 471 501 l 1
 296 501 l 1
 296 177 l 1
 604 177 l 1
795 186 m 2
 795 250 l 2
 795 326.667 785.333 376.667 766 400 c 128
 746.667 423.333 706 436 644 438 c 1
 644 137 l 1
 256 137 l 1
 256 438 l 1
 193.333 436 152.5 423.333 133.5 400 c 128
 114.5 376.667 105 326.667 105 250 c 2
 105 186 l 2
 105 105.333 116.5 53.667 139.5 31 c 128
 162.5 8.33301 214 -3 294 -3 c 2
 606 -3 l 2
 686.667 -3 738.333 8.5 761 31.5 c 128
 783.667 54.5 795 106 795 186 c 2
EndSplineSet
Validated: 1
EndChar

StartChar: W
Encoding: 87 87 54
Width: 900
Flags: HW
LayerCount: 2
Fore
SplineSet
739.5 293 m 1
 160.5 293 l 1
 449.5 615 l 1
 739.5 293 l 1
739.5 0 m 1
 160.5 0 l 1
 160.5 189 l 1
 739.5 189 l 1
 739.5 0 l 1
EndSplineSet
Validated: 1
EndChar

StartChar: X
Encoding: 88 88 55
Width: 900
Flags: HW
LayerCount: 2
Fore
SplineSet
830.5 -200 m 1
 69.5 -200 l 1
 69.5 -75 l 1
 830.5 -75 l 1
 830.5 -200 l 1
EndSplineSet
Validated: 1
EndChar

StartChar: Y
Encoding: 89 89 56
Width: 900
Flags: HW
LayerCount: 2
Fore
SplineSet
830.5 -200 m 1
 69.5 -200 l 1
 69.5 175 l 1
 830.5 175 l 1
 830.5 -200 l 1
EndSplineSet
Validated: 1
EndChar

StartChar: Z
Encoding: 90 90 57
Width: 900
Flags: HW
LayerCount: 2
Fore
SplineSet
830.5 -200 m 1
 69.5 -200 l 1
 69.5 425 l 1
 830.5 425 l 1
 830.5 -200 l 1
EndSplineSet
Validated: 1
EndChar

StartChar: bracketleft
Encoding: 91 91 58
Width: 900
Flags: HW
LayerCount: 2
Fore
SplineSet
151.5 -27 m 1
 748.5 -27 l 1
 449.5 571 l 1
 151.5 -27 l 1
68.5 -83 m 1
 449.5 683 l 1
 831.5 -83 l 1
 68.5 -83 l 1
EndSplineSet
Validated: 1
EndChar

StartChar: backslash
Encoding: 92 92 59
Width: 900
Flags: HW
LayerCount: 2
Fore
SplineSet
202 51 m 1
 202 549 l 1
 698 300 l 1
 202 51 l 1
EndSplineSet
Validated: 1
EndChar

StartChar: bracketright
Encoding: 93 93 60
Width: 900
Flags: HW
LayerCount: 2
Fore
SplineSet
450 447 m 128
 424 447 402 438 384 420 c 128
 366 402 357 380 357 354 c 128
 357 328 366 306.167 384 288.5 c 128
 402 270.833 424 262 450 262 c 128
 476 262 498 270.833 516 288.5 c 128
 534 306.167 543 327.833 543 353.5 c 128
 543 379.167 534 401.167 516 419.5 c 128
 498 437.833 476 447 450 447 c 128
450 510 m 0
 470.667 510 490.667 506 510 498 c 128
 529.333 490 546 478.667 560 464 c 0
 574.667 449.333 585.833 432.667 593.5 414 c 128
 601.167 395.333 605 375.333 605 354 c 0
 605 310.667 589.833 274.167 559.5 244.5 c 128
 529.167 214.833 492.333 200 449 200 c 0
 405 200 368.333 214.667 339 244 c 128
 309.667 273.333 295 310 295 354 c 0
 295 397.333 310 434.167 340 464.5 c 128
 370 494.833 406.667 510 450 510 c 0
450 610 m 128
 415.333 610 382.667 603.667 352 591 c 0
 322 577.667 294.667 558.667 270 534 c 128
 245.333 509.333 226.833 482 214.5 452 c 128
 202.167 422 196 389.333 196 354 c 0
 196 319.333 202.167 287 214.5 257 c 128
 226.833 227 245.333 199.667 270 175 c 0
 294.667 149.667 322 130.667 352 118 c 0
 382.667 105.333 415.333 99 450 99 c 128
 484.667 99 517.333 105.333 548 118 c 0
 578 130.667 605.333 149.667 630 175 c 0
 654.667 199.667 673.167 227 685.5 257 c 128
 697.833 287 704 319.333 704 354 c 0
 704 389.333 697.833 422 685.5 452 c 128
 673.167 482 654.667 509.333 630 534 c 128
 605.333 558.667 578 577.667 548 591 c 0
 517.333 603.667 484.667 610 450 610 c 128
450 683 m 128
 494.667 683 536.5 674.833 575.5 658.5 c 128
 614.5 642.167 649.667 618 681 586 c 0
 713.667 554 738 518.667 754 480 c 128
 770 441.333 778 399.333 778 354 c 0
 778 309.333 770 267.667 754 229 c 128
 738 190.333 713.667 155 681 123 c 0
 649.667 91 614.5 66.833 575.5 50.5 c 128
 536.5 34.167 494.667 26 450 26 c 128
 405.333 26 363.5 34.167 324.5 50.5 c 128
 285.5 66.833 250.333 91 219 123 c 0
 186.333 155 162 190.333 146 229 c 128
 130 267.667 122 309.333 122 354 c 0
 122 399.333 130 441.333 146 480 c 128
 162 518.667 186.333 554 219 586 c 0
 250.333 618 285.5 642.167 324.5 658.5 c 128
 363.5 674.833 405.333 683 450 683 c 128
EndSplineSet
Validated: 1
EndChar

StartChar: asciicircum
Encoding: 94 94 61
Width: 900
Flags: HW
LayerCount: 2
Fore
SplineSet
220.5 791 m 1
 221.5 791 l 1
 212.167 723.667 192.5 690 162.5 690 c 2
 159.5 690 l 1
 140.833 693.333 131.5 700.667 131.5 712 c 2
 131.5 713 l 2
 131.5 731 161.167 757 220.5 791 c 1
423.5 914 m 1
 423.5 914 l 1
 414.167 846.667 394.5 813 364.5 813 c 2
 361.5 813 l 1
 342.833 815.667 333.5 822.667 333.5 834 c 2
 333.5 835 l 2
 333.5 853 363.5 879.333 423.5 914 c 1
598.5 973 m 1
 599.5 973 l 1
 590.167 905.667 570.5 872 540.5 872 c 2
 537.5 872 l 2
 518.167 874.667 508.5 881.667 508.5 893 c 2
 508.5 895 l 2
 508.5 912.333 538.5 938.333 598.5 973 c 1
629.5 831 m 1
 631.5 831 l 1
 621.5 763.667 601.5 730 571.5 730 c 2
 568.5 730 l 1
 549.833 732.667 540.5 739.667 540.5 751 c 2
 540.5 752 l 2
 540.5 770 570.167 796.333 629.5 831 c 1
805.5 933 m 1
 806.5 933 l 1
 797.167 866.333 777.5 833 747.5 833 c 2
 744.5 833 l 2
 725.167 835 715.5 842 715.5 854 c 2
 715.5 855 l 2
 715.5 873 745.5 899 805.5 933 c 1
859.5 831 m 1
 860.5 831 l 1
 851.167 763.667 831.5 730 801.5 730 c 2
 797.5 730 l 2
 779.5 732 770.5 739 770.5 751 c 2
 770.5 752 l 2
 770.5 770 800.167 796.333 859.5 831 c 1
814.5 664 m 1
 816.5 664 l 1
 806.5 596.667 786.5 563 756.5 563 c 2
 753.5 563 l 1
 734.833 566.333 725.5 573.667 725.5 585 c 2
 725.5 586 l 2
 725.5 604 755.167 630 814.5 664 c 1
433.5 689 m 1
 462.5 689 l 1
 464.5 686 l 1
 464.5 632 l 1
 465.5 632 l 2
 608.833 632 726.167 561.667 817.5 421 c 0
 831.5 395.667 838.5 381.333 838.5 378 c 2
 838.5 374 l 1
 837.5 374 l 1
 830.167 378.667 823.5 387.667 817.5 401 c 1
 806.167 407.667 791.167 411 772.5 411 c 2
 751.5 411 l 2
 702.167 411 659.5 396.333 623.5 367 c 1
 623.5 345 l 2
 623.5 341 622.167 338.667 619.5 338 c 1
 603.5 366 l 1
 554.167 384 507.5 393 463.5 393 c 1
 463.5 95 l 2
 463.5 65.667 446.167 47.667 411.5 41 c 2
 396.5 40 l 2
 367.167 40 346.5 54 334.5 82 c 1
 333.5 94 l 1
 333.5 105 l 1
 336.5 108 l 1
 357.5 108 l 1
 359.5 105 l 1
 359.5 100 l 2
 362.833 70.667 374.833 56 395.5 56 c 2
 400.5 56 l 2
 417.833 56 429.833 64.333 436.5 81 c 1
 439.5 99 l 1
 439.5 393 l 1
 370.833 393 322.5 384 294.5 366 c 1
 289.167 350 284.167 342 279.5 342 c 1
 276.5 344 l 1
 276.5 349 l 1
 279.5 372 l 1
 277.5 372 l 1
 255.5 390 212.5 403 148.5 411 c 2
 115.5 411 l 2
 83.5 411 61.833 402 50.5 384 c 1
 41.5 377 l 1
 39.5 377 l 1
 39.5 378 l 1
 58.833 419.333 99.5 471.667 161.5 535 c 0
 239.5 599.667 329.167 632 430.5 632 c 1
 430.5 686 l 1
 433.5 689 l 1
EndSplineSet
Validated: 5
EndChar

StartChar: underscore
Encoding: 95 95 62
Width: 900
Flags: HW
LayerCount: 2
Fore
SplineSet
469.5 442 m 1
 469.5 454 l 2
 469.5 463.333 470.667 474.833 473 488.5 c 128
 475.333 502.167 478.167 517.333 481.5 534 c 128
 484.833 550.667 491.167 567.333 500.5 584 c 128
 509.833 600.667 521 616 534 630 c 128
 547 644 564.5 655.167 586.5 663.5 c 128
 608.5 671.833 633.167 676 660.5 676 c 0
 683.833 676 705.667 671.833 726 663.5 c 128
 746.333 655.167 764 643.833 779 629.5 c 128
 794 615.167 806 597.833 815 577.5 c 128
 824 557.167 829.333 536 831 514 c 128
 832.667 492 829.5 468 821.5 442 c 128
 813.5 416 800.5 390.667 782.5 366 c 2
 469.5 -47 l 1
 469.5 442 l 1
430.5 442 m 1
 430.5 -47 l 1
 117.5 366 l 2
 99.5 390.667 86.5 416 78.5 442 c 128
 70.5 468 67.333 492 69 514 c 128
 70.667 536 76 557.167 85 577.5 c 128
 94 597.833 106 615.167 121 629.5 c 128
 136 643.833 153.833 655.167 174.5 663.5 c 128
 195.167 671.833 216.833 676 239.5 676 c 0
 266.833 676 291.5 671.833 313.5 663.5 c 128
 335.5 655.167 353 644 366 630 c 128
 379 616 390.167 600.667 399.5 584 c 128
 408.833 567.333 415.333 550.667 419 534 c 128
 422.667 517.333 425.5 502.167 427.5 488.5 c 128
 429.5 474.833 430.5 463.333 430.5 454 c 2
 430.5 442 l 1
EndSplineSet
Validated: 33
EndChar

StartChar: grave
Encoding: 96 96 63
Width: 900
Flags: HW
LayerCount: 2
Fore
SplineSet
693 747 m 5
 432 435 l 5
 663 354 l 5
 207 -54 l 5
 498 324 l 5
 273 411 l 5
 693 747 l 5
EndSplineSet
Validated: 1
EndChar

StartChar: a
Encoding: 97 97 64
Width: 900
Flags: HW
LayerCount: 2
Fore
SplineSet
150 87 m 0
 181.333 87 209.667 95 235 111 c 128
 260.333 127 284.333 150.833 307 182.5 c 128
 329.667 214.167 354.333 253.333 381 300 c 2
 470 463 l 1
 479 463 l 1
 470 213 l 1
 569 423 l 1
 577 423 l 1
 574 222 l 1
 672 399 l 1
 676 239 l 1
 747 365 l 1
 766 280 l 2
 772.667 250 784.333 235 801 235 c 0
 810.333 235 819.667 238.667 829 246 c 2
 869 279 l 1
 892 265 l 1
 885.333 259.667 876.333 252 865 242 c 128
 853.667 232 845.667 225.5 841 222.5 c 128
 836.333 219.5 829.167 216 819.5 212 c 128
 809.833 208 799 205.667 787 205 c 0
 771 205 760 210.5 754 221.5 c 128
 748 232.5 740.667 255.333 732 290 c 1
 654 155 l 1
 650 309 l 1
 549 122 l 1
 549 322 l 1
 447 105 l 1
 439 105 l 1
 447 365 l 1
 386 254 l 1
 332 170 l 1
 274 105 l 1
 214 70 l 1
 141 56 l 1
 93.6667 56 59.6667 71.3333 39 102 c 128
 18.3333 132.667 8 167.333 8 206 c 128
 8 244.667 17.3333 286.5 36 331.5 c 128
 54.6667 376.5 82.5 416.167 119.5 450.5 c 128
 156.5 484.833 197 502 241 502 c 0
 274.333 502 300 492.667 318 474 c 128
 336 455.333 345 429.333 345 396 c 0
 345 349.333 328.833 301.833 296.5 253.5 c 128
 264.167 205.167 225.333 180.667 180 180 c 0
 157.333 180 141 188.167 131 204.5 c 128
 121 220.833 116 238.333 116 257 c 0
 116 282.333 124.333 303.833 141 321.5 c 128
 157.667 339.167 174.333 348 191 348 c 0
 214.333 348 226 332 226 300 c 0
 226 279.333 218.5 260.667 203.5 244 c 128
 188.5 227.333 174 219 160 219 c 2
 157 219 l 1
 165 213 176 210 190 210 c 0
 219.333 210 247.333 230.5 274 271.5 c 128
 300.667 312.5 314 351.333 314 388 c 0
 314 413.333 307 433.5 293 448.5 c 128
 279 463.5 259 471 233 471 c 0
 185 471 140.667 443 100 387 c 128
 59.3333 331 39 274.667 39 218 c 0
 39 196.667 41.8333 176.833 47.5 158.5 c 128
 53.1667 140.167 64.8333 123.667 82.5 109 c 128
 100.167 94.3333 122.667 87 150 87 c 0
181 320 m 0
 170.333 320 161.167 313.5 153.5 300.5 c 128
 145.833 287.5 142 274.667 142 262 c 0
 142 248.667 148 242 160 242 c 2
 163 242 l 2
 171.667 242 179.667 247.667 187 259 c 128
 194.333 270.333 198 282.667 198 296 c 0
 198 312 192.333 320 181 320 c 0
EndSplineSet
Validated: 1
EndChar

StartChar: b
Encoding: 98 98 65
Width: 900
Flags: HW
LayerCount: 2
Fore
SplineSet
275.5 405 m 0
 275.5 423 281.5 440 293.5 456 c 1
 301.5 458 308.167 464 313.5 474 c 2
 338.5 520 l 2
 343.167 527.333 352.833 535 367.5 543 c 1
 369.5 543 l 1
 371.5 543 l 1
 362.833 558.333 351.833 586.333 338.5 627 c 0
 329.167 657 321.167 677.667 314.5 689 c 0
 303.167 708.333 297.5 724 297.5 736 c 0
 297.5 744.667 301.5 753.333 309.5 762 c 0
 318.167 772.667 328.167 778 339.5 778 c 0
 344.833 778 350.5 777.333 356.5 776 c 0
 371.833 772 382.5 765.667 388.5 757 c 0
 412.5 721 436.5 672.667 460.5 612 c 2
 479.5 565 l 2
 484.167 553 488.833 543.667 493.5 537 c 1
 499.5 542.333 503.5 555.333 505.5 576 c 0
 507.5 590 510.167 602 513.5 612 c 0
 514.833 617.333 517.5 642 521.5 686 c 0
 522.833 704.667 523.5 715 523.5 717 c 2
 523.5 727 l 1
 522.833 729 522.5 731 522.5 733 c 0
 522.5 745 527.833 756.333 538.5 767 c 0
 547.167 777 558.167 782 571.5 782 c 0
 589.5 782 603.167 772.333 612.5 753 c 0
 616.5 744.333 618.833 737.333 619.5 732 c 0
 622.833 693.333 624.5 660.667 624.5 634 c 0
 624.5 627.333 624.167 621 623.5 615 c 2
 619.5 468 l 1
 619.5 461 l 2
 619.5 453 619.833 444.333 620.5 435 c 2
 621.5 424 l 2
 622.833 412 623.5 391.667 623.5 363 c 0
 623.5 351.667 623.167 339 622.5 325 c 2
 624.5 264 l 2
 624.5 256 620.833 229.667 613.5 185 c 0
 612.833 179 612.5 153 612.5 107 c 2
 612.5 40 l 1
 346.5 40 l 1
 346.5 129 l 2
 346.5 135 345.5 143.333 343.5 154 c 0
 340.833 171.333 333.5 191 321.5 213 c 0
 305.5 241.667 297.5 262.333 297.5 275 c 0
 297.5 301 293.167 328.333 284.5 357 c 0
 278.5 376.333 275.5 392.333 275.5 405 c 0
591.5 725 m 2
 590.833 743.667 584.167 753 571.5 753 c 0
 560.167 753 553.833 741.667 552.5 719 c 2
 549.5 665 l 2
 549.5 655.667 547.833 642 544.5 624 c 2
 527.5 529 l 2
 525.5 519.667 521.167 514 514.5 512 c 2
 487.5 505 l 1
 475.5 510 l 1
 472.833 514.667 464.5 533 450.5 565 c 2
 441.5 584 l 2
 426.833 619.333 407.167 661.333 382.5 710 c 0
 374.5 726.667 367.167 737.333 360.5 742 c 0
 355.167 746 350.167 748 345.5 748 c 0
 339.5 748 335.5 746 333.5 742 c 1
 330.833 740 329.5 737.333 329.5 734 c 0
 329.5 724 334.167 710 343.5 692 c 0
 348.167 683.333 353.5 670.667 359.5 654 c 2
 405.5 530 l 1
 472.5 481 l 2
 503.167 457.667 533.833 431 564.5 401 c 1
 565.833 397 566.5 393.667 566.5 391 c 0
 566.5 385 563.167 381.333 556.5 380 c 1
 552.5 380 l 2
 545.167 380 538.5 383 532.5 389 c 0
 530.5 391 529.167 393.333 528.5 396 c 1
 513.167 412.667 486.833 434.667 449.5 462 c 2
 423.5 481 l 1
 421.5 481.667 413.5 487 399.5 497 c 0
 390.167 504.333 382.167 508 375.5 508 c 0
 372.167 508 369.167 506.333 366.5 503 c 0
 365.167 501 363.833 498 362.5 494 c 1
 365.167 486.667 374.5 477 390.5 465 c 0
 403.833 454.333 412.5 446 416.5 440 c 0
 419.167 436 427.833 426.333 442.5 411 c 0
 459.167 393.667 467.5 377.333 467.5 362 c 0
 467.5 350 464.167 334 457.5 314 c 0
 452.833 299.333 450.167 286.667 449.5 276 c 2
 449.5 275 l 2
 449.5 259 458.5 240.667 476.5 220 c 0
 483.833 211.333 491.5 204 499.5 198 c 0
 516.833 186 526.833 177.333 529.5 172 c 0
 530.833 170 531.5 168 531.5 166 c 0
 531.5 160.667 526.833 156.667 517.5 154 c 1
 477.5 170.667 449.833 196.667 434.5 232 c 0
 432.5 236.667 430.167 240.667 427.5 244 c 0
 422.833 251.333 420.833 258.667 421.5 266 c 2
 425.5 303 l 2
 426.167 307.667 425.167 312 422.5 316 c 0
 420.5 319.333 417.167 321.667 412.5 323 c 1
 403.167 315 391.833 311 378.5 311 c 0
 374.5 311 369.833 311.333 364.5 312 c 1
 357.167 314 350.5 317 344.5 321 c 1
 328.5 343 319.167 354 316.5 354 c 0
 315.167 354 314.833 353.333 315.5 352 c 0
 318.833 340.667 321.5 322 323.5 296 c 0
 324.833 280 327.167 268.333 330.5 261 c 2
 375.5 157 l 1
 375.5 147 l 1
 375.5 70 l 1
 584.5 70 l 1
 583.5 159 l 2
 583.5 177.667 585.5 195 589.5 211 c 0
 593.5 227.667 595.5 245.667 595.5 265 c 2
 595.5 269 l 1
 594.5 302 l 2
 595.833 320.667 596.5 338.667 596.5 356 c 0
 596.5 384.667 594.833 411 591.5 435 c 0
 590.167 449.667 589.5 463.667 589.5 477 c 2
 589.5 484 l 1
 595.5 642 l 1
 595.5 647 l 2
 595.5 653 595.167 662.333 594.5 675 c 2
 591.5 725 l 2
343.5 469 m 1
 334.5 460 l 1
 346.5 446 361.833 431.667 380.5 417 c 0
 398.5 401 410.167 383.333 415.5 364 c 0
 416.833 360 417.5 356 417.5 352 c 1
 423.5 346.667 428.167 344 431.5 344 c 256
 434.833 344 437.167 346.667 438.5 352 c 0
 439.167 354.667 439.5 357.667 439.5 361 c 0
 439.5 367.667 437.5 374.667 433.5 382 c 0
 432.167 384.667 430.5 387 428.5 389 c 0
 393.167 425.667 364.833 452.333 343.5 469 c 1
313.5 435 m 1
 308.167 428.333 305.167 417.667 304.5 403 c 1
 331.167 381.667 350.833 361.667 363.5 343 c 1
 368.167 340.333 372.167 339 375.5 339 c 0
 380.833 339 384.833 342 387.5 348 c 0
 388.833 351.333 389.5 354.667 389.5 358 c 0
 389.5 363.333 387.5 369 383.5 375 c 0
 380.833 378.333 377.833 381 374.5 383 c 1
 315.5 433 l 1
 313.5 435 l 1
EndSplineSet
Validated: 33
EndChar

StartChar: c
Encoding: 99 99 66
Width: 900
Flags: HW
LayerCount: 2
Fore
SplineSet
625 461 m 1
 625 427 l 1
 669 427 l 1
 669 461 l 1
 625 461 l 1
583 604 m 1
 602 563 l 1
 639 582 l 1
 652 521 l 1
 718 521 l 1
 746 431 l 1
 661 295 l 1
 748 184 l 1
 835 210 l 1
 845 193 l 1
 811 181 l 1
 811 171 l 1
 874 180 l 1
 877 161 l 1
 812 154 l 1
 812 147 l 1
 860 137 l 1
 849 122 l 1
 801 131 l 1
 712 116 l 1
 619 201 l 1
 559 131 l 1
 625 65 l 1
 773 69 l 1
 775 42 l 1
 693 44 l 1
 684 35 l 1
 796 20 l 1
 788 -3 l 1
 665 14 l 1
 661 10 l 1
 731 -16 l 1
 720 -37 l 1
 595 -3 l 1
 496 -16 l 1
 121 -16 l 1
 23 67 l 1
 23 180 l 1
 125 320 l 1
 364 384 l 1
 496 465 l 1
 472 561 l 1
 510 548 l 1
 523 589 l 1
 555 561 l 1
 583 604 l 1
EndSplineSet
Validated: 1
EndChar

StartChar: d
Encoding: 100 100 67
Width: 900
Flags: HW
LayerCount: 2
Fore
SplineSet
444.5 -13 m 0
 327.167 -13 231.833 21.167 158.5 89.5 c 128
 85.167 157.833 48.5 243.333 48.5 346 c 0
 48.5 450.667 86.333 536.667 162 604 c 128
 237.667 671.333 334.5 705 452.5 705 c 0
 567.833 705 663.167 670.833 738.5 602.5 c 128
 813.833 534.167 851.5 448.667 851.5 346 c 0
 851.5 241.333 813.5 155.333 737.5 88 c 128
 661.5 20.667 563.833 -13 444.5 -13 c 0
729.5 347 m 0
 729.5 388.333 723.5 426.333 711.5 461 c 128
 699.5 495.667 683.5 524.167 663.5 546.5 c 128
 643.5 568.833 621.833 588.5 598.5 605.5 c 128
 575.167 622.5 551.167 635.5 526.5 644.5 c 128
 501.833 653.5 479.833 660.167 460.5 664.5 c 128
 441.167 668.833 424.5 671 410.5 671 c 0
 311.833 671 229.833 635.333 164.5 564 c 0
 109.167 502.667 81.5 431.333 81.5 350 c 0
 81.5 259.333 113 182.167 176 118.5 c 128
 239 54.833 315.5 23 405.5 23 c 0
 494.833 23 571.167 54.667 634.5 118 c 128
 697.833 181.333 729.5 257.667 729.5 347 c 0
EndSplineSet
Validated: 1
EndChar

StartChar: e
Encoding: 101 101 68
Width: 900
Flags: HW
LayerCount: 2
Fore
SplineSet
684.5 589 m 1
 848.5 407 l 1
 848.5 290 l 1
 398.5 101 l 1
 398.5 193 l 1
 51.5 193 l 1
 51.5 320 l 1
 231.5 504 l 1
 616.5 504 l 1
 684.5 589 l 1
684.5 557 m 1
 625.5 485 l 1
 240.5 485 l 1
 72.5 310 l 1
 486.5 310 l 1
 427.5 233 l 1
 826.5 400 l 1
 684.5 557 l 1
EndSplineSet
Validated: 1
EndChar

StartChar: f
Encoding: 102 102 69
Width: 900
Flags: HW
LayerCount: 2
Fore
SplineSet
625 461 m 1
 625 427 l 1
 669 427 l 1
 669 461 l 1
 625 461 l 1
583 604 m 1
 602 563 l 1
 639 582 l 1
 652 521 l 1
 718 521 l 1
 746 431 l 1
 661 295 l 1
 748 184 l 1
 835 210 l 1
 845 193 l 1
 811 181 l 1
 811 171 l 1
 874 180 l 1
 877 161 l 1
 812 154 l 1
 812 147 l 1
 860 137 l 1
 849 122 l 1
 801 131 l 1
 712 116 l 1
 619 201 l 1
 559 131 l 1
 625 65 l 1
 773 69 l 1
 775 42 l 1
 693 44 l 1
 684 35 l 1
 796 20 l 1
 788 -3 l 1
 665 14 l 1
 661 10 l 1
 731 -16 l 1
 720 -37 l 1
 595 -3 l 1
 496 -16 l 1
 121 -16 l 1
 23 67 l 1
 23 180 l 1
 125 320 l 1
 364 384 l 1
 496 465 l 1
 472 561 l 1
 510 548 l 1
 523 589 l 1
 555 561 l 1
 583 604 l 1
EndSplineSet
Validated: 1
EndChar

StartChar: g
Encoding: 103 103 70
Width: 900
Flags: HW
LayerCount: 2
Fore
SplineSet
78 469 m 1
 294 835 l 1
 786 620 l 1
 822 403 l 1
 737 163 l 1
 362 -88 l 1
 197 -56 l 1
 78 469 l 1
132 460 m 1
 239 -13 l 1
 352 -35 l 1
 696 195 l 1
 771 407 l 1
 741 585 l 1
 315 771 l 1
 132 460 l 1
EndSplineSet
Validated: 1
EndChar

StartChar: h
Encoding: 104 104 71
Width: 900
Flags: HW
LayerCount: 2
Fore
SplineSet
575 175 m 1
 512 175 l 1
 512 112 l 1
 388 112 l 1
 388 175 l 1
 512 175 l 1
 512 238 l 1
 575 238 l 1
 575 175 l 1
388 300 m 1
 325 300 l 1
 325 362 l 1
 388 362 l 1
 388 300 l 1
575 300 m 1
 512 300 l 1
 512 362 l 1
 575 362 l 1
 575 300 l 1
325 50 m 1
 575 50 l 1
 575 -12 l 1
 325 -12 l 1
 325 50 l 1
325 50 m 1
 262 50 l 1
 262 112 l 1
 325 112 l 1
 325 50 l 1
575 50 m 1
 575 112 l 1
 638 112 l 1
 638 50 l 1
 575 50 l 1
262 112 m 1
 200 112 l 1
 200 175 l 1
 200 238 l 1
 200 300 l 1
 200 362 l 1
 200 425 l 1
 262 425 l 1
 262 362 l 1
 262 300 l 1
 262 238 l 1
 262 175 l 1
 262 112 l 1
638 112 m 1
 638 175 l 1
 638 238 l 1
 638 300 l 1
 638 362 l 1
 638 425 l 1
 700 425 l 1
 700 362 l 1
 700 300 l 1
 700 238 l 1
 700 175 l 1
 700 112 l 1
 638 112 l 1
388 175 m 1
 325 175 l 1
 325 238 l 1
 388 238 l 1
 388 175 l 1
262 425 m 1
 262 488 l 1
 325 488 l 1
 325 425 l 1
 262 425 l 1
638 425 m 1
 575 425 l 1
 575 488 l 1
 638 488 l 1
 638 425 l 1
325 488 m 1
 325 550 l 1
 575 550 l 1
 575 488 l 1
 325 488 l 1
EndSplineSet
Validated: 5
EndChar

StartChar: i
Encoding: 105 105 72
Width: 900
Flags: HW
LayerCount: 2
Fore
SplineSet
202 51 m 1
 202 549 l 1
 698 300 l 1
 202 51 l 1
EndSplineSet
Validated: 1
EndChar

StartChar: j
Encoding: 106 106 73
Width: 900
Flags: HW
LayerCount: 2
Fore
SplineSet
640.5 327 m 0
 640.5 299 628.167 285 603.5 285 c 0
 597.5 285 591 285.5 584 286.5 c 128
 577 287.5 572.833 288 571.5 288 c 0
 555.5 288 547.5 276.333 547.5 253 c 0
 547.5 246.333 547.667 242.167 548 240.5 c 128
 548.333 238.833 548.5 236.333 548.5 233 c 0
 548.5 205.667 537.833 192 516.5 192 c 0
 513.833 192 508 193.333 499 196 c 128
 490 198.667 483.167 200 478.5 200 c 0
 465.833 200 459.5 190.333 459.5 171 c 2
 460.5 160 l 2
 461.167 152.667 461.5 146.667 461.5 142 c 0
 461.5 114.667 449.5 101 425.5 101 c 0
 422.167 101 416.333 102.333 408 105 c 128
 399.667 107.667 393.833 109 390.5 109 c 0
 374.5 109 366.5 100.333 366.5 83 c 0
 366.5 76.333 367 69.333 368 62 c 128
 369 54.667 369.5 50.333 369.5 49 c 0
 369.5 25.667 357.5 14 333.5 14 c 0
 326.167 14 319.667 14.5 314 15.5 c 128
 308.333 16.5 304.167 17 301.5 17 c 0
 285.5 17 277.5 5 277.5 -19 c 1
 265.5 -14.333 259.5 -4 259.5 12 c 0
 259.5 40 271.167 54 294.5 54 c 0
 296.5 54 302 53.333 311 52 c 128
 320 50.667 325.5 50 327.5 50 c 0
 344.167 50 352.5 56.667 352.5 70 c 0
 352.5 72.667 352.333 78.5 352 87.5 c 128
 351.667 96.5 351.5 103.333 351.5 108 c 0
 351.5 132.667 361.833 145 382.5 145 c 0
 387.167 145 393.333 143.833 401 141.5 c 128
 408.667 139.167 414.833 138 419.5 138 c 0
 434.167 138 441.5 147 441.5 165 c 0
 441.5 168.333 441.333 172.167 441 176.5 c 128
 440.667 180.833 440.5 189.333 440.5 202 c 0
 440.5 225.333 450.5 237 470.5 237 c 0
 474.5 237 481 235.667 490 233 c 128
 499 230.333 504.5 229 506.5 229 c 0
 517.833 229 525.5 234.667 529.5 246 c 0
 530.167 248.667 530.5 259 530.5 277 c 0
 530.5 309 542.167 325 565.5 325 c 0
 567.5 325 573 324.333 582 323 c 128
 591 321.667 596.5 321 598.5 321 c 0
 613.833 321 621.5 334.667 621.5 362 c 1
 634.167 353.333 640.5 341.667 640.5 327 c 0
EndSplineSet
Validated: 1
EndChar

